<?xml version="1.0" encoding="UTF-8" standalone="no"?>
<!DOCTYPE svg PUBLIC "-//W3C//DTD SVG 1.1//EN"
 "http://www.w3.org/Graphics/SVG/1.1/DTD/svg11.dtd">
<!-- Generated by graphviz version 2.43.0 (0)
 -->
<!-- Title: %3 Pages: 1 -->
<svg width="255pt" height="98pt"
 viewBox="0.00 0.00 255.20 98.00" xmlns="http://www.w3.org/2000/svg" xmlns:xlink="http://www.w3.org/1999/xlink">
<g id="graph0" class="graph" transform="scale(1 1) rotate(0) translate(4 94)">
<title>%3</title>
<!-- Start -->
<!-- A -->
<g id="node3" class="node start">
<title>A</title>
<path fill="#586e75" stroke="#586e75" d="M82.6,-90C82.6,-90 52.6,-90 52.6,-90 46.6,-90 40.6,-84 40.6,-78 40.6,-78 40.6,-66 40.6,-66 40.6,-60 46.6,-54 52.6,-54 52.6,-54 82.6,-54 82.6,-54 88.6,-54 94.6,-60 94.6,-66 94.6,-66 94.6,-78 94.6,-78 94.6,-84 88.6,-90 82.6,-90"/>
<text text-anchor="middle" x="67.6" y="-68.3" font-family="Inter,Arial" font-size="14.00" fill="#ffffff">A</text>
</g>
<!-- Start&#45;&gt;A -->
<g id="edge3" class="edge start">
<title>Start&#45;&gt;A</title>
<path fill="none" stroke="#586e75" stroke-width="2" d="M3.91,-72C7.37,-72 18.49,-72 30.42,-72"/>
<polygon fill="#586e75" stroke="#586e75" stroke-width="2" points="30.48,-75.5 40.48,-72 30.48,-68.5 30.48,-75.5"/>
</g>
<!-- Goal -->
<!-- FA -->
<g id="node4" class="node goal,disabled">
<title>FA</title>
<path fill="#d0dce3" stroke="#d0dce3" d="M194.6,-90C194.6,-90 164.6,-90 164.6,-90 158.6,-90 152.6,-84 152.6,-78 152.6,-78 152.6,-66 152.6,-66 152.6,-60 158.6,-54 164.6,-54 164.6,-54 194.6,-54 194.6,-54 200.6,-54 206.6,-60 206.6,-66 206.6,-66 206.6,-78 206.6,-78 206.6,-84 200.6,-90 194.6,-90"/>
<text text-anchor="middle" x="179.6" y="-68.3" font-family="Inter,Arial" font-size="14.00" fill="#ffffff">F[A]</text>
</g>
<!-- A&#45;&gt;FA -->
<g id="edge1" class="edge disabled">
<title>A&#45;&gt;FA</title>
<path fill="none" stroke="#d0dce3" d="M94.67,-72C108.81,-72 126.52,-72 142.03,-72"/>
<polygon fill="#d0dce3" stroke="#d0dce3" points="142.34,-75.5 152.34,-72 142.34,-68.5 142.34,-75.5"/>
<text text-anchor="middle" x="123.6" y="-75.2" font-family="Inter,Arial" font-size="11.00" fill="#d0dce3">pure</text>
</g>
<!-- FA&#45;&gt;Goal -->
<g id="edge4" class="edge goal,disabled">
<title>FA&#45;&gt;Goal</title>
<path fill="none" stroke="#d0dce3" stroke-width="2" d="M206.92,-72C216.17,-72 226.07,-72 233.37,-72"/>
<polygon fill="#d0dce3" stroke="#d0dce3" stroke-width="2" points="233.51,-75.5 243.51,-72 233.51,-68.5 233.51,-75.5"/>
</g>
<!-- zero -->
<!-- zero&#45;&gt;FA -->
</g>
</svg>
