<?xml version="1.0" encoding="UTF-8" standalone="no"?>
<!DOCTYPE svg PUBLIC "-//W3C//DTD SVG 1.1//EN"
 "http://www.w3.org/Graphics/SVG/1.1/DTD/svg11.dtd">
<!-- Generated by graphviz version 2.43.0 (0)
 -->
<!-- Title: %3 Pages: 1 -->
<svg width="506pt" height="116pt"
 viewBox="0.00 0.00 506.20 116.00" xmlns="http://www.w3.org/2000/svg" xmlns:xlink="http://www.w3.org/1999/xlink">
<g id="graph0" class="graph" transform="scale(1 1) rotate(0) translate(4 112)">
<title>%3</title>
<!-- Start -->
<!-- FA -->
<g id="node3" class="node start">
<title>FA</title>
<path fill="#586e75" stroke="#586e75" d="M87.6,-36C87.6,-36 52.6,-36 52.6,-36 46.6,-36 40.6,-30 40.6,-24 40.6,-24 40.6,-12 40.6,-12 40.6,-6 46.6,0 52.6,0 52.6,0 87.6,0 87.6,0 93.6,0 99.6,-6 99.6,-12 99.6,-12 99.6,-24 99.6,-24 99.6,-30 93.6,-36 87.6,-36"/>
<text text-anchor="middle" x="70.1" y="-14.3" font-family="Inter,Arial" font-size="14.00" fill="#ffffff">Flag[A]</text>
</g>
<!-- Start&#45;&gt;FA -->
<g id="edge9" class="edge start">
<title>Start&#45;&gt;FA</title>
<path fill="none" stroke="#586e75" stroke-width="2" d="M3.95,-18C7.44,-18 18.42,-18 30.39,-18"/>
<polygon fill="#586e75" stroke="#586e75" stroke-width="2" points="30.54,-21.5 40.54,-18 30.54,-14.5 30.54,-21.5"/>
</g>
<!-- Goal -->
<!-- XX -->
<g id="node8" class="node disabled">
<title>XX</title>
<path fill="#ffffff" stroke="#d0dce3" d="M251.6,-36C251.6,-36 151.6,-36 151.6,-36 145.6,-36 139.6,-30 139.6,-24 139.6,-24 139.6,-12 139.6,-12 139.6,-6 145.6,0 151.6,0 151.6,0 251.6,0 251.6,0 257.6,0 263.6,-6 263.6,-12 263.6,-12 263.6,-24 263.6,-24 263.6,-30 257.6,-36 251.6,-36"/>
<text text-anchor="middle" x="201.6" y="-14.3" font-family="Inter,Arial" font-size="14.00" fill="#d0dce3">Boolean×Boolean</text>
</g>
<!-- FA&#45;&gt;XX -->
<!-- A -->
<g id="node4" class="node disabled">
<title>A</title>
<path fill="#ffffff" stroke="#d0dce3" d="M85.1,-108C85.1,-108 55.1,-108 55.1,-108 49.1,-108 43.1,-102 43.1,-96 43.1,-96 43.1,-84 43.1,-84 43.1,-78 49.1,-72 55.1,-72 55.1,-72 85.1,-72 85.1,-72 91.1,-72 97.1,-78 97.1,-84 97.1,-84 97.1,-96 97.1,-96 97.1,-102 91.1,-108 85.1,-108"/>
<text text-anchor="middle" x="70.1" y="-86.3" font-family="Inter,Arial" font-size="14.00" fill="#d0dce3">A</text>
</g>
<!-- A&#45;&gt;FA -->
<!-- FB -->
<g id="node5" class="node">
<title>FB</title>
<path fill="#ffffff" stroke="#586e75" d="M219.1,-108C219.1,-108 184.1,-108 184.1,-108 178.1,-108 172.1,-102 172.1,-96 172.1,-96 172.1,-84 172.1,-84 172.1,-78 178.1,-72 184.1,-72 184.1,-72 219.1,-72 219.1,-72 225.1,-72 231.1,-78 231.1,-84 231.1,-84 231.1,-96 231.1,-96 231.1,-102 225.1,-108 219.1,-108"/>
<text text-anchor="middle" x="201.6" y="-86.3" font-family="Inter,Arial" font-size="14.00" fill="#586e75">Flag[B]</text>
</g>
<!-- A&#45;&gt;FB -->
<g id="edge5" class="edge disabled">
<title>A&#45;&gt;FB</title>
<path fill="none" stroke="#d0dce3" d="M97.31,-90C115.77,-90 140.8,-90 161.6,-90"/>
<polygon fill="#d0dce3" stroke="#d0dce3" points="161.73,-93.5 171.73,-90 161.73,-86.5 161.73,-93.5"/>
<text text-anchor="middle" x="119.6" y="-93.2" font-family="Inter,Arial" font-size="11.00" fill="#d0dce3">f</text>
</g>
<!-- B -->
<!-- FB&#45;&gt;B -->
<!-- FB&#45;&gt;XX -->
<!-- FB2 -->
<g id="node7" class="node goal">
<title>FB2</title>
<path fill="#586e75" stroke="#586e75" d="M442.1,-108C442.1,-108 407.1,-108 407.1,-108 401.1,-108 395.1,-102 395.1,-96 395.1,-96 395.1,-84 395.1,-84 395.1,-78 401.1,-72 407.1,-72 407.1,-72 442.1,-72 442.1,-72 448.1,-72 454.1,-78 454.1,-84 454.1,-84 454.1,-96 454.1,-96 454.1,-102 448.1,-108 442.1,-108"/>
<text text-anchor="middle" x="424.6" y="-86.3" font-family="Inter,Arial" font-size="14.00" fill="#ffffff">Flag[B]</text>
</g>
<!-- B&#45;&gt;FB2 -->
<!-- FB2&#45;&gt;Goal -->
<g id="edge10" class="edge goal">
<title>FB2&#45;&gt;Goal</title>
<path fill="none" stroke="#586e75" stroke-width="2" d="M454.39,-90C464.91,-90 476.19,-90 484.25,-90"/>
<polygon fill="#586e75" stroke="#586e75" stroke-width="2" points="484.43,-93.5 494.43,-90 484.43,-86.5 484.43,-93.5"/>
</g>
<!-- X -->
<g id="node9" class="node disabled">
<title>X</title>
<path fill="#ffffff" stroke="#d0dce3" d="M445.6,-36C445.6,-36 403.6,-36 403.6,-36 397.6,-36 391.6,-30 391.6,-24 391.6,-24 391.6,-12 391.6,-12 391.6,-6 397.6,0 403.6,0 403.6,0 445.6,0 445.6,0 451.6,0 457.6,-6 457.6,-12 457.6,-12 457.6,-24 457.6,-24 457.6,-30 451.6,-36 445.6,-36"/>
<text text-anchor="middle" x="424.6" y="-14.3" font-family="Inter,Arial" font-size="14.00" fill="#d0dce3">Boolean</text>
</g>
<!-- FB2&#45;&gt;X -->
<!-- XX&#45;&gt;X -->
<g id="edge6" class="edge disabled">
<title>XX&#45;&gt;X</title>
<path fill="none" stroke="#d0dce3" d="M263.87,-18C301.21,-18 347.99,-18 381.25,-18"/>
<polygon fill="#d0dce3" stroke="#d0dce3" points="381.55,-21.5 391.55,-18 381.55,-14.5 381.55,-21.5"/>
<text text-anchor="middle" x="327.6" y="-21.2" font-family="Inter,Arial" font-size="11.00" fill="#d0dce3">||</text>
</g>
</g>
</svg>
