<?xml version="1.0" encoding="UTF-8" standalone="no"?>
<!DOCTYPE svg PUBLIC "-//W3C//DTD SVG 1.1//EN"
 "http://www.w3.org/Graphics/SVG/1.1/DTD/svg11.dtd">
<!-- Generated by graphviz version 2.43.0 (0)
 -->
<!-- Title: %3 Pages: 1 -->
<svg width="271pt" height="98pt"
 viewBox="0.00 0.00 271.20 98.00" xmlns="http://www.w3.org/2000/svg" xmlns:xlink="http://www.w3.org/1999/xlink">
<g id="graph0" class="graph" transform="scale(1 1) rotate(0) translate(4 94)">
<title>%3</title>
<!-- Start -->
<!-- A -->
<g id="node3" class="node start">
<title>A</title>
<path fill="#586e75" stroke="#586e75" d="M87.6,-90C87.6,-90 57.6,-90 57.6,-90 51.6,-90 45.6,-84 45.6,-78 45.6,-78 45.6,-66 45.6,-66 45.6,-60 51.6,-54 57.6,-54 57.6,-54 87.6,-54 87.6,-54 93.6,-54 99.6,-60 99.6,-66 99.6,-66 99.6,-78 99.6,-78 99.6,-84 93.6,-90 87.6,-90"/>
<text text-anchor="middle" x="72.6" y="-68.3" font-family="Inter,Arial" font-size="14.00" fill="#ffffff">A</text>
</g>
<!-- Start&#45;&gt;A -->
<g id="edge3" class="edge start">
<title>Start&#45;&gt;A</title>
<path fill="none" stroke="#586e75" stroke-width="2" d="M3.77,-72C7.45,-72 21.03,-72 35.08,-72"/>
<polygon fill="#586e75" stroke="#586e75" stroke-width="2" points="35.26,-75.5 45.26,-72 35.26,-68.5 35.26,-75.5"/>
</g>
<!-- Goal -->
<!-- FA -->
<g id="node4" class="node goal">
<title>FA</title>
<path fill="#586e75" stroke="#586e75" d="M211.6,-90C211.6,-90 153.6,-90 153.6,-90 147.6,-90 141.6,-84 141.6,-78 141.6,-78 141.6,-66 141.6,-66 141.6,-60 147.6,-54 153.6,-54 153.6,-54 211.6,-54 211.6,-54 217.6,-54 223.6,-60 223.6,-66 223.6,-66 223.6,-78 223.6,-78 223.6,-84 217.6,-90 211.6,-90"/>
<text text-anchor="middle" x="182.6" y="-68.3" font-family="Inter,Arial" font-size="14.00" fill="#ffffff">Flagged[A]</text>
</g>
<!-- A&#45;&gt;FA -->
<g id="edge1" class="edge">
<title>A&#45;&gt;FA</title>
<path fill="none" stroke="#586e75" d="M99.74,-72C109.21,-72 120.24,-72 131.08,-72"/>
<polygon fill="#586e75" stroke="#586e75" points="131.37,-75.5 141.37,-72 131.37,-68.5 131.37,-75.5"/>
</g>
<!-- FA&#45;&gt;Goal -->
<g id="edge4" class="edge goal">
<title>FA&#45;&gt;Goal</title>
<path fill="none" stroke="#586e75" stroke-width="2" d="M223.8,-72C233.33,-72 242.71,-72 249.58,-72"/>
<polygon fill="#586e75" stroke="#586e75" stroke-width="2" points="249.59,-75.5 259.59,-72 249.59,-68.5 249.59,-75.5"/>
</g>
<!-- empty -->
<g id="node5" class="node">
<title>empty</title>
<path fill="#ffffff" stroke="#586e75" d="M93.6,-36C93.6,-36 51.6,-36 51.6,-36 45.6,-36 39.6,-30 39.6,-24 39.6,-24 39.6,-12 39.6,-12 39.6,-6 45.6,0 51.6,0 51.6,0 93.6,0 93.6,0 99.6,0 105.6,-6 105.6,-12 105.6,-12 105.6,-24 105.6,-24 105.6,-30 99.6,-36 93.6,-36"/>
<text text-anchor="middle" x="72.6" y="-14.3" font-family="Inter,Arial" font-size="14.00" fill="#586e75">Boolean</text>
</g>
<!-- empty&#45;&gt;FA -->
<g id="edge2" class="edge">
<title>empty&#45;&gt;FA</title>
<path fill="none" stroke="#586e75" d="M105.71,-34.06C115.23,-38.82 125.85,-44.12 136.05,-49.22"/>
<polygon fill="#586e75" stroke="#586e75" points="134.75,-52.49 145.26,-53.83 137.88,-46.23 134.75,-52.49"/>
</g>
</g>
</svg>
