<?xml version="1.0" encoding="UTF-8" standalone="no"?>
<!DOCTYPE svg PUBLIC "-//W3C//DTD SVG 1.1//EN"
 "http://www.w3.org/Graphics/SVG/1.1/DTD/svg11.dtd">
<!-- Generated by graphviz version 2.43.0 (0)
 -->
<!-- Title: %3 Pages: 1 -->
<svg width="545pt" height="116pt"
 viewBox="0.00 0.00 545.20 116.00" xmlns="http://www.w3.org/2000/svg" xmlns:xlink="http://www.w3.org/1999/xlink">
<g id="graph0" class="graph" transform="scale(1 1) rotate(0) translate(4 112)">
<title>%3</title>
<!-- Start -->
<!-- FA -->
<g id="node3" class="node start">
<title>FA</title>
<path fill="#586e75" stroke="#586e75" d="M110.6,-36C110.6,-36 52.6,-36 52.6,-36 46.6,-36 40.6,-30 40.6,-24 40.6,-24 40.6,-12 40.6,-12 40.6,-6 46.6,0 52.6,0 52.6,0 110.6,0 110.6,0 116.6,0 122.6,-6 122.6,-12 122.6,-12 122.6,-24 122.6,-24 122.6,-30 116.6,-36 110.6,-36"/>
<text text-anchor="middle" x="81.6" y="-14.3" font-family="Inter,Arial" font-size="14.00" fill="#ffffff">Flagged[A]</text>
</g>
<!-- Start&#45;&gt;FA -->
<g id="edge9" class="edge start">
<title>Start&#45;&gt;FA</title>
<path fill="none" stroke="#586e75" stroke-width="2" d="M3.67,-18C6.73,-18 17.43,-18 29.93,-18"/>
<polygon fill="#586e75" stroke="#586e75" stroke-width="2" points="30.22,-21.5 40.22,-18 30.22,-14.5 30.22,-21.5"/>
</g>
<!-- Goal -->
<!-- XX -->
<g id="node8" class="node">
<title>XX</title>
<path fill="#ffffff" stroke="#586e75" d="M274.6,-36C274.6,-36 174.6,-36 174.6,-36 168.6,-36 162.6,-30 162.6,-24 162.6,-24 162.6,-12 162.6,-12 162.6,-6 168.6,0 174.6,0 174.6,0 274.6,0 274.6,0 280.6,0 286.6,-6 286.6,-12 286.6,-12 286.6,-24 286.6,-24 286.6,-30 280.6,-36 274.6,-36"/>
<text text-anchor="middle" x="224.6" y="-14.3" font-family="Inter,Arial" font-size="14.00" fill="#586e75">Boolean×Boolean</text>
</g>
<!-- FA&#45;&gt;XX -->
<g id="edge4" class="edge">
<title>FA&#45;&gt;XX</title>
<path fill="none" stroke="#586e75" d="M122.63,-18C131.91,-18 142.06,-18 152.24,-18"/>
<polygon fill="#586e75" stroke="#586e75" points="152.4,-21.5 162.4,-18 152.4,-14.5 152.4,-21.5"/>
</g>
<!-- A -->
<g id="node4" class="node">
<title>A</title>
<path fill="#ffffff" stroke="#586e75" d="M96.6,-108C96.6,-108 66.6,-108 66.6,-108 60.6,-108 54.6,-102 54.6,-96 54.6,-96 54.6,-84 54.6,-84 54.6,-78 60.6,-72 66.6,-72 66.6,-72 96.6,-72 96.6,-72 102.6,-72 108.6,-78 108.6,-84 108.6,-84 108.6,-96 108.6,-96 108.6,-102 102.6,-108 96.6,-108"/>
<text text-anchor="middle" x="81.6" y="-86.3" font-family="Inter,Arial" font-size="14.00" fill="#586e75">A</text>
</g>
<!-- A&#45;&gt;FA -->
<g id="edge1" class="edge">
<title>A&#45;&gt;FA</title>
<path fill="none" stroke="#586e75" d="M81.6,-61.92C81.6,-53.37 81.6,-44.83 81.6,-36.28"/>
<polygon fill="#586e75" stroke="#586e75" points="78.1,-61.95 81.6,-71.95 85.1,-61.95 78.1,-61.95"/>
</g>
<!-- FB -->
<g id="node5" class="node">
<title>FB</title>
<path fill="#ffffff" stroke="#586e75" d="M253.6,-108C253.6,-108 195.6,-108 195.6,-108 189.6,-108 183.6,-102 183.6,-96 183.6,-96 183.6,-84 183.6,-84 183.6,-78 189.6,-72 195.6,-72 195.6,-72 253.6,-72 253.6,-72 259.6,-72 265.6,-78 265.6,-84 265.6,-84 265.6,-96 265.6,-96 265.6,-102 259.6,-108 253.6,-108"/>
<text text-anchor="middle" x="224.6" y="-86.3" font-family="Inter,Arial" font-size="14.00" fill="#586e75">Flagged[B]</text>
</g>
<!-- A&#45;&gt;FB -->
<g id="edge5" class="edge">
<title>A&#45;&gt;FB</title>
<path fill="none" stroke="#586e75" d="M108.79,-90C126.87,-90 151.49,-90 173.3,-90"/>
<polygon fill="#586e75" stroke="#586e75" points="173.41,-93.5 183.41,-90 173.41,-86.5 173.41,-93.5"/>
<text text-anchor="middle" x="142.6" y="-93.2" font-family="Inter,Arial" font-size="11.00" fill="#586e75">f</text>
</g>
<!-- B -->
<g id="node6" class="node">
<title>B</title>
<path fill="#ffffff" stroke="#586e75" d="M365.6,-108C365.6,-108 335.6,-108 335.6,-108 329.6,-108 323.6,-102 323.6,-96 323.6,-96 323.6,-84 323.6,-84 323.6,-78 329.6,-72 335.6,-72 335.6,-72 365.6,-72 365.6,-72 371.6,-72 377.6,-78 377.6,-84 377.6,-84 377.6,-96 377.6,-96 377.6,-102 371.6,-108 365.6,-108"/>
<text text-anchor="middle" x="350.6" y="-86.3" font-family="Inter,Arial" font-size="14.00" fill="#586e75">B</text>
</g>
<!-- FB&#45;&gt;B -->
<g id="edge7" class="edge">
<title>FB&#45;&gt;B</title>
<path fill="none" stroke="#586e75" d="M265.86,-90C281.11,-90 298.37,-90 313.24,-90"/>
<polygon fill="#586e75" stroke="#586e75" points="313.58,-93.5 323.58,-90 313.58,-86.5 313.58,-93.5"/>
</g>
<!-- FB&#45;&gt;XX -->
<g id="edge2" class="edge">
<title>FB&#45;&gt;XX</title>
<path fill="none" stroke="#586e75" d="M224.6,-71.95C224.6,-63.41 224.6,-54.86 224.6,-46.31"/>
<polygon fill="#586e75" stroke="#586e75" points="228.1,-46.28 224.6,-36.28 221.1,-46.28 228.1,-46.28"/>
</g>
<!-- FB2 -->
<g id="node7" class="node goal">
<title>FB2</title>
<path fill="#586e75" stroke="#586e75" d="M484.6,-108C484.6,-108 426.6,-108 426.6,-108 420.6,-108 414.6,-102 414.6,-96 414.6,-96 414.6,-84 414.6,-84 414.6,-78 420.6,-72 426.6,-72 426.6,-72 484.6,-72 484.6,-72 490.6,-72 496.6,-78 496.6,-84 496.6,-84 496.6,-96 496.6,-96 496.6,-102 490.6,-108 484.6,-108"/>
<text text-anchor="middle" x="455.6" y="-86.3" font-family="Inter,Arial" font-size="14.00" fill="#ffffff">Flagged[B]</text>
</g>
<!-- B&#45;&gt;FB2 -->
<g id="edge8" class="edge">
<title>B&#45;&gt;FB2</title>
<path fill="none" stroke="#586e75" d="M377.86,-90C385.91,-90 395.06,-90 404.17,-90"/>
<polygon fill="#586e75" stroke="#586e75" points="404.37,-93.5 414.37,-90 404.37,-86.5 404.37,-93.5"/>
</g>
<!-- FB2&#45;&gt;Goal -->
<g id="edge10" class="edge goal">
<title>FB2&#45;&gt;Goal</title>
<path fill="none" stroke="#586e75" stroke-width="2" d="M496.87,-90C506.73,-90 516.48,-90 523.56,-90"/>
<polygon fill="#586e75" stroke="#586e75" stroke-width="2" points="523.57,-93.5 533.57,-90 523.57,-86.5 523.57,-93.5"/>
</g>
<!-- X -->
<g id="node9" class="node">
<title>X</title>
<path fill="#ffffff" stroke="#586e75" d="M476.6,-36C476.6,-36 434.6,-36 434.6,-36 428.6,-36 422.6,-30 422.6,-24 422.6,-24 422.6,-12 422.6,-12 422.6,-6 428.6,0 434.6,0 434.6,0 476.6,0 476.6,0 482.6,0 488.6,-6 488.6,-12 488.6,-12 488.6,-24 488.6,-24 488.6,-30 482.6,-36 476.6,-36"/>
<text text-anchor="middle" x="455.6" y="-14.3" font-family="Inter,Arial" font-size="14.00" fill="#586e75">Boolean</text>
</g>
<!-- FB2&#45;&gt;X -->
<g id="edge3" class="edge">
<title>FB2&#45;&gt;X</title>
<path fill="none" stroke="#586e75" d="M455.6,-61.92C455.6,-53.37 455.6,-44.83 455.6,-36.28"/>
<polygon fill="#586e75" stroke="#586e75" points="452.1,-61.95 455.6,-71.95 459.1,-61.95 452.1,-61.95"/>
</g>
<!-- XX&#45;&gt;X -->
<g id="edge6" class="edge">
<title>XX&#45;&gt;X</title>
<path fill="none" stroke="#586e75" d="M286.67,-18C326.17,-18 376.61,-18 411.86,-18"/>
<polygon fill="#586e75" stroke="#586e75" points="412.28,-21.5 422.28,-18 412.28,-14.5 412.28,-21.5"/>
<text text-anchor="middle" x="350.6" y="-21.2" font-family="Inter,Arial" font-size="11.00" fill="#586e75">||</text>
</g>
</g>
</svg>
