<?xml version="1.0" encoding="UTF-8" standalone="no"?>
<!DOCTYPE svg PUBLIC "-//W3C//DTD SVG 1.1//EN"
 "http://www.w3.org/Graphics/SVG/1.1/DTD/svg11.dtd">
<!-- Generated by graphviz version 2.43.0 (0)
 -->
<!-- Title: %3 Pages: 1 -->
<svg width="522pt" height="116pt"
 viewBox="0.00 0.00 522.20 116.00" xmlns="http://www.w3.org/2000/svg" xmlns:xlink="http://www.w3.org/1999/xlink">
<g id="graph0" class="graph" transform="scale(1 1) rotate(0) translate(4 112)">
<title>%3</title>
<!-- Start -->
<!-- FA -->
<g id="node3" class="node start">
<title>FA</title>
<path fill="#586e75" stroke="#586e75" d="M110.6,-36C110.6,-36 52.6,-36 52.6,-36 46.6,-36 40.6,-30 40.6,-24 40.6,-24 40.6,-12 40.6,-12 40.6,-6 46.6,0 52.6,0 52.6,0 110.6,0 110.6,0 116.6,0 122.6,-6 122.6,-12 122.6,-12 122.6,-24 122.6,-24 122.6,-30 116.6,-36 110.6,-36"/>
<text text-anchor="middle" x="81.6" y="-14.3" font-family="Inter,Arial" font-size="14.00" fill="#ffffff">Flagged[A]</text>
</g>
<!-- Start&#45;&gt;FA -->
<g id="edge9" class="edge start">
<title>Start&#45;&gt;FA</title>
<path fill="none" stroke="#586e75" stroke-width="2" d="M3.67,-18C6.73,-18 17.43,-18 29.93,-18"/>
<polygon fill="#586e75" stroke="#586e75" stroke-width="2" points="30.22,-21.5 40.22,-18 30.22,-14.5 30.22,-21.5"/>
</g>
<!-- Goal -->
<!-- XX -->
<g id="node8" class="node">
<title>XX</title>
<path fill="#ffffff" stroke="#586e75" d="M251.6,-36C251.6,-36 174.6,-36 174.6,-36 168.6,-36 162.6,-30 162.6,-24 162.6,-24 162.6,-12 162.6,-12 162.6,-6 168.6,0 174.6,0 174.6,0 251.6,0 251.6,0 257.6,0 263.6,-6 263.6,-12 263.6,-12 263.6,-24 263.6,-24 263.6,-30 257.6,-36 251.6,-36"/>
<text text-anchor="middle" x="213.1" y="-14.3" font-family="Inter,Arial" font-size="14.00" fill="#586e75">PosInt×PosInt</text>
</g>
<!-- FA&#45;&gt;XX -->
<g id="edge4" class="edge">
<title>FA&#45;&gt;XX</title>
<path fill="none" stroke="#586e75" d="M122.86,-18C132.12,-18 142.16,-18 152.06,-18"/>
<polygon fill="#586e75" stroke="#586e75" points="152.28,-21.5 162.28,-18 152.27,-14.5 152.28,-21.5"/>
</g>
<!-- A -->
<g id="node4" class="node">
<title>A</title>
<path fill="#ffffff" stroke="#586e75" d="M96.6,-108C96.6,-108 66.6,-108 66.6,-108 60.6,-108 54.6,-102 54.6,-96 54.6,-96 54.6,-84 54.6,-84 54.6,-78 60.6,-72 66.6,-72 66.6,-72 96.6,-72 96.6,-72 102.6,-72 108.6,-78 108.6,-84 108.6,-84 108.6,-96 108.6,-96 108.6,-102 102.6,-108 96.6,-108"/>
<text text-anchor="middle" x="81.6" y="-86.3" font-family="Inter,Arial" font-size="14.00" fill="#586e75">A</text>
</g>
<!-- A&#45;&gt;FA -->
<g id="edge1" class="edge">
<title>A&#45;&gt;FA</title>
<path fill="none" stroke="#586e75" d="M81.6,-61.92C81.6,-53.37 81.6,-44.83 81.6,-36.28"/>
<polygon fill="#586e75" stroke="#586e75" points="78.1,-61.95 81.6,-71.95 85.1,-61.95 78.1,-61.95"/>
</g>
<!-- FB -->
<g id="node5" class="node">
<title>FB</title>
<path fill="#ffffff" stroke="#586e75" d="M242.1,-108C242.1,-108 184.1,-108 184.1,-108 178.1,-108 172.1,-102 172.1,-96 172.1,-96 172.1,-84 172.1,-84 172.1,-78 178.1,-72 184.1,-72 184.1,-72 242.1,-72 242.1,-72 248.1,-72 254.1,-78 254.1,-84 254.1,-84 254.1,-96 254.1,-96 254.1,-102 248.1,-108 242.1,-108"/>
<text text-anchor="middle" x="213.1" y="-86.3" font-family="Inter,Arial" font-size="14.00" fill="#586e75">Flagged[B]</text>
</g>
<!-- A&#45;&gt;FB -->
<g id="edge5" class="edge">
<title>A&#45;&gt;FB</title>
<path fill="none" stroke="#586e75" d="M108.81,-90C124.01,-90 143.68,-90 161.77,-90"/>
<polygon fill="#586e75" stroke="#586e75" points="161.9,-93.5 171.9,-90 161.9,-86.5 161.9,-93.5"/>
<text text-anchor="middle" x="142.6" y="-93.2" font-family="Inter,Arial" font-size="11.00" fill="#586e75">f</text>
</g>
<!-- B -->
<g id="node6" class="node">
<title>B</title>
<path fill="#ffffff" stroke="#586e75" d="M342.6,-108C342.6,-108 312.6,-108 312.6,-108 306.6,-108 300.6,-102 300.6,-96 300.6,-96 300.6,-84 300.6,-84 300.6,-78 306.6,-72 312.6,-72 312.6,-72 342.6,-72 342.6,-72 348.6,-72 354.6,-78 354.6,-84 354.6,-84 354.6,-96 354.6,-96 354.6,-102 348.6,-108 342.6,-108"/>
<text text-anchor="middle" x="327.6" y="-86.3" font-family="Inter,Arial" font-size="14.00" fill="#586e75">B</text>
</g>
<!-- FB&#45;&gt;B -->
<g id="edge7" class="edge">
<title>FB&#45;&gt;B</title>
<path fill="none" stroke="#586e75" d="M254.4,-90C266.08,-90 278.76,-90 290.19,-90"/>
<polygon fill="#586e75" stroke="#586e75" points="290.27,-93.5 300.27,-90 290.27,-86.5 290.27,-93.5"/>
</g>
<!-- FB&#45;&gt;XX -->
<g id="edge2" class="edge">
<title>FB&#45;&gt;XX</title>
<path fill="none" stroke="#586e75" d="M213.1,-71.95C213.1,-63.41 213.1,-54.86 213.1,-46.31"/>
<polygon fill="#586e75" stroke="#586e75" points="216.6,-46.28 213.1,-36.28 209.6,-46.28 216.6,-46.28"/>
</g>
<!-- FB2 -->
<g id="node7" class="node goal">
<title>FB2</title>
<path fill="#586e75" stroke="#586e75" d="M461.6,-108C461.6,-108 403.6,-108 403.6,-108 397.6,-108 391.6,-102 391.6,-96 391.6,-96 391.6,-84 391.6,-84 391.6,-78 397.6,-72 403.6,-72 403.6,-72 461.6,-72 461.6,-72 467.6,-72 473.6,-78 473.6,-84 473.6,-84 473.6,-96 473.6,-96 473.6,-102 467.6,-108 461.6,-108"/>
<text text-anchor="middle" x="432.6" y="-86.3" font-family="Inter,Arial" font-size="14.00" fill="#ffffff">Flagged[B]</text>
</g>
<!-- B&#45;&gt;FB2 -->
<g id="edge8" class="edge">
<title>B&#45;&gt;FB2</title>
<path fill="none" stroke="#586e75" d="M354.86,-90C362.91,-90 372.06,-90 381.17,-90"/>
<polygon fill="#586e75" stroke="#586e75" points="381.37,-93.5 391.37,-90 381.37,-86.5 381.37,-93.5"/>
</g>
<!-- FB2&#45;&gt;Goal -->
<g id="edge10" class="edge goal">
<title>FB2&#45;&gt;Goal</title>
<path fill="none" stroke="#586e75" stroke-width="2" d="M473.87,-90C483.73,-90 493.48,-90 500.56,-90"/>
<polygon fill="#586e75" stroke="#586e75" stroke-width="2" points="500.57,-93.5 510.57,-90 500.57,-86.5 500.57,-93.5"/>
</g>
<!-- X -->
<g id="node9" class="node">
<title>X</title>
<path fill="#ffffff" stroke="#586e75" d="M448.1,-36C448.1,-36 417.1,-36 417.1,-36 411.1,-36 405.1,-30 405.1,-24 405.1,-24 405.1,-12 405.1,-12 405.1,-6 411.1,0 417.1,0 417.1,0 448.1,0 448.1,0 454.1,0 460.1,-6 460.1,-12 460.1,-12 460.1,-24 460.1,-24 460.1,-30 454.1,-36 448.1,-36"/>
<text text-anchor="middle" x="432.6" y="-14.3" font-family="Inter,Arial" font-size="14.00" fill="#586e75">PosInt</text>
</g>
<!-- FB2&#45;&gt;X -->
<g id="edge3" class="edge">
<title>FB2&#45;&gt;X</title>
<path fill="none" stroke="#586e75" d="M432.6,-61.92C432.6,-53.37 432.6,-44.83 432.6,-36.28"/>
<polygon fill="#586e75" stroke="#586e75" points="429.1,-61.95 432.6,-71.95 436.1,-61.95 429.1,-61.95"/>
</g>
<!-- XX&#45;&gt;X -->
<g id="edge6" class="edge">
<title>XX&#45;&gt;X</title>
<path fill="none" stroke="#586e75" d="M263.73,-18C303.67,-18 358.89,-18 394.92,-18"/>
<polygon fill="#586e75" stroke="#586e75" points="395,-21.5 405,-18 395,-14.5 395,-21.5"/>
<text text-anchor="middle" x="327.6" y="-21.2" font-family="Inter,Arial" font-size="11.00" fill="#586e75">+</text>
</g>
</g>
</svg>
