<?xml version="1.0" encoding="UTF-8" standalone="no"?>
<!DOCTYPE svg PUBLIC "-//W3C//DTD SVG 1.1//EN"
 "http://www.w3.org/Graphics/SVG/1.1/DTD/svg11.dtd">
<!-- Generated by graphviz version 2.43.0 (0)
 -->
<!-- Title: %3 Pages: 1 -->
<svg width="265pt" height="116pt"
 viewBox="0.00 0.00 265.20 116.00" xmlns="http://www.w3.org/2000/svg" xmlns:xlink="http://www.w3.org/1999/xlink">
<g id="graph0" class="graph" transform="scale(1 1) rotate(0) translate(4 112)">
<title>%3</title>
<!-- Start -->
<!-- FA -->
<g id="node5" class="node start,disabled">
<title>FA</title>
<path fill="#d0dce3" stroke="#d0dce3" d="M82.6,-108C82.6,-108 52.6,-108 52.6,-108 46.6,-108 40.6,-102 40.6,-96 40.6,-96 40.6,-84 40.6,-84 40.6,-78 46.6,-72 52.6,-72 52.6,-72 82.6,-72 82.6,-72 88.6,-72 94.6,-78 94.6,-84 94.6,-84 94.6,-96 94.6,-96 94.6,-102 88.6,-108 82.6,-108"/>
<text text-anchor="middle" x="67.6" y="-86.3" font-family="Inter,Arial" font-size="14.00" fill="#ffffff">F[A]</text>
</g>
<!-- Start&#45;&gt;FA -->
<g id="edge5" class="edge start,disabled">
<title>Start&#45;&gt;FA</title>
<path fill="none" stroke="#d0dce3" stroke-width="2" d="M3.91,-90C7.37,-90 18.49,-90 30.42,-90"/>
<polygon fill="#d0dce3" stroke="#d0dce3" stroke-width="2" points="30.48,-93.5 40.48,-90 30.48,-86.5 30.48,-93.5"/>
</g>
<!-- Goal -->
<!-- A -->
<g id="node3" class="node">
<title>A</title>
<path fill="#ffffff" stroke="#586e75" d="M82.6,-36C82.6,-36 52.6,-36 52.6,-36 46.6,-36 40.6,-30 40.6,-24 40.6,-24 40.6,-12 40.6,-12 40.6,-6 46.6,0 52.6,0 52.6,0 82.6,0 82.6,0 88.6,0 94.6,-6 94.6,-12 94.6,-12 94.6,-24 94.6,-24 94.6,-30 88.6,-36 82.6,-36"/>
<text text-anchor="middle" x="67.6" y="-14.3" font-family="Inter,Arial" font-size="14.00" fill="#586e75">A</text>
</g>
<!-- B -->
<g id="node4" class="node">
<title>B</title>
<path fill="#ffffff" stroke="#586e75" d="M204.6,-36C204.6,-36 174.6,-36 174.6,-36 168.6,-36 162.6,-30 162.6,-24 162.6,-24 162.6,-12 162.6,-12 162.6,-6 168.6,0 174.6,0 174.6,0 204.6,0 204.6,0 210.6,0 216.6,-6 216.6,-12 216.6,-12 216.6,-24 216.6,-24 216.6,-30 210.6,-36 204.6,-36"/>
<text text-anchor="middle" x="189.6" y="-14.3" font-family="Inter,Arial" font-size="14.00" fill="#586e75">B</text>
</g>
<!-- A&#45;&gt;B -->
<g id="edge2" class="edge">
<title>A&#45;&gt;B</title>
<path fill="none" stroke="#586e75" d="M94.64,-18C111.43,-18 133.51,-18 152.04,-18"/>
<polygon fill="#586e75" stroke="#586e75" points="152.2,-21.5 162.2,-18 152.2,-14.5 152.2,-21.5"/>
<text text-anchor="middle" x="128.6" y="-21.2" font-family="Inter,Arial" font-size="11.00" fill="#586e75">f</text>
</g>
<!-- FA&#45;&gt;A -->
<!-- FB -->
<g id="node6" class="node goal,disabled">
<title>FB</title>
<path fill="#d0dce3" stroke="#d0dce3" d="M204.6,-108C204.6,-108 174.6,-108 174.6,-108 168.6,-108 162.6,-102 162.6,-96 162.6,-96 162.6,-84 162.6,-84 162.6,-78 168.6,-72 174.6,-72 174.6,-72 204.6,-72 204.6,-72 210.6,-72 216.6,-78 216.6,-84 216.6,-84 216.6,-96 216.6,-96 216.6,-102 210.6,-108 204.6,-108"/>
<text text-anchor="middle" x="189.6" y="-86.3" font-family="Inter,Arial" font-size="14.00" fill="#ffffff">F[B]</text>
</g>
<!-- FA&#45;&gt;FB -->
<!-- FB&#45;&gt;Goal -->
<g id="edge6" class="edge goal,disabled">
<title>FB&#45;&gt;Goal</title>
<path fill="none" stroke="#d0dce3" stroke-width="2" d="M216.92,-90C226.17,-90 236.07,-90 243.37,-90"/>
<polygon fill="#d0dce3" stroke="#d0dce3" stroke-width="2" points="243.51,-93.5 253.51,-90 243.51,-86.5 243.51,-93.5"/>
</g>
<!-- FB&#45;&gt;B -->
</g>
</svg>
