<?xml version="1.0" encoding="UTF-8" standalone="no"?>
<!DOCTYPE svg PUBLIC "-//W3C//DTD SVG 1.1//EN"
 "http://www.w3.org/Graphics/SVG/1.1/DTD/svg11.dtd">
<!-- Generated by graphviz version 2.43.0 (0)
 -->
<!-- Title: %3 Pages: 1 -->
<svg width="224pt" height="116pt"
 viewBox="0.00 0.00 224.00 116.00" xmlns="http://www.w3.org/2000/svg" xmlns:xlink="http://www.w3.org/1999/xlink">
<g id="graph0" class="graph" transform="scale(1 1) rotate(0) translate(4 112)">
<title>%3</title>
<!-- X -->
<g id="node1" class="node">
<title>X</title>
<path fill="#ffffff" stroke="#586e75" d="M54,-108C54,-108 12,-108 12,-108 6,-108 0,-102 0,-96 0,-96 0,-84 0,-84 0,-78 6,-72 12,-72 12,-72 54,-72 54,-72 60,-72 66,-78 66,-84 66,-84 66,-96 66,-96 66,-102 60,-108 54,-108"/>
<text text-anchor="middle" x="33" y="-86.3" font-family="Inter,Arial" font-size="14.00" fill="#586e75">Boolean</text>
</g>
<!-- X2 -->
<!-- X&#45;&gt;X2 -->
<!-- B -->
<g id="node4" class="node">
<title>B</title>
<path fill="#ffffff" stroke="#586e75" d="M204,-36C204,-36 174,-36 174,-36 168,-36 162,-30 162,-24 162,-24 162,-12 162,-12 162,-6 168,0 174,0 174,0 204,0 204,0 210,0 216,-6 216,-12 216,-12 216,-24 216,-24 216,-30 210,-36 204,-36"/>
<text text-anchor="middle" x="189" y="-14.3" font-family="Inter,Arial" font-size="14.00" fill="#586e75">B</text>
</g>
<!-- X2&#45;&gt;B -->
<!-- A -->
<g id="node3" class="node">
<title>A</title>
<path fill="#ffffff" stroke="#586e75" d="M204,-108C204,-108 174,-108 174,-108 168,-108 162,-102 162,-96 162,-96 162,-84 162,-84 162,-78 168,-72 174,-72 174,-72 204,-72 204,-72 210,-72 216,-78 216,-84 216,-84 216,-96 216,-96 216,-102 210,-108 204,-108"/>
<text text-anchor="middle" x="189" y="-86.3" font-family="Inter,Arial" font-size="14.00" fill="#586e75">A</text>
</g>
<!-- A&#45;&gt;X -->
<g id="edge3" class="edge start">
<title>A&#45;&gt;X</title>
<path fill="none" stroke="#586e75" stroke-width="2" d="M161.89,-90C138.49,-90 103.75,-90 76.37,-90"/>
<polygon fill="#586e75" stroke="#586e75" stroke-width="2" points="76.28,-86.5 66.28,-90 76.28,-93.5 76.28,-86.5"/>
<text text-anchor="middle" x="114" y="-93.2" font-family="Inter,Arial" font-size="11.00" fill="#586e75">Predicate[A]</text>
</g>
<!-- A&#45;&gt;B -->
<g id="edge2" class="edge">
<title>A&#45;&gt;B</title>
<path fill="none" stroke="#586e75" d="M189,-71.59C189,-63.94 189,-54.89 189,-46.43"/>
<polygon fill="#586e75" stroke="#586e75" points="192.5,-46.17 189,-36.17 185.5,-46.17 192.5,-46.17"/>
<text text-anchor="middle" x="180" y="-51.2" font-family="Inter,Arial" font-size="11.00" fill="#586e75">f</text>
</g>
<!-- B&#45;&gt;X -->
</g>
</svg>
