<?xml version="1.0" encoding="UTF-8" standalone="no"?>
<!DOCTYPE svg PUBLIC "-//W3C//DTD SVG 1.1//EN"
 "http://www.w3.org/Graphics/SVG/1.1/DTD/svg11.dtd">
<!-- Generated by graphviz version 2.43.0 (0)
 -->
<!-- Title: %3 Pages: 1 -->
<svg width="185pt" height="116pt"
 viewBox="0.00 0.00 185.00 116.00" xmlns="http://www.w3.org/2000/svg" xmlns:xlink="http://www.w3.org/1999/xlink">
<g id="graph0" class="graph" transform="scale(1 1) rotate(0) translate(4 112)">
<title>%3</title>
<!-- X -->
<g id="node1" class="node">
<title>X</title>
<path fill="#ffffff" stroke="#586e75" d="M54,-108C54,-108 12,-108 12,-108 6,-108 0,-102 0,-96 0,-96 0,-84 0,-84 0,-78 6,-72 12,-72 12,-72 54,-72 54,-72 60,-72 66,-78 66,-84 66,-84 66,-96 66,-96 66,-102 60,-108 54,-108"/>
<text text-anchor="middle" x="33" y="-86.3" font-family="Inter,Arial" font-size="14.00" fill="#586e75">Boolean</text>
</g>
<!-- X2 -->
<!-- X&#45;&gt;X2 -->
<!-- B -->
<g id="node4" class="node disabled">
<title>B</title>
<path fill="#ffffff" stroke="#d0dce3" d="M165,-36C165,-36 135,-36 135,-36 129,-36 123,-30 123,-24 123,-24 123,-12 123,-12 123,-6 129,0 135,0 135,0 165,0 165,0 171,0 177,-6 177,-12 177,-12 177,-24 177,-24 177,-30 171,-36 165,-36"/>
<text text-anchor="middle" x="150" y="-14.3" font-family="Inter,Arial" font-size="14.00" fill="#d0dce3">B</text>
</g>
<!-- X2&#45;&gt;B -->
<!-- A -->
<g id="node3" class="node disabled">
<title>A</title>
<path fill="#ffffff" stroke="#d0dce3" d="M165,-108C165,-108 135,-108 135,-108 129,-108 123,-102 123,-96 123,-96 123,-84 123,-84 123,-78 129,-72 135,-72 135,-72 165,-72 165,-72 171,-72 177,-78 177,-84 177,-84 177,-96 177,-96 177,-102 171,-108 165,-108"/>
<text text-anchor="middle" x="150" y="-86.3" font-family="Inter,Arial" font-size="14.00" fill="#d0dce3">A</text>
</g>
<!-- A&#45;&gt;X -->
<g id="edge3" class="edge start,disabled">
<title>A&#45;&gt;X</title>
<path fill="none" stroke="#d0dce3" stroke-width="2" d="M122.94,-90C109.1,-90 91.75,-90 76.05,-90"/>
<polygon fill="#d0dce3" stroke="#d0dce3" stroke-width="2" points="76.03,-86.5 66.03,-90 76.03,-93.5 76.03,-86.5"/>
<text text-anchor="middle" x="94.5" y="-93.2" font-family="Inter,Arial" font-size="11.00" fill="#d0dce3">F[A]</text>
</g>
<!-- A&#45;&gt;B -->
<g id="edge2" class="edge disabled">
<title>A&#45;&gt;B</title>
<path fill="none" stroke="#d0dce3" d="M150,-71.59C150,-63.94 150,-54.89 150,-46.43"/>
<polygon fill="#d0dce3" stroke="#d0dce3" points="153.5,-46.17 150,-36.17 146.5,-46.17 153.5,-46.17"/>
<text text-anchor="middle" x="141" y="-51.2" font-family="Inter,Arial" font-size="11.00" fill="#d0dce3">f</text>
</g>
<!-- B&#45;&gt;X -->
</g>
</svg>
