<?xml version="1.0" encoding="UTF-8" standalone="no"?>
<!DOCTYPE svg PUBLIC "-//W3C//DTD SVG 1.1//EN"
 "http://www.w3.org/Graphics/SVG/1.1/DTD/svg11.dtd">
<!-- Generated by graphviz version 2.43.0 (0)
 -->
<!-- Title: %3 Pages: 1 -->
<svg width="325pt" height="116pt"
 viewBox="0.00 0.00 325.20 116.00" xmlns="http://www.w3.org/2000/svg" xmlns:xlink="http://www.w3.org/1999/xlink">
<g id="graph0" class="graph" transform="scale(1 1) rotate(0) translate(4 112)">
<title>%3</title>
<!-- Start -->
<!-- FA -->
<g id="node3" class="node start,disabled">
<title>FA</title>
<path fill="#d0dce3" stroke="#d0dce3" d="M82.6,-108C82.6,-108 52.6,-108 52.6,-108 46.6,-108 40.6,-102 40.6,-96 40.6,-96 40.6,-84 40.6,-84 40.6,-78 46.6,-72 52.6,-72 52.6,-72 82.6,-72 82.6,-72 88.6,-72 94.6,-78 94.6,-84 94.6,-84 94.6,-96 94.6,-96 94.6,-102 88.6,-108 82.6,-108"/>
<text text-anchor="middle" x="67.6" y="-86.3" font-family="Inter,Arial" font-size="14.00" fill="#ffffff">F[A]</text>
</g>
<!-- Start&#45;&gt;FA -->
<g id="edge6" class="edge start,disabled">
<title>Start&#45;&gt;FA</title>
<path fill="none" stroke="#d0dce3" stroke-width="2" d="M3.91,-90C7.37,-90 18.49,-90 30.42,-90"/>
<polygon fill="#d0dce3" stroke="#d0dce3" stroke-width="2" points="30.48,-93.5 40.48,-90 30.48,-86.5 30.48,-93.5"/>
</g>
<!-- Goal -->
<!-- A -->
<g id="node5" class="node disabled">
<title>A</title>
<path fill="#ffffff" stroke="#d0dce3" d="M82.6,-36C82.6,-36 52.6,-36 52.6,-36 46.6,-36 40.6,-30 40.6,-24 40.6,-24 40.6,-12 40.6,-12 40.6,-6 46.6,0 52.6,0 52.6,0 82.6,0 82.6,0 88.6,0 94.6,-6 94.6,-12 94.6,-12 94.6,-24 94.6,-24 94.6,-30 88.6,-36 82.6,-36"/>
<text text-anchor="middle" x="67.6" y="-14.3" font-family="Inter,Arial" font-size="14.00" fill="#d0dce3">A</text>
</g>
<!-- FA&#45;&gt;A -->
<g id="edge2" class="edge disabled">
<title>FA&#45;&gt;A</title>
<path fill="none" stroke="#d0dce3" d="M67.6,-71.95C67.6,-63.41 67.6,-54.86 67.6,-46.31"/>
<polygon fill="#d0dce3" stroke="#d0dce3" points="71.1,-46.28 67.6,-36.28 64.1,-46.28 71.1,-46.28"/>
</g>
<!-- X -->
<g id="node7" class="node">
<title>X</title>
<path fill="#ffffff" stroke="#586e75" d="M173.6,-108C173.6,-108 143.6,-108 143.6,-108 137.6,-108 131.6,-102 131.6,-96 131.6,-96 131.6,-84 131.6,-84 131.6,-78 137.6,-72 143.6,-72 143.6,-72 173.6,-72 173.6,-72 179.6,-72 185.6,-78 185.6,-84 185.6,-84 185.6,-96 185.6,-96 185.6,-102 179.6,-108 173.6,-108"/>
<text text-anchor="middle" x="158.6" y="-86.3" font-family="Inter,Arial" font-size="14.00" fill="#586e75">X</text>
</g>
<!-- FA&#45;&gt;X -->
<g id="edge3" class="edge disabled">
<title>FA&#45;&gt;X</title>
<path fill="none" stroke="#d0dce3" d="M94.82,-90C103.15,-90 112.51,-90 121.42,-90"/>
<polygon fill="#d0dce3" stroke="#d0dce3" points="121.57,-93.5 131.57,-90 121.57,-86.5 121.57,-93.5"/>
</g>
<!-- FB -->
<g id="node4" class="node goal">
<title>FB</title>
<path fill="#586e75" stroke="#586e75" d="M264.6,-108C264.6,-108 234.6,-108 234.6,-108 228.6,-108 222.6,-102 222.6,-96 222.6,-96 222.6,-84 222.6,-84 222.6,-78 228.6,-72 234.6,-72 234.6,-72 264.6,-72 264.6,-72 270.6,-72 276.6,-78 276.6,-84 276.6,-84 276.6,-96 276.6,-96 276.6,-102 270.6,-108 264.6,-108"/>
<text text-anchor="middle" x="249.6" y="-86.3" font-family="Inter,Arial" font-size="14.00" fill="#ffffff">F[B]</text>
</g>
<!-- FB&#45;&gt;Goal -->
<g id="edge7" class="edge goal">
<title>FB&#45;&gt;Goal</title>
<path fill="none" stroke="#586e75" stroke-width="2" d="M276.92,-90C286.17,-90 296.07,-90 303.37,-90"/>
<polygon fill="#586e75" stroke="#586e75" stroke-width="2" points="303.51,-93.5 313.51,-90 303.51,-86.5 303.51,-93.5"/>
</g>
<!-- B -->
<g id="node6" class="node">
<title>B</title>
<path fill="#ffffff" stroke="#586e75" d="M264.6,-36C264.6,-36 234.6,-36 234.6,-36 228.6,-36 222.6,-30 222.6,-24 222.6,-24 222.6,-12 222.6,-12 222.6,-6 228.6,0 234.6,0 234.6,0 264.6,0 264.6,0 270.6,0 276.6,-6 276.6,-12 276.6,-12 276.6,-24 276.6,-24 276.6,-30 270.6,-36 264.6,-36"/>
<text text-anchor="middle" x="249.6" y="-14.3" font-family="Inter,Arial" font-size="14.00" fill="#586e75">B</text>
</g>
<!-- FB&#45;&gt;B -->
<g id="edge1" class="edge">
<title>FB&#45;&gt;B</title>
<path fill="none" stroke="#586e75" d="M249.6,-61.92C249.6,-53.37 249.6,-44.83 249.6,-36.28"/>
<polygon fill="#586e75" stroke="#586e75" points="246.1,-61.95 249.6,-71.95 253.1,-61.95 246.1,-61.95"/>
</g>
<!-- A&#45;&gt;B -->
<g id="edge4" class="edge disabled">
<title>A&#45;&gt;B</title>
<path fill="none" stroke="#d0dce3" d="M94.77,-18C125.7,-18 177.35,-18 212.17,-18"/>
<polygon fill="#d0dce3" stroke="#d0dce3" points="212.39,-21.5 222.39,-18 212.39,-14.5 212.39,-21.5"/>
<text text-anchor="middle" x="158.6" y="-21.2" font-family="Inter,Arial" font-size="11.00" fill="#d0dce3">f</text>
</g>
<!-- X&#45;&gt;FB -->
<g id="edge5" class="edge">
<title>X&#45;&gt;FB</title>
<path fill="none" stroke="#586e75" d="M185.82,-90C194.15,-90 203.51,-90 212.42,-90"/>
<polygon fill="#586e75" stroke="#586e75" points="212.57,-93.5 222.57,-90 212.57,-86.5 212.57,-93.5"/>
</g>
</g>
</svg>
