<?xml version="1.0" encoding="UTF-8" standalone="no"?>
<!DOCTYPE svg PUBLIC "-//W3C//DTD SVG 1.1//EN"
 "http://www.w3.org/Graphics/SVG/1.1/DTD/svg11.dtd">
<!-- Generated by graphviz version 2.43.0 (0)
 -->
<!-- Title: %3 Pages: 1 -->
<svg width="604pt" height="116pt"
 viewBox="0.00 0.00 604.20 116.00" xmlns="http://www.w3.org/2000/svg" xmlns:xlink="http://www.w3.org/1999/xlink">
<g id="graph0" class="graph" transform="scale(1 1) rotate(0) translate(4 112)">
<title>%3</title>
<!-- Start -->
<!-- FAFB -->
<g id="node3" class="node start,disabled">
<title>FAFB</title>
<path fill="#d0dce3" stroke="#d0dce3" d="M102.6,-71C102.6,-71 52.6,-71 52.6,-71 46.6,-71 40.6,-65 40.6,-59 40.6,-59 40.6,-47 40.6,-47 40.6,-41 46.6,-35 52.6,-35 52.6,-35 102.6,-35 102.6,-35 108.6,-35 114.6,-41 114.6,-47 114.6,-47 114.6,-59 114.6,-59 114.6,-65 108.6,-71 102.6,-71"/>
<text text-anchor="middle" x="77.6" y="-49.3" font-family="Inter,Arial" font-size="14.00" fill="#ffffff">F[A]×F[B]</text>
</g>
<!-- Start&#45;&gt;FAFB -->
<g id="edge14" class="edge start,disabled">
<title>Start&#45;&gt;FAFB</title>
<path fill="none" stroke="#d0dce3" stroke-width="2" d="M3.63,-53C6.65,-53 17.57,-53 30.07,-53"/>
<polygon fill="#d0dce3" stroke="#d0dce3" stroke-width="2" points="30.32,-56.5 40.32,-53 30.32,-49.5 30.32,-56.5"/>
</g>
<!-- Goal -->
<!-- FA -->
<g id="node4" class="node disabled">
<title>FA</title>
<path fill="#ffffff" stroke="#d0dce3" d="M193.6,-108C193.6,-108 163.6,-108 163.6,-108 157.6,-108 151.6,-102 151.6,-96 151.6,-96 151.6,-84 151.6,-84 151.6,-78 157.6,-72 163.6,-72 163.6,-72 193.6,-72 193.6,-72 199.6,-72 205.6,-78 205.6,-84 205.6,-84 205.6,-96 205.6,-96 205.6,-102 199.6,-108 193.6,-108"/>
<text text-anchor="middle" x="178.6" y="-86.3" font-family="Inter,Arial" font-size="14.00" fill="#d0dce3">F[A]</text>
</g>
<!-- FAFB&#45;&gt;FA -->
<g id="edge4" class="edge disabled">
<title>FAFB&#45;&gt;FA</title>
<path fill="none" stroke="#d0dce3" d="M114.62,-66.46C123.46,-69.77 132.92,-73.3 141.75,-76.6"/>
<polygon fill="#d0dce3" stroke="#d0dce3" points="140.79,-79.98 151.38,-80.2 143.24,-73.42 140.79,-79.98"/>
</g>
<!-- FB -->
<g id="node5" class="node disabled">
<title>FB</title>
<path fill="#ffffff" stroke="#d0dce3" d="M193.6,-36C193.6,-36 163.6,-36 163.6,-36 157.6,-36 151.6,-30 151.6,-24 151.6,-24 151.6,-12 151.6,-12 151.6,-6 157.6,0 163.6,0 163.6,0 193.6,0 193.6,0 199.6,0 205.6,-6 205.6,-12 205.6,-12 205.6,-24 205.6,-24 205.6,-30 199.6,-36 193.6,-36"/>
<text text-anchor="middle" x="178.6" y="-14.3" font-family="Inter,Arial" font-size="14.00" fill="#d0dce3">F[B]</text>
</g>
<!-- FAFB&#45;&gt;FB -->
<g id="edge5" class="edge disabled">
<title>FAFB&#45;&gt;FB</title>
<path fill="none" stroke="#d0dce3" d="M114.62,-40.27C123.46,-37.14 132.92,-33.8 141.75,-30.68"/>
<polygon fill="#d0dce3" stroke="#d0dce3" points="143.12,-33.9 151.38,-27.27 140.79,-27.3 143.12,-33.9"/>
</g>
<!-- FA&#45;&gt;FB -->
<!-- XX -->
<g id="node6" class="node">
<title>XX</title>
<path fill="#ffffff" stroke="#586e75" d="M321.6,-108C321.6,-108 254.6,-108 254.6,-108 248.6,-108 242.6,-102 242.6,-96 242.6,-96 242.6,-84 242.6,-84 242.6,-78 248.6,-72 254.6,-72 254.6,-72 321.6,-72 321.6,-72 327.6,-72 333.6,-78 333.6,-84 333.6,-84 333.6,-96 333.6,-96 333.6,-102 327.6,-108 321.6,-108"/>
<text text-anchor="middle" x="288.1" y="-86.3" font-family="Inter,Arial" font-size="14.00" fill="#586e75">Label×Label</text>
</g>
<!-- FA&#45;&gt;XX -->
<g id="edge6" class="edge disabled">
<title>FA&#45;&gt;XX</title>
<path fill="none" stroke="#d0dce3" d="M205.62,-90C213.75,-90 223.03,-90 232.36,-90"/>
<polygon fill="#d0dce3" stroke="#d0dce3" points="232.44,-93.5 242.44,-90 232.44,-86.5 232.44,-93.5"/>
</g>
<!-- AB -->
<g id="node7" class="node disabled">
<title>AB</title>
<path fill="#ffffff" stroke="#d0dce3" d="M303.1,-36C303.1,-36 273.1,-36 273.1,-36 267.1,-36 261.1,-30 261.1,-24 261.1,-24 261.1,-12 261.1,-12 261.1,-6 267.1,0 273.1,0 273.1,0 303.1,0 303.1,0 309.1,0 315.1,-6 315.1,-12 315.1,-12 315.1,-24 315.1,-24 315.1,-30 309.1,-36 303.1,-36"/>
<text text-anchor="middle" x="288.1" y="-14.3" font-family="Inter,Arial" font-size="14.00" fill="#d0dce3">A×B</text>
</g>
<!-- FA&#45;&gt;AB -->
<g id="edge7" class="edge disabled">
<title>FA&#45;&gt;AB</title>
<path fill="none" stroke="#d0dce3" d="M205.62,-72.57C219.65,-63.18 237.14,-51.46 252.32,-41.3"/>
<polygon fill="#d0dce3" stroke="#d0dce3" points="254.58,-43.99 260.94,-35.52 250.69,-38.18 254.58,-43.99"/>
</g>
<!-- FB&#45;&gt;XX -->
<g id="edge8" class="edge disabled">
<title>FB&#45;&gt;XX</title>
<path fill="none" stroke="#d0dce3" d="M205.62,-35.43C219.44,-44.68 236.62,-56.19 251.64,-66.25"/>
<polygon fill="#d0dce3" stroke="#d0dce3" points="249.94,-69.32 260.19,-71.98 253.83,-63.51 249.94,-69.32"/>
</g>
<!-- FB&#45;&gt;AB -->
<g id="edge9" class="edge disabled">
<title>FB&#45;&gt;AB</title>
<path fill="none" stroke="#d0dce3" d="M205.62,-18C219.12,-18 235.84,-18 250.61,-18"/>
<polygon fill="#d0dce3" stroke="#d0dce3" points="250.94,-21.5 260.94,-18 250.94,-14.5 250.94,-21.5"/>
</g>
<!-- XX&#45;&gt;AB -->
<!-- X -->
<g id="node10" class="node">
<title>X</title>
<path fill="#ffffff" stroke="#586e75" d="M452.6,-108C452.6,-108 422.6,-108 422.6,-108 416.6,-108 410.6,-102 410.6,-96 410.6,-96 410.6,-84 410.6,-84 410.6,-78 416.6,-72 422.6,-72 422.6,-72 452.6,-72 452.6,-72 458.6,-72 464.6,-78 464.6,-84 464.6,-84 464.6,-96 464.6,-96 464.6,-102 458.6,-108 452.6,-108"/>
<text text-anchor="middle" x="437.6" y="-86.3" font-family="Inter,Arial" font-size="14.00" fill="#586e75">Label</text>
</g>
<!-- XX&#45;&gt;X -->
<g id="edge10" class="edge">
<title>XX&#45;&gt;X</title>
<path fill="none" stroke="#586e75" d="M333.76,-90C355.13,-90 380.38,-90 400.52,-90"/>
<polygon fill="#586e75" stroke="#586e75" points="400.53,-93.5 410.53,-90 400.53,-86.5 400.53,-93.5"/>
<text text-anchor="middle" x="372.1" y="-93.2" font-family="Inter,Arial" font-size="11.00" fill="#586e75">combine</text>
</g>
<!-- C -->
<g id="node9" class="node">
<title>C</title>
<path fill="#ffffff" stroke="#586e75" d="M452.6,-36C452.6,-36 422.6,-36 422.6,-36 416.6,-36 410.6,-30 410.6,-24 410.6,-24 410.6,-12 410.6,-12 410.6,-6 416.6,0 422.6,0 422.6,0 452.6,0 452.6,0 458.6,0 464.6,-6 464.6,-12 464.6,-12 464.6,-24 464.6,-24 464.6,-30 458.6,-36 452.6,-36"/>
<text text-anchor="middle" x="437.6" y="-14.3" font-family="Inter,Arial" font-size="14.00" fill="#586e75">C</text>
</g>
<!-- AB&#45;&gt;C -->
<g id="edge11" class="edge disabled">
<title>AB&#45;&gt;C</title>
<path fill="none" stroke="#d0dce3" d="M315.13,-18C338.79,-18 373.92,-18 400.33,-18"/>
<polygon fill="#d0dce3" stroke="#d0dce3" points="400.33,-21.5 410.33,-18 400.33,-14.5 400.33,-21.5"/>
<text text-anchor="middle" x="372.1" y="-21.2" font-family="Inter,Arial" font-size="11.00" fill="#d0dce3">f</text>
</g>
<!-- FC -->
<g id="node8" class="node goal">
<title>FC</title>
<path fill="#586e75" stroke="#586e75" d="M543.6,-71C543.6,-71 513.6,-71 513.6,-71 507.6,-71 501.6,-65 501.6,-59 501.6,-59 501.6,-47 501.6,-47 501.6,-41 507.6,-35 513.6,-35 513.6,-35 543.6,-35 543.6,-35 549.6,-35 555.6,-41 555.6,-47 555.6,-47 555.6,-59 555.6,-59 555.6,-65 549.6,-71 543.6,-71"/>
<text text-anchor="middle" x="528.6" y="-49.3" font-family="Inter,Arial" font-size="14.00" fill="#ffffff">F[C]</text>
</g>
<!-- FC&#45;&gt;Goal -->
<g id="edge15" class="edge goal">
<title>FC&#45;&gt;Goal</title>
<path fill="none" stroke="#586e75" stroke-width="2" d="M555.92,-53C565.17,-53 575.07,-53 582.37,-53"/>
<polygon fill="#586e75" stroke="#586e75" stroke-width="2" points="582.51,-56.5 592.51,-53 582.51,-49.5 582.51,-56.5"/>
</g>
<!-- C&#45;&gt;FC -->
<g id="edge13" class="edge">
<title>C&#45;&gt;FC</title>
<path fill="none" stroke="#586e75" d="M464.82,-28.31C473.33,-31.66 482.92,-35.43 492,-39"/>
<polygon fill="#586e75" stroke="#586e75" points="490.98,-42.36 501.57,-42.76 493.54,-35.84 490.98,-42.36"/>
</g>
<!-- X&#45;&gt;FC -->
<g id="edge12" class="edge">
<title>X&#45;&gt;FC</title>
<path fill="none" stroke="#586e75" d="M464.82,-79.1C473.42,-75.52 483.13,-71.49 492.29,-67.68"/>
<polygon fill="#586e75" stroke="#586e75" points="493.68,-70.89 501.57,-63.82 490.99,-64.43 493.68,-70.89"/>
</g>
<!-- X&#45;&gt;C -->
</g>
</svg>
