<?xml version="1.0" encoding="UTF-8" standalone="no"?>
<!DOCTYPE svg PUBLIC "-//W3C//DTD SVG 1.1//EN"
 "http://www.w3.org/Graphics/SVG/1.1/DTD/svg11.dtd">
<!-- Generated by graphviz version 2.43.0 (0)
 -->
<!-- Title: %3 Pages: 1 -->
<svg width="567pt" height="116pt"
 viewBox="0.00 0.00 567.20 116.00" xmlns="http://www.w3.org/2000/svg" xmlns:xlink="http://www.w3.org/1999/xlink">
<g id="graph0" class="graph" transform="scale(1 1) rotate(0) translate(4 112)">
<title>%3</title>
<!-- Start -->
<!-- FAFB -->
<g id="node3" class="node start,disabled">
<title>FAFB</title>
<path fill="#d0dce3" stroke="#d0dce3" d="M102.6,-71C102.6,-71 52.6,-71 52.6,-71 46.6,-71 40.6,-65 40.6,-59 40.6,-59 40.6,-47 40.6,-47 40.6,-41 46.6,-35 52.6,-35 52.6,-35 102.6,-35 102.6,-35 108.6,-35 114.6,-41 114.6,-47 114.6,-47 114.6,-59 114.6,-59 114.6,-65 108.6,-71 102.6,-71"/>
<text text-anchor="middle" x="77.6" y="-49.3" font-family="Inter,Arial" font-size="14.00" fill="#ffffff">F[A]×F[B]</text>
</g>
<!-- Start&#45;&gt;FAFB -->
<g id="edge14" class="edge start,disabled">
<title>Start&#45;&gt;FAFB</title>
<path fill="none" stroke="#d0dce3" stroke-width="2" d="M3.63,-53C6.65,-53 17.57,-53 30.07,-53"/>
<polygon fill="#d0dce3" stroke="#d0dce3" stroke-width="2" points="30.32,-56.5 40.32,-53 30.32,-49.5 30.32,-56.5"/>
</g>
<!-- Goal -->
<!-- FA -->
<!-- FAFB&#45;&gt;FA -->
<!-- FB -->
<!-- FAFB&#45;&gt;FB -->
<!-- FA&#45;&gt;FB -->
<!-- XX -->
<!-- FA&#45;&gt;XX -->
<!-- AB -->
<g id="node7" class="node disabled">
<title>AB</title>
<path fill="#ffffff" stroke="#d0dce3" d="M284.6,-36C284.6,-36 254.6,-36 254.6,-36 248.6,-36 242.6,-30 242.6,-24 242.6,-24 242.6,-12 242.6,-12 242.6,-6 248.6,0 254.6,0 254.6,0 284.6,0 284.6,0 290.6,0 296.6,-6 296.6,-12 296.6,-12 296.6,-24 296.6,-24 296.6,-30 290.6,-36 284.6,-36"/>
<text text-anchor="middle" x="269.6" y="-14.3" font-family="Inter,Arial" font-size="14.00" fill="#d0dce3">A×B</text>
</g>
<!-- FA&#45;&gt;AB -->
<!-- FB&#45;&gt;XX -->
<!-- FB&#45;&gt;AB -->
<!-- XX&#45;&gt;AB -->
<!-- X -->
<!-- XX&#45;&gt;X -->
<!-- C -->
<g id="node10" class="node disabled">
<title>C</title>
<path fill="#ffffff" stroke="#d0dce3" d="M415.6,-36C415.6,-36 385.6,-36 385.6,-36 379.6,-36 373.6,-30 373.6,-24 373.6,-24 373.6,-12 373.6,-12 373.6,-6 379.6,0 385.6,0 385.6,0 415.6,0 415.6,0 421.6,0 427.6,-6 427.6,-12 427.6,-12 427.6,-24 427.6,-24 427.6,-30 421.6,-36 415.6,-36"/>
<text text-anchor="middle" x="400.6" y="-14.3" font-family="Inter,Arial" font-size="14.00" fill="#d0dce3">C</text>
</g>
<!-- AB&#45;&gt;C -->
<g id="edge11" class="edge disabled">
<title>AB&#45;&gt;C</title>
<path fill="none" stroke="#d0dce3" d="M296.71,-18C315.85,-18 342.09,-18 363.28,-18"/>
<polygon fill="#d0dce3" stroke="#d0dce3" points="363.53,-21.5 373.53,-18 363.53,-14.5 363.53,-21.5"/>
<text text-anchor="middle" x="335.1" y="-21.2" font-family="Inter,Arial" font-size="11.00" fill="#d0dce3">f</text>
</g>
<!-- FC -->
<g id="node8" class="node goal">
<title>FC</title>
<path fill="#586e75" stroke="#586e75" d="M506.6,-71C506.6,-71 476.6,-71 476.6,-71 470.6,-71 464.6,-65 464.6,-59 464.6,-59 464.6,-47 464.6,-47 464.6,-41 470.6,-35 476.6,-35 476.6,-35 506.6,-35 506.6,-35 512.6,-35 518.6,-41 518.6,-47 518.6,-47 518.6,-59 518.6,-59 518.6,-65 512.6,-71 506.6,-71"/>
<text text-anchor="middle" x="491.6" y="-49.3" font-family="Inter,Arial" font-size="14.00" fill="#ffffff">F[C]</text>
</g>
<!-- FC&#45;&gt;Goal -->
<g id="edge15" class="edge goal">
<title>FC&#45;&gt;Goal</title>
<path fill="none" stroke="#586e75" stroke-width="2" d="M518.92,-53C528.17,-53 538.07,-53 545.37,-53"/>
<polygon fill="#586e75" stroke="#586e75" stroke-width="2" points="545.51,-56.5 555.51,-53 545.51,-49.5 545.51,-56.5"/>
</g>
<!-- X&#45;&gt;FC -->
<!-- X&#45;&gt;C -->
<!-- C&#45;&gt;FC -->
</g>
</svg>
