<?xml version="1.0" encoding="UTF-8" standalone="no"?>
<!DOCTYPE svg PUBLIC "-//W3C//DTD SVG 1.1//EN"
 "http://www.w3.org/Graphics/SVG/1.1/DTD/svg11.dtd">
<!-- Generated by graphviz version 2.43.0 (0)
 -->
<!-- Title: %3 Pages: 1 -->
<svg width="237pt" height="116pt"
 viewBox="0.00 0.00 237.20 116.00" xmlns="http://www.w3.org/2000/svg" xmlns:xlink="http://www.w3.org/1999/xlink">
<g id="graph0" class="graph" transform="scale(1 1) rotate(0) translate(4 112)">
<title>%3</title>
<!-- Start -->
<!-- FA -->
<g id="node3" class="node start,disabled">
<title>FA</title>
<path fill="#d0dce3" stroke="#d0dce3" d="M82.6,-36C82.6,-36 52.6,-36 52.6,-36 46.6,-36 40.6,-30 40.6,-24 40.6,-24 40.6,-12 40.6,-12 40.6,-6 46.6,0 52.6,0 52.6,0 82.6,0 82.6,0 88.6,0 94.6,-6 94.6,-12 94.6,-12 94.6,-24 94.6,-24 94.6,-30 88.6,-36 82.6,-36"/>
<text text-anchor="middle" x="67.6" y="-14.3" font-family="Inter,Arial" font-size="14.00" fill="#ffffff">F[A]</text>
</g>
<!-- Start&#45;&gt;FA -->
<g id="edge5" class="edge start,disabled">
<title>Start&#45;&gt;FA</title>
<path fill="none" stroke="#d0dce3" stroke-width="2" d="M3.91,-18C7.37,-18 18.49,-18 30.42,-18"/>
<polygon fill="#d0dce3" stroke="#d0dce3" stroke-width="2" points="30.48,-21.5 40.48,-18 30.48,-14.5 30.48,-21.5"/>
</g>
<!-- Goal -->
<!-- XX -->
<g id="node6" class="node disabled">
<title>XX</title>
<path fill="#ffffff" stroke="#d0dce3" d="M176.6,-36C176.6,-36 146.6,-36 146.6,-36 140.6,-36 134.6,-30 134.6,-24 134.6,-24 134.6,-12 134.6,-12 134.6,-6 140.6,0 146.6,0 146.6,0 176.6,0 176.6,0 182.6,0 188.6,-6 188.6,-12 188.6,-12 188.6,-24 188.6,-24 188.6,-30 182.6,-36 176.6,-36"/>
<text text-anchor="middle" x="161.6" y="-14.3" font-family="Inter,Arial" font-size="14.00" fill="#d0dce3">X</text>
</g>
<!-- FA&#45;&gt;XX -->
<g id="edge3" class="edge disabled">
<title>FA&#45;&gt;XX</title>
<path fill="none" stroke="#d0dce3" d="M94.72,-18C103.94,-18 114.49,-18 124.4,-18"/>
<polygon fill="#d0dce3" stroke="#d0dce3" points="124.42,-21.5 134.42,-18 124.42,-14.5 124.42,-21.5"/>
</g>
<!-- A -->
<g id="node4" class="node">
<title>A</title>
<path fill="#ffffff" stroke="#586e75" d="M82.6,-108C82.6,-108 52.6,-108 52.6,-108 46.6,-108 40.6,-102 40.6,-96 40.6,-96 40.6,-84 40.6,-84 40.6,-78 46.6,-72 52.6,-72 52.6,-72 82.6,-72 82.6,-72 88.6,-72 94.6,-78 94.6,-84 94.6,-84 94.6,-96 94.6,-96 94.6,-102 88.6,-108 82.6,-108"/>
<text text-anchor="middle" x="67.6" y="-86.3" font-family="Inter,Arial" font-size="14.00" fill="#586e75">A</text>
</g>
<!-- A&#45;&gt;FA -->
<g id="edge1" class="edge disabled">
<title>A&#45;&gt;FA</title>
<path fill="none" stroke="#d0dce3" d="M67.6,-61.92C67.6,-53.37 67.6,-44.83 67.6,-36.28"/>
<polygon fill="#d0dce3" stroke="#d0dce3" points="64.1,-61.95 67.6,-71.95 71.1,-61.95 64.1,-61.95"/>
</g>
<!-- FB -->
<g id="node5" class="node goal">
<title>FB</title>
<path fill="#586e75" stroke="#586e75" d="M176.6,-108C176.6,-108 146.6,-108 146.6,-108 140.6,-108 134.6,-102 134.6,-96 134.6,-96 134.6,-84 134.6,-84 134.6,-78 140.6,-72 146.6,-72 146.6,-72 176.6,-72 176.6,-72 182.6,-72 188.6,-78 188.6,-84 188.6,-84 188.6,-96 188.6,-96 188.6,-102 182.6,-108 176.6,-108"/>
<text text-anchor="middle" x="161.6" y="-86.3" font-family="Inter,Arial" font-size="14.00" fill="#ffffff">F[B]</text>
</g>
<!-- A&#45;&gt;FB -->
<g id="edge4" class="edge">
<title>A&#45;&gt;FB</title>
<path fill="none" stroke="#586e75" d="M94.72,-90C103.94,-90 114.49,-90 124.4,-90"/>
<polygon fill="#586e75" stroke="#586e75" points="124.42,-93.5 134.42,-90 124.42,-86.5 124.42,-93.5"/>
<text text-anchor="middle" x="114.6" y="-93.2" font-family="Inter,Arial" font-size="11.00" fill="#586e75">f</text>
</g>
<!-- FB&#45;&gt;Goal -->
<g id="edge6" class="edge goal">
<title>FB&#45;&gt;Goal</title>
<path fill="none" stroke="#586e75" stroke-width="2" d="M188.92,-90C198.17,-90 208.07,-90 215.37,-90"/>
<polygon fill="#586e75" stroke="#586e75" stroke-width="2" points="215.51,-93.5 225.51,-90 215.51,-86.5 215.51,-93.5"/>
</g>
<!-- FB&#45;&gt;XX -->
</g>
</svg>
