<?xml version="1.0" encoding="UTF-8" standalone="no"?>
<!DOCTYPE svg PUBLIC "-//W3C//DTD SVG 1.1//EN"
 "http://www.w3.org/Graphics/SVG/1.1/DTD/svg11.dtd">
<!-- Generated by graphviz version 2.43.0 (0)
 -->
<!-- Title: %3 Pages: 1 -->
<svg width="751pt" height="116pt"
 viewBox="0.00 0.00 751.20 116.00" xmlns="http://www.w3.org/2000/svg" xmlns:xlink="http://www.w3.org/1999/xlink">
<g id="graph0" class="graph" transform="scale(1 1) rotate(0) translate(4 112)">
<title>%3</title>
<!-- Start -->
<!-- FAFB -->
<g id="node3" class="node start">
<title>FAFB</title>
<path fill="#586e75" stroke="#586e75" d="M188.6,-71C188.6,-71 52.6,-71 52.6,-71 46.6,-71 40.6,-65 40.6,-59 40.6,-59 40.6,-47 40.6,-47 40.6,-41 46.6,-35 52.6,-35 52.6,-35 188.6,-35 188.6,-35 194.6,-35 200.6,-41 200.6,-47 200.6,-47 200.6,-59 200.6,-59 200.6,-65 194.6,-71 188.6,-71"/>
<text text-anchor="middle" x="120.6" y="-49.3" font-family="Inter,Arial" font-size="14.00" fill="#ffffff">Labelled[A]×Labelled[B]</text>
</g>
<!-- Start&#45;&gt;FAFB -->
<g id="edge14" class="edge start">
<title>Start&#45;&gt;FAFB</title>
<path fill="none" stroke="#586e75" stroke-width="2" d="M4.11,-53C7.57,-53 17.53,-53 30.26,-53"/>
<polygon fill="#586e75" stroke="#586e75" stroke-width="2" points="30.46,-56.5 40.46,-53 30.46,-49.5 30.46,-56.5"/>
</g>
<!-- Goal -->
<!-- FA -->
<g id="node4" class="node">
<title>FA</title>
<path fill="#ffffff" stroke="#586e75" d="M309.6,-108C309.6,-108 249.6,-108 249.6,-108 243.6,-108 237.6,-102 237.6,-96 237.6,-96 237.6,-84 237.6,-84 237.6,-78 243.6,-72 249.6,-72 249.6,-72 309.6,-72 309.6,-72 315.6,-72 321.6,-78 321.6,-84 321.6,-84 321.6,-96 321.6,-96 321.6,-102 315.6,-108 309.6,-108"/>
<text text-anchor="middle" x="279.6" y="-86.3" font-family="Inter,Arial" font-size="14.00" fill="#586e75">Labelled[A]</text>
</g>
<!-- FAFB&#45;&gt;FA -->
<g id="edge4" class="edge disabled">
<title>FAFB&#45;&gt;FA</title>
<path fill="none" stroke="#d0dce3" d="M198.26,-71.07C208.21,-73.41 218.19,-75.76 227.58,-77.98"/>
<polygon fill="#d0dce3" stroke="#d0dce3" points="226.96,-81.43 237.5,-80.31 228.57,-74.61 226.96,-81.43"/>
</g>
<!-- FB -->
<g id="node5" class="node">
<title>FB</title>
<path fill="#ffffff" stroke="#586e75" d="M309.6,-36C309.6,-36 249.6,-36 249.6,-36 243.6,-36 237.6,-30 237.6,-24 237.6,-24 237.6,-12 237.6,-12 237.6,-6 243.6,0 249.6,0 249.6,0 309.6,0 309.6,0 315.6,0 321.6,-6 321.6,-12 321.6,-12 321.6,-24 321.6,-24 321.6,-30 315.6,-36 309.6,-36"/>
<text text-anchor="middle" x="279.6" y="-14.3" font-family="Inter,Arial" font-size="14.00" fill="#586e75">Labelled[B]</text>
</g>
<!-- FAFB&#45;&gt;FB -->
<g id="edge5" class="edge disabled">
<title>FAFB&#45;&gt;FB</title>
<path fill="none" stroke="#d0dce3" d="M201.02,-35.29C210.09,-33.27 219.15,-31.25 227.71,-29.35"/>
<polygon fill="#d0dce3" stroke="#d0dce3" points="228.5,-32.76 237.49,-27.16 226.97,-25.92 228.5,-32.76"/>
</g>
<!-- FA&#45;&gt;FB -->
<!-- XX -->
<g id="node6" class="node disabled">
<title>XX</title>
<path fill="#ffffff" stroke="#d0dce3" d="M437.6,-108C437.6,-108 370.6,-108 370.6,-108 364.6,-108 358.6,-102 358.6,-96 358.6,-96 358.6,-84 358.6,-84 358.6,-78 364.6,-72 370.6,-72 370.6,-72 437.6,-72 437.6,-72 443.6,-72 449.6,-78 449.6,-84 449.6,-84 449.6,-96 449.6,-96 449.6,-102 443.6,-108 437.6,-108"/>
<text text-anchor="middle" x="404.1" y="-86.3" font-family="Inter,Arial" font-size="14.00" fill="#d0dce3">Label×Label</text>
</g>
<!-- FA&#45;&gt;XX -->
<g id="edge6" class="edge disabled">
<title>FA&#45;&gt;XX</title>
<path fill="none" stroke="#d0dce3" d="M321.73,-90C330.32,-90 339.5,-90 348.48,-90"/>
<polygon fill="#d0dce3" stroke="#d0dce3" points="348.5,-93.5 358.5,-90 348.5,-86.5 348.5,-93.5"/>
</g>
<!-- AB -->
<g id="node7" class="node disabled">
<title>AB</title>
<path fill="#ffffff" stroke="#d0dce3" d="M419.1,-36C419.1,-36 389.1,-36 389.1,-36 383.1,-36 377.1,-30 377.1,-24 377.1,-24 377.1,-12 377.1,-12 377.1,-6 383.1,0 389.1,0 389.1,0 419.1,0 419.1,0 425.1,0 431.1,-6 431.1,-12 431.1,-12 431.1,-24 431.1,-24 431.1,-30 425.1,-36 419.1,-36"/>
<text text-anchor="middle" x="404.1" y="-14.3" font-family="Inter,Arial" font-size="14.00" fill="#d0dce3">A×B</text>
</g>
<!-- FA&#45;&gt;AB -->
<g id="edge7" class="edge disabled">
<title>FA&#45;&gt;AB</title>
<path fill="none" stroke="#d0dce3" d="M311.51,-71.83C328.65,-61.76 350.04,-49.19 367.83,-38.73"/>
<polygon fill="#d0dce3" stroke="#d0dce3" points="369.92,-41.56 376.76,-33.48 366.37,-35.53 369.92,-41.56"/>
</g>
<!-- FB&#45;&gt;XX -->
<g id="edge8" class="edge disabled">
<title>FB&#45;&gt;XX</title>
<path fill="none" stroke="#d0dce3" d="M311.51,-36.17C327.18,-45.38 346.39,-56.67 363.17,-66.53"/>
<polygon fill="#d0dce3" stroke="#d0dce3" points="361.8,-69.79 372.2,-71.84 365.35,-63.75 361.8,-69.79"/>
</g>
<!-- FB&#45;&gt;AB -->
<g id="edge9" class="edge disabled">
<title>FB&#45;&gt;AB</title>
<path fill="none" stroke="#d0dce3" d="M321.73,-18C336.24,-18 352.45,-18 366.56,-18"/>
<polygon fill="#d0dce3" stroke="#d0dce3" points="366.87,-21.5 376.87,-18 366.87,-14.5 366.87,-21.5"/>
</g>
<!-- XX&#45;&gt;AB -->
<!-- X -->
<!-- XX&#45;&gt;X -->
<!-- C -->
<g id="node9" class="node disabled">
<title>C</title>
<path fill="#ffffff" stroke="#d0dce3" d="M568.6,-36C568.6,-36 538.6,-36 538.6,-36 532.6,-36 526.6,-30 526.6,-24 526.6,-24 526.6,-12 526.6,-12 526.6,-6 532.6,0 538.6,0 538.6,0 568.6,0 568.6,0 574.6,0 580.6,-6 580.6,-12 580.6,-12 580.6,-24 580.6,-24 580.6,-30 574.6,-36 568.6,-36"/>
<text text-anchor="middle" x="553.6" y="-14.3" font-family="Inter,Arial" font-size="14.00" fill="#d0dce3">C</text>
</g>
<!-- AB&#45;&gt;C -->
<g id="edge11" class="edge disabled">
<title>AB&#45;&gt;C</title>
<path fill="none" stroke="#d0dce3" d="M431.13,-18C454.79,-18 489.92,-18 516.33,-18"/>
<polygon fill="#d0dce3" stroke="#d0dce3" points="516.33,-21.5 526.33,-18 516.33,-14.5 516.33,-21.5"/>
<text text-anchor="middle" x="488.1" y="-21.2" font-family="Inter,Arial" font-size="11.00" fill="#d0dce3">f</text>
</g>
<!-- FC -->
<g id="node8" class="node goal">
<title>FC</title>
<path fill="#586e75" stroke="#586e75" d="M690.6,-71C690.6,-71 629.6,-71 629.6,-71 623.6,-71 617.6,-65 617.6,-59 617.6,-59 617.6,-47 617.6,-47 617.6,-41 623.6,-35 629.6,-35 629.6,-35 690.6,-35 690.6,-35 696.6,-35 702.6,-41 702.6,-47 702.6,-47 702.6,-59 702.6,-59 702.6,-65 696.6,-71 690.6,-71"/>
<text text-anchor="middle" x="660.1" y="-49.3" font-family="Inter,Arial" font-size="14.00" fill="#ffffff">Labelled[C]</text>
</g>
<!-- FC&#45;&gt;Goal -->
<g id="edge15" class="edge goal">
<title>FC&#45;&gt;Goal</title>
<path fill="none" stroke="#586e75" stroke-width="2" d="M702.61,-53C712.58,-53 722.39,-53 729.51,-53"/>
<polygon fill="#586e75" stroke="#586e75" stroke-width="2" points="729.56,-56.5 739.56,-53 729.56,-49.5 729.56,-56.5"/>
</g>
<!-- C&#45;&gt;FC -->
<!-- X&#45;&gt;FC -->
<!-- X&#45;&gt;C -->
</g>
</svg>
