<?xml version="1.0" encoding="UTF-8" standalone="no"?>
<!DOCTYPE svg PUBLIC "-//W3C//DTD SVG 1.1//EN"
 "http://www.w3.org/Graphics/SVG/1.1/DTD/svg11.dtd">
<!-- Generated by graphviz version 2.43.0 (0)
 -->
<!-- Title: %3 Pages: 1 -->
<svg width="242pt" height="98pt"
 viewBox="0.00 0.00 242.00 98.00" xmlns="http://www.w3.org/2000/svg" xmlns:xlink="http://www.w3.org/1999/xlink">
<g id="graph0" class="graph" transform="scale(1 1) rotate(0) translate(4 94)">
<title>%3</title>
<!-- A1 -->
<g id="node1" class="node disabled">
<title>A1</title>
<path fill="#ffffff" stroke="#d0dce3" d="M42,-90C42,-90 12,-90 12,-90 6,-90 0,-84 0,-78 0,-78 0,-66 0,-66 0,-60 6,-54 12,-54 12,-54 42,-54 42,-54 48,-54 54,-60 54,-66 54,-66 54,-78 54,-78 54,-84 48,-90 42,-90"/>
<text text-anchor="middle" x="27" y="-68.3" font-family="Inter,Arial" font-size="14.00" fill="#d0dce3">A</text>
</g>
<!-- AB -->
<g id="node5" class="node goal">
<title>AB</title>
<path fill="#586e75" stroke="#586e75" d="M132,-63C132,-63 102,-63 102,-63 96,-63 90,-57 90,-51 90,-51 90,-39 90,-39 90,-33 96,-27 102,-27 102,-27 132,-27 132,-27 138,-27 144,-33 144,-39 144,-39 144,-51 144,-51 144,-57 138,-63 132,-63"/>
<text text-anchor="middle" x="117" y="-41.3" font-family="Inter,Arial" font-size="14.00" fill="#ffffff">A×B</text>
</g>
<!-- A1&#45;&gt;AB -->
<g id="edge1" class="edge disabled">
<title>A1&#45;&gt;AB</title>
<path fill="none" stroke="#d0dce3" d="M54.4,-63.9C62.48,-61.42 71.51,-58.65 80.1,-56.01"/>
<polygon fill="#d0dce3" stroke="#d0dce3" points="81.39,-59.28 89.92,-53 79.33,-52.59 81.39,-59.28"/>
</g>
<!-- A2 -->
<!-- B1 -->
<g id="node3" class="node disabled">
<title>B1</title>
<path fill="#ffffff" stroke="#d0dce3" d="M42,-36C42,-36 12,-36 12,-36 6,-36 0,-30 0,-24 0,-24 0,-12 0,-12 0,-6 6,0 12,0 12,0 42,0 42,0 48,0 54,-6 54,-12 54,-12 54,-24 54,-24 54,-30 48,-36 42,-36"/>
<text text-anchor="middle" x="27" y="-14.3" font-family="Inter,Arial" font-size="14.00" fill="#d0dce3">B</text>
</g>
<!-- B1&#45;&gt;AB -->
<g id="edge2" class="edge disabled">
<title>B1&#45;&gt;AB</title>
<path fill="none" stroke="#d0dce3" d="M54.4,-26.1C62.48,-28.58 71.51,-31.35 80.1,-33.99"/>
<polygon fill="#d0dce3" stroke="#d0dce3" points="79.33,-37.41 89.92,-37 81.39,-30.72 79.33,-37.41"/>
</g>
<!-- B2 -->
<!-- AB&#45;&gt;A2 -->
<!-- AB&#45;&gt;B2 -->
</g>
</svg>
