<?xml version="1.0" encoding="UTF-8" standalone="no"?>
<!DOCTYPE svg PUBLIC "-//W3C//DTD SVG 1.1//EN"
 "http://www.w3.org/Graphics/SVG/1.1/DTD/svg11.dtd">
<!-- Generated by graphviz version 2.43.0 (0)
 -->
<!-- Title: %3 Pages: 1 -->
<svg width="231pt" height="98pt"
 viewBox="0.00 0.00 231.20 98.00" xmlns="http://www.w3.org/2000/svg" xmlns:xlink="http://www.w3.org/1999/xlink">
<g id="graph0" class="graph" transform="scale(1 1) rotate(0) translate(4 94)">
<title>%3</title>
<!-- Start -->
<!-- A -->
<g id="node3" class="node start">
<title>A</title>
<path fill="#586e75" stroke="#586e75" d="M81.6,-90C81.6,-90 51.6,-90 51.6,-90 45.6,-90 39.6,-84 39.6,-78 39.6,-78 39.6,-66 39.6,-66 39.6,-60 45.6,-54 51.6,-54 51.6,-54 81.6,-54 81.6,-54 87.6,-54 93.6,-60 93.6,-66 93.6,-66 93.6,-78 93.6,-78 93.6,-84 87.6,-90 81.6,-90"/>
<text text-anchor="middle" x="66.6" y="-68.3" font-family="Inter,Arial" font-size="14.00" fill="#ffffff">A</text>
</g>
<!-- Start&#45;&gt;A -->
<g id="edge3" class="edge start">
<title>Start&#45;&gt;A</title>
<path fill="none" stroke="#586e75" stroke-width="2" d="M3.89,-72C7.24,-72 17.86,-72 29.37,-72"/>
<polygon fill="#586e75" stroke="#586e75" stroke-width="2" points="29.55,-75.5 39.55,-72 29.55,-68.5 29.55,-75.5"/>
</g>
<!-- Goal -->
<!-- FA -->
<g id="node4" class="node goal">
<title>FA</title>
<path fill="#586e75" stroke="#586e75" d="M171.6,-90C171.6,-90 141.6,-90 141.6,-90 135.6,-90 129.6,-84 129.6,-78 129.6,-78 129.6,-66 129.6,-66 129.6,-60 135.6,-54 141.6,-54 141.6,-54 171.6,-54 171.6,-54 177.6,-54 183.6,-60 183.6,-66 183.6,-66 183.6,-78 183.6,-78 183.6,-84 177.6,-90 171.6,-90"/>
<text text-anchor="middle" x="156.6" y="-68.3" font-family="Inter,Arial" font-size="14.00" fill="#ffffff">F[A]</text>
</g>
<!-- A&#45;&gt;FA -->
<!-- FA&#45;&gt;Goal -->
<g id="edge4" class="edge goal">
<title>FA&#45;&gt;Goal</title>
<path fill="none" stroke="#586e75" stroke-width="2" d="M183.87,-72C192.81,-72 202.32,-72 209.4,-72"/>
<polygon fill="#586e75" stroke="#586e75" stroke-width="2" points="209.54,-75.5 219.54,-72 209.54,-68.5 209.54,-75.5"/>
</g>
<!-- empty -->
<!-- empty&#45;&gt;FA -->
</g>
</svg>
