<?xml version="1.0" encoding="UTF-8" standalone="no"?>
<!DOCTYPE svg PUBLIC "-//W3C//DTD SVG 1.1//EN"
 "http://www.w3.org/Graphics/SVG/1.1/DTD/svg11.dtd">
<!-- Generated by graphviz version 2.43.0 (0)
 -->
<!-- Title: %3 Pages: 1 -->
<svg width="231pt" height="98pt"
 viewBox="0.00 0.00 231.20 98.00" xmlns="http://www.w3.org/2000/svg" xmlns:xlink="http://www.w3.org/1999/xlink">
<g id="graph0" class="graph" transform="scale(1 1) rotate(0) translate(4 94)">
<title>%3</title>
<!-- Start -->
<!-- A -->
<g id="node3" class="node start,disabled">
<title>A</title>
<path fill="#d0dce3" stroke="#d0dce3" d="M81.6,-90C81.6,-90 51.6,-90 51.6,-90 45.6,-90 39.6,-84 39.6,-78 39.6,-78 39.6,-66 39.6,-66 39.6,-60 45.6,-54 51.6,-54 51.6,-54 81.6,-54 81.6,-54 87.6,-54 93.6,-60 93.6,-66 93.6,-66 93.6,-78 93.6,-78 93.6,-84 87.6,-90 81.6,-90"/>
<text text-anchor="middle" x="66.6" y="-68.3" font-family="Inter,Arial" font-size="14.00" fill="#ffffff">A</text>
</g>
<!-- Start&#45;&gt;A -->
<g id="edge3" class="edge start,disabled">
<title>Start&#45;&gt;A</title>
<path fill="none" stroke="#d0dce3" stroke-width="2" d="M3.89,-72C7.24,-72 17.86,-72 29.37,-72"/>
<polygon fill="#d0dce3" stroke="#d0dce3" stroke-width="2" points="29.55,-75.5 39.55,-72 29.55,-68.5 29.55,-75.5"/>
</g>
<!-- Goal -->
<!-- FA -->
<g id="node4" class="node goal,disabled">
<title>FA</title>
<path fill="#d0dce3" stroke="#d0dce3" d="M171.6,-90C171.6,-90 141.6,-90 141.6,-90 135.6,-90 129.6,-84 129.6,-78 129.6,-78 129.6,-66 129.6,-66 129.6,-60 135.6,-54 141.6,-54 141.6,-54 171.6,-54 171.6,-54 177.6,-54 183.6,-60 183.6,-66 183.6,-66 183.6,-78 183.6,-78 183.6,-84 177.6,-90 171.6,-90"/>
<text text-anchor="middle" x="156.6" y="-68.3" font-family="Inter,Arial" font-size="14.00" fill="#ffffff">F[A]</text>
</g>
<!-- A&#45;&gt;FA -->
<g id="edge1" class="edge disabled">
<title>A&#45;&gt;FA</title>
<path fill="none" stroke="#d0dce3" d="M94,-72C101.99,-72 110.91,-72 119.42,-72"/>
<polygon fill="#d0dce3" stroke="#d0dce3" points="119.52,-75.5 129.52,-72 119.52,-68.5 119.52,-75.5"/>
</g>
<!-- FA&#45;&gt;Goal -->
<g id="edge4" class="edge goal,disabled">
<title>FA&#45;&gt;Goal</title>
<path fill="none" stroke="#d0dce3" stroke-width="2" d="M183.87,-72C192.81,-72 202.32,-72 209.4,-72"/>
<polygon fill="#d0dce3" stroke="#d0dce3" stroke-width="2" points="209.54,-75.5 219.54,-72 209.54,-68.5 209.54,-75.5"/>
</g>
<!-- empty -->
<g id="node5" class="node">
<title>empty</title>
<path fill="#ffffff" stroke="#586e75" d="M81.6,-36C81.6,-36 51.6,-36 51.6,-36 45.6,-36 39.6,-30 39.6,-24 39.6,-24 39.6,-12 39.6,-12 39.6,-6 45.6,0 51.6,0 51.6,0 81.6,0 81.6,0 87.6,0 93.6,-6 93.6,-12 93.6,-12 93.6,-24 93.6,-24 93.6,-30 87.6,-36 81.6,-36"/>
<text text-anchor="middle" x="66.6" y="-14.3" font-family="Inter,Arial" font-size="14.00" fill="#586e75">X</text>
</g>
<!-- empty&#45;&gt;FA -->
<g id="edge2" class="edge disabled">
<title>empty&#45;&gt;FA</title>
<path fill="none" stroke="#d0dce3" d="M94,-34.2C102.43,-39.37 111.89,-45.18 120.82,-50.66"/>
<polygon fill="#d0dce3" stroke="#d0dce3" points="119.17,-53.75 129.52,-56 122.83,-47.78 119.17,-53.75"/>
</g>
</g>
</svg>
