<?xml version="1.0" encoding="UTF-8" standalone="no"?>
<!DOCTYPE svg PUBLIC "-//W3C//DTD SVG 1.1//EN"
 "http://www.w3.org/Graphics/SVG/1.1/DTD/svg11.dtd">
<!-- Generated by graphviz version 2.43.0 (0)
 -->
<!-- Title: %3 Pages: 1 -->
<svg width="419pt" height="116pt"
 viewBox="0.00 0.00 419.20 116.00" xmlns="http://www.w3.org/2000/svg" xmlns:xlink="http://www.w3.org/1999/xlink">
<g id="graph0" class="graph" transform="scale(1 1) rotate(0) translate(4 112)">
<title>%3</title>
<!-- Start -->
<!-- FA -->
<g id="node3" class="node start,disabled">
<title>FA</title>
<path fill="#d0dce3" stroke="#d0dce3" d="M82.6,-36C82.6,-36 52.6,-36 52.6,-36 46.6,-36 40.6,-30 40.6,-24 40.6,-24 40.6,-12 40.6,-12 40.6,-6 46.6,0 52.6,0 52.6,0 82.6,0 82.6,0 88.6,0 94.6,-6 94.6,-12 94.6,-12 94.6,-24 94.6,-24 94.6,-30 88.6,-36 82.6,-36"/>
<text text-anchor="middle" x="67.6" y="-14.3" font-family="Inter,Arial" font-size="14.00" fill="#ffffff">F[A]</text>
</g>
<!-- Start&#45;&gt;FA -->
<g id="edge9" class="edge start,disabled">
<title>Start&#45;&gt;FA</title>
<path fill="none" stroke="#d0dce3" stroke-width="2" d="M3.91,-18C7.37,-18 18.49,-18 30.42,-18"/>
<polygon fill="#d0dce3" stroke="#d0dce3" stroke-width="2" points="30.48,-21.5 40.48,-18 30.48,-14.5 30.48,-21.5"/>
</g>
<!-- Goal -->
<!-- XX -->
<g id="node8" class="node disabled">
<title>XX</title>
<path fill="#ffffff" stroke="#d0dce3" d="M176.6,-36C176.6,-36 146.6,-36 146.6,-36 140.6,-36 134.6,-30 134.6,-24 134.6,-24 134.6,-12 134.6,-12 134.6,-6 140.6,0 146.6,0 146.6,0 176.6,0 176.6,0 182.6,0 188.6,-6 188.6,-12 188.6,-12 188.6,-24 188.6,-24 188.6,-30 182.6,-36 176.6,-36"/>
<text text-anchor="middle" x="161.6" y="-14.3" font-family="Inter,Arial" font-size="14.00" fill="#d0dce3">X×X</text>
</g>
<!-- FA&#45;&gt;XX -->
<g id="edge4" class="edge disabled">
<title>FA&#45;&gt;XX</title>
<path fill="none" stroke="#d0dce3" d="M94.72,-18C103.94,-18 114.49,-18 124.4,-18"/>
<polygon fill="#d0dce3" stroke="#d0dce3" points="124.42,-21.5 134.42,-18 124.42,-14.5 124.42,-21.5"/>
</g>
<!-- A -->
<g id="node4" class="node disabled">
<title>A</title>
<path fill="#ffffff" stroke="#d0dce3" d="M82.6,-108C82.6,-108 52.6,-108 52.6,-108 46.6,-108 40.6,-102 40.6,-96 40.6,-96 40.6,-84 40.6,-84 40.6,-78 46.6,-72 52.6,-72 52.6,-72 82.6,-72 82.6,-72 88.6,-72 94.6,-78 94.6,-84 94.6,-84 94.6,-96 94.6,-96 94.6,-102 88.6,-108 82.6,-108"/>
<text text-anchor="middle" x="67.6" y="-86.3" font-family="Inter,Arial" font-size="14.00" fill="#d0dce3">A</text>
</g>
<!-- A&#45;&gt;FA -->
<g id="edge1" class="edge disabled">
<title>A&#45;&gt;FA</title>
<path fill="none" stroke="#d0dce3" d="M67.6,-61.92C67.6,-53.37 67.6,-44.83 67.6,-36.28"/>
<polygon fill="#d0dce3" stroke="#d0dce3" points="64.1,-61.95 67.6,-71.95 71.1,-61.95 64.1,-61.95"/>
</g>
<!-- FB -->
<g id="node5" class="node disabled">
<title>FB</title>
<path fill="#ffffff" stroke="#d0dce3" d="M176.6,-108C176.6,-108 146.6,-108 146.6,-108 140.6,-108 134.6,-102 134.6,-96 134.6,-96 134.6,-84 134.6,-84 134.6,-78 140.6,-72 146.6,-72 146.6,-72 176.6,-72 176.6,-72 182.6,-72 188.6,-78 188.6,-84 188.6,-84 188.6,-96 188.6,-96 188.6,-102 182.6,-108 176.6,-108"/>
<text text-anchor="middle" x="161.6" y="-86.3" font-family="Inter,Arial" font-size="14.00" fill="#d0dce3">F[B]</text>
</g>
<!-- A&#45;&gt;FB -->
<g id="edge5" class="edge disabled">
<title>A&#45;&gt;FB</title>
<path fill="none" stroke="#d0dce3" d="M94.72,-90C103.94,-90 114.49,-90 124.4,-90"/>
<polygon fill="#d0dce3" stroke="#d0dce3" points="124.42,-93.5 134.42,-90 124.42,-86.5 124.42,-93.5"/>
<text text-anchor="middle" x="114.6" y="-93.2" font-family="Inter,Arial" font-size="11.00" fill="#d0dce3">f</text>
</g>
<!-- B -->
<g id="node6" class="node">
<title>B</title>
<path fill="#ffffff" stroke="#586e75" d="M267.6,-108C267.6,-108 237.6,-108 237.6,-108 231.6,-108 225.6,-102 225.6,-96 225.6,-96 225.6,-84 225.6,-84 225.6,-78 231.6,-72 237.6,-72 237.6,-72 267.6,-72 267.6,-72 273.6,-72 279.6,-78 279.6,-84 279.6,-84 279.6,-96 279.6,-96 279.6,-102 273.6,-108 267.6,-108"/>
<text text-anchor="middle" x="252.6" y="-86.3" font-family="Inter,Arial" font-size="14.00" fill="#586e75">B</text>
</g>
<!-- FB&#45;&gt;B -->
<g id="edge7" class="edge disabled">
<title>FB&#45;&gt;B</title>
<path fill="none" stroke="#d0dce3" d="M188.82,-90C197.15,-90 206.51,-90 215.42,-90"/>
<polygon fill="#d0dce3" stroke="#d0dce3" points="215.57,-93.5 225.57,-90 215.57,-86.5 215.57,-93.5"/>
</g>
<!-- FB&#45;&gt;XX -->
<g id="edge2" class="edge disabled">
<title>FB&#45;&gt;XX</title>
<path fill="none" stroke="#d0dce3" d="M161.6,-71.95C161.6,-63.41 161.6,-54.86 161.6,-46.31"/>
<polygon fill="#d0dce3" stroke="#d0dce3" points="165.1,-46.28 161.6,-36.28 158.1,-46.28 165.1,-46.28"/>
</g>
<!-- FB2 -->
<g id="node7" class="node goal,disabled">
<title>FB2</title>
<path fill="#d0dce3" stroke="#d0dce3" d="M358.6,-108C358.6,-108 328.6,-108 328.6,-108 322.6,-108 316.6,-102 316.6,-96 316.6,-96 316.6,-84 316.6,-84 316.6,-78 322.6,-72 328.6,-72 328.6,-72 358.6,-72 358.6,-72 364.6,-72 370.6,-78 370.6,-84 370.6,-84 370.6,-96 370.6,-96 370.6,-102 364.6,-108 358.6,-108"/>
<text text-anchor="middle" x="343.6" y="-86.3" font-family="Inter,Arial" font-size="14.00" fill="#ffffff">F[B]</text>
</g>
<!-- B&#45;&gt;FB2 -->
<g id="edge8" class="edge disabled">
<title>B&#45;&gt;FB2</title>
<path fill="none" stroke="#d0dce3" d="M279.82,-90C288.15,-90 297.51,-90 306.42,-90"/>
<polygon fill="#d0dce3" stroke="#d0dce3" points="306.57,-93.5 316.57,-90 306.57,-86.5 306.57,-93.5"/>
</g>
<!-- FB2&#45;&gt;Goal -->
<g id="edge10" class="edge goal,disabled">
<title>FB2&#45;&gt;Goal</title>
<path fill="none" stroke="#d0dce3" stroke-width="2" d="M370.92,-90C380.17,-90 390.07,-90 397.37,-90"/>
<polygon fill="#d0dce3" stroke="#d0dce3" stroke-width="2" points="397.51,-93.5 407.51,-90 397.51,-86.5 397.51,-93.5"/>
</g>
<!-- X -->
<g id="node9" class="node disabled">
<title>X</title>
<path fill="#ffffff" stroke="#d0dce3" d="M358.6,-36C358.6,-36 328.6,-36 328.6,-36 322.6,-36 316.6,-30 316.6,-24 316.6,-24 316.6,-12 316.6,-12 316.6,-6 322.6,0 328.6,0 328.6,0 358.6,0 358.6,0 364.6,0 370.6,-6 370.6,-12 370.6,-12 370.6,-24 370.6,-24 370.6,-30 364.6,-36 358.6,-36"/>
<text text-anchor="middle" x="343.6" y="-14.3" font-family="Inter,Arial" font-size="14.00" fill="#d0dce3">X</text>
</g>
<!-- FB2&#45;&gt;X -->
<g id="edge3" class="edge disabled">
<title>FB2&#45;&gt;X</title>
<path fill="none" stroke="#d0dce3" d="M343.6,-61.92C343.6,-53.37 343.6,-44.83 343.6,-36.28"/>
<polygon fill="#d0dce3" stroke="#d0dce3" points="340.1,-61.95 343.6,-71.95 347.1,-61.95 340.1,-61.95"/>
</g>
<!-- XX&#45;&gt;X -->
<g id="edge6" class="edge disabled">
<title>XX&#45;&gt;X</title>
<path fill="none" stroke="#d0dce3" d="M188.77,-18C219.7,-18 271.35,-18 306.17,-18"/>
<polygon fill="#d0dce3" stroke="#d0dce3" points="306.39,-21.5 316.39,-18 306.39,-14.5 306.39,-21.5"/>
<text text-anchor="middle" x="252.6" y="-21.2" font-family="Inter,Arial" font-size="11.00" fill="#d0dce3">combine</text>
</g>
</g>
</svg>
