<?xml version="1.0" encoding="UTF-8" standalone="no"?>
<!DOCTYPE svg PUBLIC "-//W3C//DTD SVG 1.1//EN"
 "http://www.w3.org/Graphics/SVG/1.1/DTD/svg11.dtd">
<!-- Generated by graphviz version 2.43.0 (0)
 -->
<!-- Title: %3 Pages: 1 -->
<svg width="232pt" height="98pt"
 viewBox="0.00 0.00 232.20 98.00" xmlns="http://www.w3.org/2000/svg" xmlns:xlink="http://www.w3.org/1999/xlink">
<g id="graph0" class="graph" transform="scale(1 1) rotate(0) translate(4 94)">
<title>%3</title>
<!-- Start -->
<!-- A -->
<g id="node3" class="node start,disabled">
<title>A</title>
<path fill="#d0dce3" stroke="#d0dce3" d="M82.1,-90C82.1,-90 52.1,-90 52.1,-90 46.1,-90 40.1,-84 40.1,-78 40.1,-78 40.1,-66 40.1,-66 40.1,-60 46.1,-54 52.1,-54 52.1,-54 82.1,-54 82.1,-54 88.1,-54 94.1,-60 94.1,-66 94.1,-66 94.1,-78 94.1,-78 94.1,-84 88.1,-90 82.1,-90"/>
<text text-anchor="middle" x="67.1" y="-68.3" font-family="Inter,Arial" font-size="14.00" fill="#ffffff">A</text>
</g>
<!-- Start&#45;&gt;A -->
<g id="edge3" class="edge start,disabled">
<title>Start&#45;&gt;A</title>
<path fill="none" stroke="#d0dce3" stroke-width="2" d="M3.9,-72C7.28,-72 17.98,-72 29.58,-72"/>
<polygon fill="#d0dce3" stroke="#d0dce3" stroke-width="2" points="29.85,-75.5 39.85,-72 29.85,-68.5 29.85,-75.5"/>
</g>
<!-- Goal -->
<!-- FA -->
<g id="node4" class="node goal,disabled">
<title>FA</title>
<path fill="#d0dce3" stroke="#d0dce3" d="M172.6,-90C172.6,-90 142.6,-90 142.6,-90 136.6,-90 130.6,-84 130.6,-78 130.6,-78 130.6,-66 130.6,-66 130.6,-60 136.6,-54 142.6,-54 142.6,-54 172.6,-54 172.6,-54 178.6,-54 184.6,-60 184.6,-66 184.6,-66 184.6,-78 184.6,-78 184.6,-84 178.6,-90 172.6,-90"/>
<text text-anchor="middle" x="157.6" y="-68.3" font-family="Inter,Arial" font-size="14.00" fill="#ffffff">F[A]</text>
</g>
<!-- A&#45;&gt;FA -->
<g id="edge1" class="edge disabled">
<title>A&#45;&gt;FA</title>
<path fill="none" stroke="#d0dce3" d="M94.17,-72C102.38,-72 111.6,-72 120.38,-72"/>
<polygon fill="#d0dce3" stroke="#d0dce3" points="120.41,-75.5 130.41,-72 120.41,-68.5 120.41,-75.5"/>
</g>
<!-- FA&#45;&gt;Goal -->
<g id="edge4" class="edge goal,disabled">
<title>FA&#45;&gt;Goal</title>
<path fill="none" stroke="#d0dce3" stroke-width="2" d="M184.87,-72C193.81,-72 203.32,-72 210.4,-72"/>
<polygon fill="#d0dce3" stroke="#d0dce3" stroke-width="2" points="210.54,-75.5 220.54,-72 210.54,-68.5 210.54,-75.5"/>
</g>
<!-- empty -->
<g id="node5" class="node">
<title>empty</title>
<path fill="#ffffff" stroke="#586e75" d="M82.6,-36C82.6,-36 51.6,-36 51.6,-36 45.6,-36 39.6,-30 39.6,-24 39.6,-24 39.6,-12 39.6,-12 39.6,-6 45.6,0 51.6,0 51.6,0 82.6,0 82.6,0 88.6,0 94.6,-6 94.6,-12 94.6,-12 94.6,-24 94.6,-24 94.6,-30 88.6,-36 82.6,-36"/>
<text text-anchor="middle" x="67.1" y="-14.3" font-family="Inter,Arial" font-size="14.00" fill="#586e75">PosInt</text>
</g>
<!-- empty&#45;&gt;FA -->
<g id="edge2" class="edge disabled">
<title>empty&#45;&gt;FA</title>
<path fill="none" stroke="#d0dce3" d="M94.65,-34.2C103.13,-39.37 112.64,-45.18 121.63,-50.66"/>
<polygon fill="#d0dce3" stroke="#d0dce3" points="120.01,-53.77 130.37,-56 123.66,-47.8 120.01,-53.77"/>
</g>
</g>
</svg>
