<svg id="Layer_1" data-name="Layer 1" xmlns="http://www.w3.org/2000/svg" viewBox="0 0 85.69 52.5"><path d="M429.47,855.3l-9.67-29.54-9.86,29.54h-8.25l-13.87-48.46h10.4l7.41,26.81c.21.8.4,1.57.59,2.31.15-.46.28-.86.4-1.21l9.43-27.91h7.86l9,27.9c.13.44.26.86.39,1.28l.64-2.55L441,806.84h10.13L438,855.3Z" transform="translate(-387.82 -803.58)"/><path d="M431.64,852.3l-9.29-28.4c-.6-1.92-1.37-4.75-2.31-8.47h-.23l-.82,2.89L417.23,824l-9.45,28.32H404L391.8,809.84h4.14l6.8,24.61c1.58,6.09,2.63,10.57,3.12,13.44h.24q2.29-9.15,3.36-12.15l8.75-25.9h3.51L430,835.66q2.82,9.18,3.44,12.15h.23q.32-2.53,3.13-13.6l6.48-24.37h3.91L435.71,852.3Z" transform="translate(-387.82 -803.58)"/><path d="M457.46,856.08c-6.92,0-12.47-2.27-16.49-6.74s-5.92-10.44-5.92-18l1-2.92,8.06-.23v3.08a17.77,17.77,0,0,0,4.34,11.54c2.1,2.54,5,3.78,8.93,3.78a24.75,24.75,0,0,0,9.59-1.84l4.16-1.74v10l-1.68.82A27.32,27.32,0,0,1,457.46,856.08Z" transform="translate(-387.82 -803.58)"/><path d="M441.11,831.25a20.85,20.85,0,0,0,5,13.45q4,4.86,11.25,4.87a27.64,27.64,0,0,0,10.75-2.07v3.59a24.36,24.36,0,0,1-10.67,2q-9.1,0-14.25-5.74t-5.16-16" transform="translate(-387.82 -803.58)"/><path d="M440.52,818l.76-11-.26-.2c3.17-1.65,10.05-3.13,14.84-3.25,4.16-.12,13.35,2.77,17.65,7.33l-2.86,2.7.08.1-4.53,3.93a13.64,13.64,0,0,0-10-4.55c-3.2.08-8.33,1.64-11.54,3.07Z" transform="translate(-387.82 -803.58)"/><path d="M468.46,815.69a16.62,16.62,0,0,0-12.36-5.59c-3.85.09-9.42,1.87-12.69,3.33l-.09-3.59a33.85,33.85,0,0,1,12.61-3.25c3.46-.09,11.81,2.58,15.4,6.39" transform="translate(-387.82 -803.58)"/></svg>