<svg xmlns="http://www.w3.org/2000/svg" viewBox="0 0 595.28 841.89"><defs><style>.cls-1{fill:#799b9f;}.cls-2,.cls-25,.cls-26{fill:#b7ac86;}.cls-3{fill:#8c323b;}.cls-4{font-size:15px;font-family:Palatino-Italic, Palatino;font-style:italic;}.cls-16,.cls-4,.cls-6,.cls-7{fill:#fff;}.cls-5{letter-spacing:-0.04em;}.cls-6{stroke:#fff;}.cls-10,.cls-14,.cls-15,.cls-17,.cls-18,.cls-19,.cls-20,.cls-21,.cls-22,.cls-23,.cls-24,.cls-25,.cls-26,.cls-6,.cls-9{stroke-miterlimit:10;}.cls-14,.cls-6{stroke-width:2px;}.cls-7{font-size:9px;font-family:Courier;letter-spacing:-0.16em;}.cls-10,.cls-14,.cls-15,.cls-17,.cls-27,.cls-8{fill:#e6dab6;}.cls-18,.cls-19,.cls-24,.cls-9{fill:none;}.cls-10,.cls-14,.cls-15,.cls-17,.cls-19,.cls-20,.cls-21,.cls-22,.cls-23,.cls-24,.cls-25,.cls-26,.cls-9{stroke:#231f20;}.cls-10{stroke-width:0.5px;}.cls-11{fill:#4c5048;}.cls-12,.cls-20,.cls-23{fill:#231f20;}.cls-13{fill:#d67176;}.cls-17,.cls-22,.cls-23,.cls-24,.cls-26{stroke-width:0.1px;}.cls-18{stroke:#b7ac86;stroke-width:6px;}.cls-19{stroke-width:3px;}.cls-21{fill:#b2a383;}.cls-21,.cls-25{stroke-width:0.11px;}.cls-22{fill:#887a54;}.cls-27{font-size:34px;font-family:StackyardPERSONALUSE, Stackyard PERSONAL USE;}</style></defs><g id="BG"><rect class="cls-1" width="595.28" height="841.89"/><rect class="cls-2" x="12.34" y="17.26" width="570.86" height="807.36"/><rect class="cls-3" x="25.9" y="33.67" width="544.55" height="770.15"/><text class="cls-4" transform="translate(247.59 735.85)">Canon Cit<tspan class="cls-5" x="62.92" y="0">y</tspan><tspan x="69.87" y="0">, CO</tspan></text><line class="cls-6" x1="111.14" y1="730" x2="241.15" y2="730"/><line class="cls-6" x1="354.94" y1="730" x2="484.95" y2="730"/><text class="cls-7" transform="translate(261.99 751.54)">38º 26’ N, 105º 13’ W</text></g><g id="Top_Lettering" data-name="Top Lettering"><path class="cls-8" d="M95,89.72l5.66-9.6a.64.64,0,0,1,.46-.32c4.06-.73,47.92-8.54,57.59-8a.16.16,0,0,1,.13.22l-4,10a.73.73,0,0,1-.6.47c-2.79.37-18.19,2.46-20.13,3.63,0,0-24.33,40.59-27.86,49.92a1.57,1.57,0,0,1-2,.91l-5.67-2.11a1.4,1.4,0,0,1-.76-2c2.43-4.68,10.93-20.89,25-45.83L95.08,89.86A.09.09,0,0,1,95,89.72Z"/><path class="cls-8" d="M151.41,118.38c-12.17,21.08-20,12.6-20,12.6s-11-6.35-1.8-20.49,15.69-13.88,15.69-13.88S163.58,97.29,151.41,118.38ZM145.67,106s-3.34-.69-8.06,7.11-2.14,9.09-2.14,9.09,3.09,2.48,8.4-6.69S145.67,106,145.67,106Z"/><path class="cls-8" d="M199.24,74.57a.19.19,0,0,1,.24-.09l6.86,2.77a.18.18,0,0,1,.09.25l-25.14,50.37a.13.13,0,0,1-.17.06l-7.54-2.87a.21.21,0,0,1-.12-.3l2.63-5.27c-13.11,14.31-16.54,6.94-16.54,6.94C151.5,115,172.07,98,176.87,95s6-1,6-1l4.26,4.7a0,0,0,0,0,0,0Zm-13.55,26s-3.94-1.57-11.31,5.38-6.51,10.9-6.51,10.9S179.44,114,185.69,100.55Z"/><path class="cls-8" d="M218,97.38c3.23-5.53-12.26,1-13.39,1.43,0,0,0,0,0,0l4.07-9.19c23.91-5.4,16.9,9.43,16.9,9.43L215,123.14a.56.56,0,0,1-.68.32l-6.6-2a.42.42,0,0,1-.29-.49l.52-2.54c-6.77,5.23-10.72,6.09-10.72,6.09s-12.77-8.23.6-17.83,17-.79,17-.79Zm-6.63,11.24s-13.72,2.29-11,7.34C201.63,118.39,218,108.62,211.37,108.62Z"/><path class="cls-8" d="M233.31,87a.22.22,0,0,0-.21.21l-1.49,25.25s-.7,2.28,2.69,3.28l-8.08,13.51a.19.19,0,0,0,.06.26l6.28,4.12a.3.3,0,0,0,.41-.08l30-45a.2.2,0,0,0-.06-.29l-7-4.21a.28.28,0,0,0-.39.1l-14.31,22.9.19-20a.33.33,0,0,0-.33-.33Z"/><path class="cls-8" d="M293.5,78.87l-14.88,30.74a.31.31,0,0,0,.13.4l7.16,4a.19.19,0,0,0,.25-.08l15.47-31.43a.44.44,0,0,0-.22-.6L294,78.69A.37.37,0,0,0,293.5,78.87Z"/><path class="cls-8" d="M306,62s-5.19-1-6.89,3.19-2,7.58,1.4,8.38,8.18-1,8.38-6.38S306,62,306,62Z"/><path class="cls-8" d="M328.79,75.21a.23.23,0,0,0-.26-.22c-2.18.25-18.31,2.54-22.2,15.33-.7,2.29,20.28,8.72,2.83,14a.57.57,0,0,0-.34.27l-2.34,4.55a.36.36,0,0,0,.17.5c1.73.8,9.79,3.68,18.63-7,10.84-13-28-10.94,3.67-20.65a.43.43,0,0,0,.3-.43Z"/><path class="cls-8" d="M397,102.38c-3.23-.27-14.37-4.79-3-21.63S414.1,69.33,414.1,69.33C423.49,80.93,405.63,103.12,397,102.38Zm11.87-25.13S398,81.94,397.53,90.87s12.44-7.5,12.52-11.32C410.1,77,408.85,77.25,408.85,77.25Z"/><path class="cls-8" d="M438.77,69.42,433.59,67a.73.73,0,0,0-.89.21c-2.48,3.14-16.7,21.72-12,30,2.94,5.17,10.4-2.67,10.4-2.67l5.34-4-2.88,6.11a.16.16,0,0,0,.09.2L439.75,99a0,0,0,0,0,.05,0c.47-1,10.91-22.21,15.64-29,3.13-4.49-6.82-4-6.82-4l-9.2,17.21s-16.85,13.09-7.64-2.11C439.42,68.5,438.77,69.42,438.77,69.42Z"/><path class="cls-8" d="M466.1,65.11,450.76,94.25a.23.23,0,0,0,.11.31L459.18,98a.14.14,0,0,0,.18-.06l7.49-15.08s9-7.18,17.95-9.2c0,0,.56-5.56-1.75-7.66l-12.42,7.29,2.93-5.6a.2.2,0,0,0-.11-.27l-7-2.44A.28.28,0,0,0,466.1,65.11Z"/><path class="cls-8" d="M365.16,73.75a.58.58,0,0,0-.56.54L363.33,96s-.61,2,2.35,2.86l-7.07,11.81a.16.16,0,0,0,.05.21l5.64,3.7a.08.08,0,0,0,.12,0l26.3-39.39a.23.23,0,0,0-.07-.32l-6-3.61a.32.32,0,0,0-.44.11L371.78,91.28,372,74a.5.5,0,0,0-.51-.5Z"/><path class="cls-8" d="M168.39,153.71,145.51,195a1.18,1.18,0,0,0,0,1.11l5.45,10.69a1.18,1.18,0,0,0,1.3.62l26-5.66a.89.89,0,0,0,.7-1l-1.74-9.82a.94.94,0,0,0-1.07-.76l-12.84,2,17.45-33.48a.78.78,0,0,0-.39-1.09l-10.65-4.38A1,1,0,0,0,168.39,153.71Z"/><path class="cls-8" d="M211.56,153.81l-7.48-3.5a1.08,1.08,0,0,0-1.31.3c-3.69,4.66-25.85,31.39-15.83,44.77,6.34,8.48,15.17-3,15.17-3l6.29-6.92-4,8.46c-.23.48-.38,2.59.12,2.77l7.32,2.87a1.08,1.08,0,0,0,1.35-.54c2.61-5.29,17-34.88,23.53-44.24,4.07-5.83-6.63-6-9.5-5.94a1.17,1.17,0,0,0-1,.62L212.8,174.57s-25.18,19.57-11.42-3.16c7.77-12.83,9.81-16.29,10.32-17.19A.29.29,0,0,0,211.56,153.81Z"/><path class="cls-8" d="M278.09,141.85a1,1,0,0,0-.55-1.33c-4.16-1.63-21.3-6.11-38.68,21.9-18.09,29.16,13.51,39.29,21.34,25.65l5.94-14.6s-26.2,14-16.61-6.82c4.26-9.26,18.85-12.07,22.43-12.63a1.49,1.49,0,0,0,1.13-.87Z"/><path class="cls-8" d="M289.83,137.44l-19.47,47.73a.81.81,0,0,0,.44,1.05l10.76,4.44a1,1,0,0,0,1.26-.55l6.41-17.57,12,14.59a1,1,0,0,0,1.3.22l4.76-2.9a10.11,10.11,0,0,0,1.45-1.08l3.83-3.49a.87.87,0,0,0,.06-1.23l-10.84-12,24.58-21.8a1,1,0,0,0,.07-1.39l-7.12-7.58a.82.82,0,0,0-1.17,0l-23.7,22.92,7-18a.9.9,0,0,0-.6-1.2L291,136.86A1,1,0,0,0,289.83,137.44Z"/><path class="cls-8" d="M331.9,135.31V163.5a.7.7,0,0,0,.6.69l6,.82-8.77,15.41a1,1,0,0,0,.38,1.32l8.27,4.54a1.33,1.33,0,0,0,1.72-.39c4.32-5.95,27.56-38.2,31.42-48.84a1,1,0,0,0-.46-1.2l-8.45-4.67a1.13,1.13,0,0,0-1.48.38l-16,25.32-.43-22.11a.93.93,0,0,0-1-.91l-11,.54A.91.91,0,0,0,331.9,135.31Z"/><path class="cls-8" d="M421,127a.86.86,0,0,1,1.09-.41l5.58,2.26a.87.87,0,0,1,.46,1.2l-24.19,48.47a1.65,1.65,0,0,1-2.07.8l-5.33-2a1.11,1.11,0,0,1-.6-1.54l2.19-4.38c-13.12,14.31-16.54,6.94-16.54,6.94-8.06-11.4,12.51-28.45,17.31-31.45s6-1,6-1l4.28,4.71Zm-14.52,25s-2.7-1.17-10.07,5.78-6.51,10.9-6.51,10.9S400.18,165.46,406.43,152Z"/><path class="cls-8" d="M439.86,151.61c3.34-5.74-13.45,1.46-13.45,1.46l3.89-8.78a1,1,0,0,1,.72-.59c23.29-5.07,16.38,9.54,16.38,9.54L436.81,175.3a1.52,1.52,0,0,1-1.71.82l-5.7-1.3.43-2.12c-6.77,5.23-12.61,3.32-12.61,3.32s-10.87-5.47,2.5-15.06,17-.79,17-.79Zm-6.64,11.24s-13.72,2.29-11,7.34C423.49,172.63,439.85,162.85,433.22,162.85Z"/><path class="cls-8" d="M454.44,143.17a.8.8,0,0,0-.76.75l-1.26,21.51s-.61,2,2.35,2.86l-10,12.84a.91.91,0,0,0,.22,1.31l5.53,3.63a.93.93,0,0,0,1.28-.25l27.63-40.67a.88.88,0,0,0-.27-1.23l-5-3a.8.8,0,0,0-1.09.26l-12.21,19.55.16-16.87a.86.86,0,0,0-.89-.87Z"/><path class="cls-8" d="M499.54,155.7l19.62-32.13a2.5,2.5,0,0,0-1.23-3.64l-4.4-1.72a.91.91,0,0,0-1.11.37l-20.88,33.33a.92.92,0,0,0,.41,1.32l6.44,2.83A.92.92,0,0,0,499.54,155.7Z"/><path class="cls-8" d="M486.29,174.07s5.18,1.05,6.92-3.12,2.07-7.56-1.31-8.39-8.19.91-8.45,6.29S486.29,174.07,486.29,174.07Z"/><path class="cls-9" d="M95,89.72l5.66-9.6a.64.64,0,0,1,.46-.32c4.06-.73,47.92-8.54,57.59-8a.16.16,0,0,1,.13.22l-4,10a.73.73,0,0,1-.6.47c-2.79.37-18.19,2.46-20.13,3.63,0,0-24.33,40.59-27.86,49.92a1.57,1.57,0,0,1-2,.91l-5.67-2.11a1.4,1.4,0,0,1-.76-2c2.43-4.68,10.93-20.89,25-45.83L95.08,89.86A.09.09,0,0,1,95,89.72Z"/><path class="cls-9" d="M151.41,118.38c-12.17,21.08-20,12.6-20,12.6s-11-6.35-1.8-20.49,15.69-13.88,15.69-13.88S163.58,97.29,151.41,118.38ZM145.67,106s-3.34-.69-8.06,7.11-2.14,9.09-2.14,9.09,3.09,2.48,8.4-6.69S145.67,106,145.67,106Z"/><path class="cls-9" d="M199.24,74.57a.19.19,0,0,1,.24-.09l6.86,2.77a.18.18,0,0,1,.09.25l-25.14,50.37a.13.13,0,0,1-.17.06l-7.54-2.87a.21.21,0,0,1-.12-.3l2.63-5.27c-13.11,14.31-16.54,6.94-16.54,6.94C151.5,115,172.07,98,176.87,95s6-1,6-1l4.26,4.7a0,0,0,0,0,0,0Zm-13.55,26s-3.94-1.57-11.31,5.38-6.51,10.9-6.51,10.9S179.44,114,185.69,100.55Z"/><path class="cls-9" d="M218,97.38c3.23-5.53-12.26,1-13.39,1.43,0,0,0,0,0,0l4.07-9.19c23.91-5.4,16.9,9.43,16.9,9.43L215,123.14a.56.56,0,0,1-.68.32l-6.6-2a.42.42,0,0,1-.29-.49l.52-2.54c-6.77,5.23-10.72,6.09-10.72,6.09s-12.77-8.23.6-17.83,17-.79,17-.79Zm-6.63,11.24s-13.72,2.29-11,7.34C201.63,118.39,218,108.62,211.37,108.62Z"/><path class="cls-9" d="M233.31,87a.22.22,0,0,0-.21.21l-1.49,25.25s-.7,2.28,2.69,3.28l-8.08,13.51a.19.19,0,0,0,.06.26l6.28,4.12a.3.3,0,0,0,.41-.08l30-45a.2.2,0,0,0-.06-.29l-7-4.21a.28.28,0,0,0-.39.1l-14.31,22.9.19-20a.33.33,0,0,0-.33-.33Z"/><path class="cls-9" d="M293.5,78.87l-14.88,30.74a.31.31,0,0,0,.13.4l7.16,4a.19.19,0,0,0,.25-.08l15.47-31.43a.44.44,0,0,0-.22-.6L294,78.69A.37.37,0,0,0,293.5,78.87Z"/><path class="cls-9" d="M306,62s-5.19-1-6.89,3.19-2,7.58,1.4,8.38,8.18-1,8.38-6.38S306,62,306,62Z"/><path class="cls-9" d="M328.79,75.21a.23.23,0,0,0-.26-.22c-2.18.25-18.31,2.54-22.2,15.33-.7,2.29,20.28,8.72,2.83,14a.57.57,0,0,0-.34.27l-2.34,4.55a.36.36,0,0,0,.17.5c1.73.8,9.79,3.68,18.63-7,10.84-13-28-10.94,3.67-20.65a.43.43,0,0,0,.3-.43Z"/><path class="cls-9" d="M397,102.38c-3.23-.27-14.37-4.79-3-21.63S414.1,69.33,414.1,69.33C423.49,80.93,405.63,103.12,397,102.38Zm11.87-25.13S398,81.94,397.53,90.87s12.44-7.5,12.52-11.32C410.1,77,408.85,77.25,408.85,77.25Z"/><path class="cls-9" d="M438.77,69.42,433.59,67a.73.73,0,0,0-.89.21c-2.48,3.14-16.7,21.72-12,30,2.94,5.17,10.4-2.67,10.4-2.67l5.34-4-2.88,6.11a.16.16,0,0,0,.09.2L439.75,99a0,0,0,0,0,.05,0c.47-1,10.91-22.21,15.64-29,3.13-4.49-6.82-4-6.82-4l-9.2,17.21s-16.85,13.09-7.64-2.11C439.42,68.5,438.77,69.42,438.77,69.42Z"/><path class="cls-9" d="M466.1,65.11,450.76,94.25a.23.23,0,0,0,.11.31L459.18,98a.14.14,0,0,0,.18-.06l7.49-15.08s9-7.18,17.95-9.2c0,0,.56-5.56-1.75-7.66l-12.42,7.29,2.93-5.6a.2.2,0,0,0-.11-.27l-7-2.44A.28.28,0,0,0,466.1,65.11Z"/><path class="cls-9" d="M365.16,73.75a.58.58,0,0,0-.56.54L363.33,96s-.61,2,2.35,2.86l-7.07,11.81a.16.16,0,0,0,.05.21l5.64,3.7a.08.08,0,0,0,.12,0l26.3-39.39a.23.23,0,0,0-.07-.32l-6-3.61a.32.32,0,0,0-.44.11L371.78,91.28,372,74a.5.5,0,0,0-.51-.5Z"/><path class="cls-9" d="M168.39,153.71,145.51,195a1.18,1.18,0,0,0,0,1.11l5.45,10.69a1.18,1.18,0,0,0,1.3.62l26-5.66a.89.89,0,0,0,.7-1l-1.74-9.82a.94.94,0,0,0-1.07-.76l-12.84,2,17.45-33.48a.78.78,0,0,0-.39-1.09l-10.65-4.38A1,1,0,0,0,168.39,153.71Z"/><path class="cls-9" d="M211.56,153.81l-7.48-3.5a1.08,1.08,0,0,0-1.31.3c-3.69,4.66-25.85,31.39-15.83,44.77,6.34,8.48,15.17-3,15.17-3l6.29-6.92-4,8.46c-.23.48-.38,2.59.12,2.77l7.32,2.87a1.08,1.08,0,0,0,1.35-.54c2.61-5.29,17-34.88,23.53-44.24,4.07-5.83-6.63-6-9.5-5.94a1.17,1.17,0,0,0-1,.62L212.8,174.57s-25.18,19.57-11.42-3.16c7.77-12.83,9.81-16.29,10.32-17.19A.29.29,0,0,0,211.56,153.81Z"/><path class="cls-9" d="M278.09,141.85a1,1,0,0,0-.55-1.33c-4.16-1.63-21.3-6.11-38.68,21.9-18.09,29.16,13.51,39.29,21.34,25.65l5.94-14.6s-26.2,14-16.61-6.82c4.26-9.26,18.85-12.07,22.43-12.63a1.49,1.49,0,0,0,1.13-.87Z"/><path class="cls-9" d="M289.83,137.44l-19.47,47.73a.81.81,0,0,0,.44,1.05l10.76,4.44a1,1,0,0,0,1.26-.55l6.41-17.57,12,14.59a1,1,0,0,0,1.3.22l4.76-2.9a10.11,10.11,0,0,0,1.45-1.08l3.83-3.49a.87.87,0,0,0,.06-1.23l-10.84-12,24.58-21.8a1,1,0,0,0,.07-1.39l-7.12-7.58a.82.82,0,0,0-1.17,0l-23.7,22.92,7-18a.9.9,0,0,0-.6-1.2L291,136.86A1,1,0,0,0,289.83,137.44Z"/><path class="cls-9" d="M331.9,135.31V163.5a.7.7,0,0,0,.6.69l6,.82-8.77,15.41a1,1,0,0,0,.38,1.32l8.27,4.54a1.33,1.33,0,0,0,1.72-.39c4.32-5.95,27.56-38.2,31.42-48.84a1,1,0,0,0-.46-1.2l-8.45-4.67a1.13,1.13,0,0,0-1.48.38l-16,25.32-.43-22.11a.93.93,0,0,0-1-.91l-11,.54A.91.91,0,0,0,331.9,135.31Z"/><path class="cls-9" d="M421,127a.86.86,0,0,1,1.09-.41l5.58,2.26a.87.87,0,0,1,.46,1.2l-24.19,48.47a1.65,1.65,0,0,1-2.07.8l-5.33-2a1.11,1.11,0,0,1-.6-1.54l2.19-4.38c-13.12,14.31-16.54,6.94-16.54,6.94-8.06-11.4,12.51-28.45,17.31-31.45s6-1,6-1l4.28,4.71Zm-14.52,25s-2.7-1.17-10.07,5.78-6.51,10.9-6.51,10.9S400.18,165.46,406.43,152Z"/><path class="cls-9" d="M439.86,151.61c3.34-5.74-13.45,1.46-13.45,1.46l3.89-8.78a1,1,0,0,1,.72-.59c23.29-5.07,16.38,9.54,16.38,9.54L436.81,175.3a1.52,1.52,0,0,1-1.71.82l-5.7-1.3.43-2.12c-6.77,5.23-12.61,3.32-12.61,3.32s-10.87-5.47,2.5-15.06,17-.79,17-.79Zm-6.64,11.24s-13.72,2.29-11,7.34C423.49,172.63,439.85,162.85,433.22,162.85Z"/><path class="cls-9" d="M454.44,143.17a.8.8,0,0,0-.76.75l-1.26,21.51s-.61,2,2.35,2.86l-10,12.84a.91.91,0,0,0,.22,1.31l5.53,3.63a.93.93,0,0,0,1.28-.25l27.63-40.67a.88.88,0,0,0-.27-1.23l-5-3a.8.8,0,0,0-1.09.26l-12.21,19.55.16-16.87a.86.86,0,0,0-.89-.87Z"/><path class="cls-9" d="M499.54,155.7l19.62-32.13a2.5,2.5,0,0,0-1.23-3.64l-4.4-1.72a.91.91,0,0,0-1.11.37l-20.88,33.33a.92.92,0,0,0,.41,1.32l6.44,2.83A.92.92,0,0,0,499.54,155.7Z"/><path class="cls-9" d="M486.29,174.07s5.18,1.05,6.92-3.12,2.07-7.56-1.31-8.39-8.19.91-8.45,6.29S486.29,174.07,486.29,174.07Z"/></g><g id="Friday_13" data-name="Friday 13"><rect class="cls-10" x="193.47" y="234.09" width="232.62" height="271.71"/><circle class="cls-11" cx="214.18" cy="258.24" r="11.4"/><circle class="cls-11" cx="402.6" cy="258.24" r="11.4"/><path class="cls-12" d="M298.67,273.11v.73h-7.74v-.73l3-.51h1.68Zm-3.25-13,.29.21-.08,3v6.11c0,1.47,0,3,.06,4.43h-1.8c0-1.47.06-3,.06-4.43v-7.6l-2.81.23v-.84Z"/><path class="cls-12" d="M306.28,267.19a3.53,3.53,0,0,0,3-1.49l.35.14a4.09,4.09,0,0,1-7.91-1.51,4.17,4.17,0,0,1,4.45-4.34c2.71,0,4.33,2.12,4.33,5.45,0,4-2.13,7.54-7.58,8.82l-.21-.77c4.47-1.47,6-3.85,6-7.67,0-3.4-1-4.89-2.62-4.89-1.39,0-2.57,1.09-2.57,3.21S304.7,267.19,306.28,267.19Z"/><path class="cls-12" d="M314.84,265.86a7.91,7.91,0,0,1,2.9-.56c2.71,0,4.58,1.51,4.58,4.3s-1.93,4.52-4.85,4.52a3.59,3.59,0,0,1-3.91-2.94,1.07,1.07,0,0,1,1.05-.7c.63,0,.91.32,1.2,1.41l.42,1.51-.84-.65a4.77,4.77,0,0,0,1.95.42c2.08,0,3.2-1.32,3.2-3.36a3,3,0,0,0-3.34-3.25,9.06,9.06,0,0,0-1.94.23l-.58-.15.44-6.38h6.82v1.68h-6.4l.56-.95-.35,5.19h-.91Z"/><path class="cls-12" d="M325,269.71v-1l6.25-8.57h1.16v13.75H330.7V261.43h.59L326,268.76l0-.31h8.6v1.26Z"/><path class="cls-12" d="M266.93,287.18v-.76h2.66v1.05h-.19Zm2.85,10.92,2.47.29v.76h-5.32v-.76l2.47-.29Zm-1-5.79c0-2,0-3.93-.06-5.89h1.82c-.05,1.92-.05,3.9-.05,5.89V293c0,2.19,0,4.16.05,6.12h-1.82c.06-1.92.06-3.89.06-5.89Zm6.11-5.89.86.95h-6.12v-.95h6.78l.14,3.38h-1.07Zm-.81,6.67h-4.45v-.87H274Zm-.61-.68.28-2h.86v4.69h-.86l-.28-2.1Z"/><path class="cls-12" d="M282.11,287.18v-.76h2.66v1.05h-.19ZM285,298.1l2.47.29v.76h-5.32v-.76l2.47-.29Zm-1-5.79c0-2,0-3.93-.06-5.89h1.82c-.05,2-.05,3.84-.05,6.08v.57c0,2.15,0,4.12.05,6.08h-1.82c.06-1.92.06-3.89.06-5.89Zm.85.1h2.38c2.05,0,3-1.11,3-2.64s-.86-2.47-2.83-2.47h-2.59v-.88h2.61c2.9,0,4.61,1.24,4.61,3.35,0,1.61-1.27,3.07-3.76,3.28l.06-.15c1.36.13,2.2.76,2.71,2.47l.93,3.15-.58-.36,1.95.23v.76a4.5,4.5,0,0,1-1.37.19c-1.17,0-1.69-.3-1.91-1.18l-.78-3.09c-.38-1.54-1.09-1.81-2.66-1.81h-1.81Z"/><path class="cls-12" d="M298.29,287.18v-.76h5.32v.76l-2.47.29h-.38Zm2.85,10.92,2.47.29v.76h-5.32v-.76l2.47-.29Zm-1-5.79c0-2,0-3.93-.06-5.89h1.82c-.05,1.92-.05,3.9-.05,5.89v.95c0,2,0,3.93.05,5.89H300c.06-1.92.06-3.89.06-5.89Z"/><path class="cls-12" d="M309.47,287.18v-.76h2.66v1.05h-.19Zm2.66,10.92v1h-2.66v-.76l2.47-.29Zm-.85-5.79c0-2,0-3.93-.06-5.89H313c-.05,1.92-.05,3.9-.05,5.89V293c0,2.19,0,4.16.05,6.12h-1.82c.06-1.92.06-3.89.06-6.12Zm.85,6h2.45c3,0,4.62-2,4.62-5.48s-1.64-5.5-4.45-5.5h-2.62v-.88h2.95c3.61,0,6.11,2.24,6.11,6.38s-2.81,6.35-6.49,6.35h-2.57Z"/><path class="cls-12" d="M325.89,298.39l1.9-.29h.38l2.09.29v.76h-4.37Zm5.66-12.06h1.14l4.37,12.82H335.3l-3.82-11.38h.44L328,299.15h-.89Zm-2.22,7.79h5.13l.3.87H329Zm3.74,4.27,2.4-.29h.38l2.35.29v.76h-5.13Z"/><path class="cls-12" d="M343.26,287.18v-.76h5.32v.76l-2.47.29h-.38Zm5.23,7.7-4.16-8.46h2l3.46,7.49h-.67l3.56-7.49h1l-4.09,8.46Zm.72,3.22,2.66.29v.76h-5.7v-.76l2.66-.29Zm-1-4.65h1.71c0,2.17,0,4,.06,5.7h-1.82C348.16,297.5,348.16,295.64,348.16,293.45Zm4.39-6-2.11-.29v-.76h4.37v.76l-1.9.29Z"/><path class="cls-12" d="M305.72,405.81v4.92H247.78v-4.92l22.61-3.38H283Zm-24.34-90.65,2.2,1.41L283,336.7V381c0,9.86.16,19.85.47,29.7h-13.5c.31-9.85.47-19.84.47-29.7V326.71l-21,1.54v-5.63Z"/><path class="cls-12" d="M334.45,357.39c14.28,0,22.76-7,22.76-18.72s-7.06-17.74-19.47-17.74a49.76,49.76,0,0,0-13.34,2l6.75-3.94-3,9.72c-1.89,6.05-3.61,9-9.11,9-3.45,0-6.44-1.26-7.85-5.2,3-12,14.76-17.88,29.05-17.88,18.05,0,29.83,9.29,29.83,23.22,0,11.83-10,21.4-26.54,24.63v-2.39c20.1,1.55,29.83,11.54,29.83,25.48,0,15.2-14,27-35,27-15.07,0-27-5.77-29.83-19.84a8.53,8.53,0,0,1,7.85-4.51c5.18,0,6.91,3.1,9.11,10l3.29,10.7-6.27-5.07a41.55,41.55,0,0,0,14.13,2.4c14.75,0,23.39-9,23.39-21.26s-8-20.54-24.18-20.54h-7.69v-7Z"/><path class="cls-12" d="M261.37,435.18l1.9-.28h.38l2.09.28v.76h-4.37ZM267,423.12h1.14l4.37,12.82h-1.77L267,424.56h.44l-3.87,11.38h-.9Zm-2.22,7.79h5.13l.3.87H264.5Zm3.74,4.27,2.39-.28h.38l2.36.28v.76h-5.13Z"/><path class="cls-12" d="M278.83,424v-.76h5.32V424l-2.47.28h-.38Zm6.5,10.92c2.19,0,3.29-1.24,3.29-4.64v-7h.95v7.54c0,4-1.94,5.47-4.51,5.47-2.75,0-4.61-1.54-4.61-5.07V429.1c0-2,0-3.93-.06-5.88h1.83c-.06,1.91-.06,3.89-.06,5.88v1.51C282.16,433.87,283.39,434.9,285.33,434.9Zm3.42-10.64-2.09-.28v-.76h4.56V424l-2.09.28Z"/><path class="cls-12" d="M307.35,435.11a8.72,8.72,0,0,1-4.18,1.12c-3.8,0-6.38-2.83-6.38-6.65a6.29,6.29,0,0,1,6.46-6.65,7.19,7.19,0,0,1,3.81.91l.08,2.76H306l-.47-2.81,1.17.38v1.08a4.61,4.61,0,0,0-3.28-1.37c-2.66,0-4.62,2.07-4.62,5.7s1.79,5.68,4.75,5.68a6.18,6.18,0,0,0,3-.78l-.85.89v-1.1c0-1.44,0-2.92-.06-4.37h1.83c0,1.43-.06,2.89-.06,4.37Zm-3.74-4.45v-.76h4.93v.76l-2.08.19h-.38Z"/><path class="cls-12" d="M313.43,424v-.76h5.32V424l-2.47.28h-.38Zm6.5,10.92c2.19,0,3.29-1.24,3.29-4.64v-7h.95v7.54c0,4-1.94,5.47-4.5,5.47-2.76,0-4.62-1.54-4.62-5.07V429.1c0-2,0-3.93-.06-5.88h1.83c-.06,1.91-.06,3.89-.06,5.88v1.51C316.76,433.87,318,434.9,319.93,434.9Zm3.42-10.64-2.09-.28v-.76h4.56V424l-2.09.28Z"/><path class="cls-12" d="M337.86,433c0-1.23-.74-1.78-2.39-2.43l-.72-.29c-1.94-.76-3.27-1.86-3.27-3.79,0-2.19,1.84-3.52,4.26-3.52a5,5,0,0,1,3.09,1l-.11,2.47h-1.14l-.53-2.87,1.21.63v.95a3.41,3.41,0,0,0-2.64-1.24c-1.48,0-2.6.74-2.6,2.17,0,1.19.78,1.9,2.16,2.43l.75.28c2.5,1,3.47,2.07,3.47,3.86,0,2.24-1.88,3.61-4.48,3.61a7.31,7.31,0,0,1-3.69-1l.12-2.66h1.14l.49,2.93-1.23-.53V434a4.58,4.58,0,0,0,3.11,1.24C336.67,435.28,337.86,434.44,337.86,433Z"/><path class="cls-12" d="M345.47,424.17l.86-.95-.61,3.38h-1.07l.16-3.38h10.37l.15,3.38h-1.06l-.61-3.38.85.95Zm4.71,10.73,2.66.28v.76h-5.7v-.76l2.66-.28Zm-1-5.8c0-2,0-3.93-.06-5.88h1.82c0,1.91,0,3.89,0,5.88v.95c0,2,0,3.94,0,5.89h-1.82c.06-1.92.06-3.89.06-5.89Z"/><path class="cls-13" d="M217.25,460.05a5.62,5.62,0,0,1-2.79.73c-2.43,0-3.79-1.82-3.35-4.51a4.9,4.9,0,0,1,4.9-4.43,3.9,3.9,0,0,1,2.26.62l-.27,1.93h-.83l0-2,.75.22-.11.71a2.23,2.23,0,0,0-1.7-.82c-1.48,0-2.86,1.26-3.26,3.76s.47,3.8,2.05,3.81a3.44,3.44,0,0,0,1.69-.47l-.84.71.14-.87c.16-1,.31-2,.45-3h1.57c-.19,1-.36,2-.53,3Zm-2.2-3,.1-.6,3.38,0-.1.61-1.39.15h-.51Z"/><path class="cls-13" d="M225.19,456.9a4,4,0,0,1-.19.71l-4.55,0,.1-.61,2.54,0c.57,0,.75-.25.83-.72.13-.79-.26-1.33-.85-1.34s-1.39.63-1.69,2.47c-.26,1.6.35,2.39,1.39,2.4a2.32,2.32,0,0,0,1.69-.79l.29.33a3,3,0,0,1-2.64,1.48c-1.67,0-2.61-1.23-2.28-3.24a3.65,3.65,0,0,1,3.43-3.27C224.67,454.31,225.44,455.35,225.19,456.9Z"/><path class="cls-13" d="M229,460a1.37,1.37,0,0,0,.78-.31l.23.33a2,2,0,0,1-1.7.83c-1,0-1.45-.51-1.27-1.64.06-.37.12-.68.21-1.18l.44-2.74h-.88l.1-.66,1.48-.19-.66.46.92-2.15h1L229.2,455l-.66,4C228.44,459.73,228.65,460,229,460Zm1.7-5.47-.12.78-2.16,0,.12-.78Z"/><path class="cls-13" d="M237.91,457.28c.53-.17,1.37-.4,2-.53l-.08.5a11.94,11.94,0,0,0-1.66.5c-.86.34-1.18.8-1.26,1.29-.1.66.22.95.69.95.32,0,.56-.13,1.19-.56l.41-.29.11.23-.5.47c-.77.71-1.22,1.09-2,1.08a1.26,1.26,0,0,1-1.32-1.63C235.58,458.47,236.09,457.86,237.91,457.28Zm.76,2.36.5-3.07c.19-1.2,0-1.52-.8-1.53a3.66,3.66,0,0,0-1.13.2l.73-.44-.36,1c-.17.62-.5.89-.89.89a.53.53,0,0,1-.58-.59,2.64,2.64,0,0,1,2.8-1.66c1.39,0,1.88.66,1.61,2.33l-.46,2.8c-.06.41,0,.58.26.58a.6.6,0,0,0,.46-.28l.24.26a1.48,1.48,0,0,1-1.36.8C239,460.92,238.59,460.43,238.67,459.64Z"/><path class="cls-13" d="M248.12,457.59c-.26,1.55.34,2.4,1.4,2.41a2.1,2.1,0,0,0,1.64-.84l.31.28a2.79,2.79,0,0,1-2.59,1.58c-1.63,0-2.63-1.2-2.3-3.26a3.65,3.65,0,0,1,3.52-3.25,1.74,1.74,0,0,1,1.88,1.78.77.77,0,0,1-.77.57c-.43,0-.66-.29-.63-.91l0-1,.63.51a2.15,2.15,0,0,0-1.06-.31C249.26,455.13,248.39,455.9,248.12,457.59Z"/><path class="cls-13" d="M255.78,457.42c.53-.17,1.37-.4,2-.53l-.09.5a11.94,11.94,0,0,0-1.66.5c-.86.34-1.17.8-1.25,1.29-.11.66.21.95.69.95.32,0,.55-.13,1.19-.56l.41-.29.11.23-.51.48c-.76.7-1.21,1.08-2,1.07a1.26,1.26,0,0,1-1.32-1.63C253.44,458.61,254,458,255.78,457.42Zm.75,2.36.5-3.07c.2-1.2,0-1.52-.79-1.53a3.61,3.61,0,0,0-1.13.2l.72-.44-.36,1c-.16.62-.49.89-.89.89a.53.53,0,0,1-.58-.59,2.67,2.67,0,0,1,2.81-1.66c1.38,0,1.88.66,1.61,2.33l-.46,2.8c-.07.42,0,.58.26.58s.29-.09.46-.28l.24.26a1.49,1.49,0,0,1-1.37.8C256.82,461.06,256.46,460.57,256.53,459.78Z"/><path class="cls-13" d="M260.08,460.4l1.26-.25h.76l1.19.27-.09.52-3.21,0Zm1.13-2.16.11-.68c.12-.71.16-1,.22-1.55l-.83-.12.08-.48,2.13-.79.17.13-.13,1.59-.31,1.91c-.13.79-.33,2.12-.4,2.69h-1.51C260.85,460.35,261.08,459,261.21,458.24Zm1-1.71h.8l-.27.22c.52-1.39,1.43-2.13,2.13-2.13a.78.78,0,0,1,.84.7c-.12.64-.46,1-.94,1a.88.88,0,0,1-.75-.46l-.27-.4.53,0a3.83,3.83,0,0,0-1.54,1.9l-.66,0Z"/><path class="cls-13" d="M268.72,460.33a1.42,1.42,0,0,0,.78-.32l.23.33a2,2,0,0,1-1.71.83c-.95,0-1.45-.5-1.26-1.63.06-.38.12-.69.2-1.19l.45-2.74h-.89l.11-.66,1.48-.19-.66.47.91-2.16h1l-.43,2.28-.66,4.06C268.13,460,268.34,460.32,268.72,460.33Zm1.7-5.47-.13.77h-2.16l.13-.78Z"/><path class="cls-13" d="M271.43,457.94a3.58,3.58,0,0,1,3.41-3.23c1.53,0,2.69,1.21,2.35,3.28a3.52,3.52,0,0,1-3.41,3.23C272.16,461.2,271.1,460,271.43,457.94Zm4.2.05c.29-1.78,0-2.65-.89-2.66s-1.47.86-1.76,2.64,0,2.61.9,2.62S275.34,459.76,275.63,458Z"/><path class="cls-13" d="M281.89,460.57l-.09.53-2.95,0,.09-.52,1.25-.25h.58Zm-2.29.51c.12-.58.35-1.9.48-2.69l.11-.68c.11-.7.15-1,.21-1.55l-.82-.12.08-.48,2.13-.8.17.14-.11,1.46-.33,2c-.13.79-.34,2.11-.41,2.69Zm5.75-4-.22,1.35c-.13.82-.33,2.11-.4,2.69h-1.51c.12-.58.34-1.88.47-2.7l.2-1.21c.16-1,0-1.35-.61-1.35a2.81,2.81,0,0,0-1.77.9h-.33l.11-.71H282l-.53.29a3.62,3.62,0,0,1,2.63-1.56C285.13,454.79,285.61,455.5,285.35,457.08Zm-1,3.26,1.14.26-.09.53-2.95,0,.08-.52,1.24-.25Z"/><path class="cls-13" d="M291.29,458.1a3.58,3.58,0,0,1,3.42-3.23c1.53,0,2.68,1.21,2.35,3.27a3.52,3.52,0,0,1-3.41,3.23C292,461.36,291,460.15,291.29,458.1Zm4.21,0c.29-1.77,0-2.64-.9-2.65s-1.46.86-1.75,2.63,0,2.62.9,2.63S295.21,459.92,295.5,458.14Z"/><path class="cls-13" d="M302.08,460.73l-.09.53-3.29,0,.08-.52,1.3-.25h.74Zm-1.68-4.86h-.88l.11-.66L301,455l-.54.28a5,5,0,0,1,1.38-2.77,2.89,2.89,0,0,1,2-.81c.61,0,1.12.23,1.15.82a.87.87,0,0,1-.9.7c-.35,0-.62-.2-.86-.65l-.36-.46,1.13-.26.14.38a.74.74,0,0,0-.41-.16,1.45,1.45,0,0,0-1.05.67,6.12,6.12,0,0,0-.82,2.93l-.46,2.86c-.15.9-.28,1.8-.41,2.7h-1.51q.25-1.35.48-2.7Zm3-.75-.13.77h-2.16l.12-.78Z"/><path class="cls-13" d="M261.21,485.81l-.08.53-3.3,0,.09-.52,1.3-.25H260ZM259.54,481h-.88l.1-.66,1.42-.18-.55.28a5,5,0,0,1,1.39-2.77,2.87,2.87,0,0,1,2-.81c.61,0,1.11.23,1.15.82a.87.87,0,0,1-.9.7c-.35,0-.62-.2-.86-.65l-.36-.46,1.13-.26.14.38a.74.74,0,0,0-.41-.16,1.41,1.41,0,0,0-1.05.67,6,6,0,0,0-.82,2.93l-.47,2.86c-.14.9-.28,1.8-.4,2.7h-1.51q.25-1.35.48-2.7Zm3-.75-.12.77h-2.16l.12-.78Z"/><path class="cls-13" d="M263.34,483.28a3.59,3.59,0,0,1,3.41-3.23c1.53,0,2.69,1.21,2.36,3.27a3.52,3.52,0,0,1-3.42,3.23C264.07,486.54,263,485.33,263.34,483.28Zm4.21.05c.28-1.78-.05-2.65-.9-2.66s-1.46.86-1.75,2.63,0,2.62.9,2.63S267.26,485.1,267.55,483.33Z"/><path class="cls-13" d="M270.86,485.89l1.26-.25h.76l1.19.26-.09.53-3.21,0Zm1.13-2.17.11-.67c.12-.71.16-1,.22-1.55l-.83-.12.08-.48,2.13-.8.17.14-.13,1.59-.31,1.91c-.13.79-.33,2.11-.4,2.69h-1.51C271.63,485.84,271.86,484.52,272,483.72Zm1-1.7h.79l-.26.22c.52-1.38,1.43-2.13,2.13-2.12a.78.78,0,0,1,.84.7c-.12.64-.46,1-.94,1a.88.88,0,0,1-.75-.46l-.27-.4.53,0a3.79,3.79,0,0,0-1.54,1.9l-.66-.06Z"/><path class="cls-13" d="M283.45,485.84a1.33,1.33,0,0,0,.79-.31l.23.33a2,2,0,0,1-1.71.83c-1,0-1.45-.5-1.27-1.63.06-.38.13-.69.21-1.19l.44-2.74h-.88l.11-.66,1.48-.19-.66.47.91-2.16h1l-.43,2.28-.67,4.06C282.86,485.56,283.07,485.84,283.45,485.84Zm1.71-5.46-.13.77-2.16,0,.12-.77Z"/><path class="cls-13" d="M288.6,486l-.09.52-2.95,0,.09-.53,1.25-.24h.58Zm-.9-7.7-.85-.13.08-.5,2.23-.56.16.12-.34,1.81-.43,2.62v.17l-.32,2c-.13.8-.33,2.12-.41,2.7h-1.51c.12-.58.35-1.9.48-2.7Zm4.4,4.21-.22,1.34c-.13.82-.33,2.12-.4,2.7l-1.51,0c.12-.57.34-1.87.47-2.69l.2-1.21c.17-1,0-1.35-.6-1.35a2.71,2.71,0,0,0-1.76.94h-.34l.12-.75h.7l-.55.3a3.55,3.55,0,0,1,2.63-1.56C291.88,480.25,292.36,481,292.1,482.54Zm-1,3.25,1.14.27-.09.52-2.95,0,.09-.53,1.23-.24Z"/><path class="cls-13" d="M299.47,482.89a2.78,2.78,0,0,1-.19.71l-4.54,0,.1-.61,2.54,0c.57,0,.75-.25.83-.72.13-.79-.26-1.33-.85-1.34s-1.4.63-1.7,2.47c-.26,1.6.36,2.39,1.4,2.4a2.28,2.28,0,0,0,1.69-.79l.29.33a3,3,0,0,1-2.64,1.48c-1.67,0-2.61-1.23-2.29-3.25a3.67,3.67,0,0,1,3.44-3.26C299,480.3,299.73,481.34,299.47,482.89Z"/><path class="cls-13" d="M306.09,481.28l-1.13-.22.08-.53,2.93,0-.09.53-1.36.19Zm4.33-.71.79,4.77-.28-.08,2.13-4.66h.76l-3,6.18h-.66a44.25,44.25,0,0,1-.84-5.12l.48,0-2.58,5.14h-.66l-1.12-6.21H307l.66,4.76-.25-.07,2.3-4.67Zm-1.86.52.08-.53,2.78,0-.09.53-1.17.2h-.38Zm4.45.23-1-.2.09-.53h2.18l-.09.53-.94.19Z"/><path class="cls-13" d="M320.34,483.06a3.33,3.33,0,0,1-.19.7l-4.55,0,.1-.61,2.54,0a.72.72,0,0,0,.83-.73c.13-.79-.25-1.33-.84-1.33s-1.4.62-1.7,2.47c-.26,1.59.35,2.39,1.39,2.39a2.29,2.29,0,0,0,1.69-.78l.29.33a3,3,0,0,1-2.63,1.47c-1.68,0-2.62-1.23-2.29-3.24a3.66,3.66,0,0,1,3.44-3.26C319.82,480.47,320.59,481.51,320.34,483.06Z"/><path class="cls-13" d="M327.29,483.11a3.32,3.32,0,0,1-.18.71l-4.55,0,.1-.61,2.54,0c.57,0,.75-.25.83-.72.13-.79-.26-1.33-.85-1.34s-1.39.63-1.7,2.47c-.26,1.6.36,2.39,1.4,2.4a2.32,2.32,0,0,0,1.69-.79l.29.33a3,3,0,0,1-2.64,1.48c-1.67,0-2.61-1.23-2.29-3.24a3.67,3.67,0,0,1,3.44-3.27C326.78,480.52,327.55,481.56,327.29,483.11Z"/><path class="cls-13" d="M331.44,486.37l-.09.52-3.09,0,.08-.53,1.28-.24h.58Zm.49-8.89.16.12-.34,1.8-.77,4.74c-.15.88-.32,2-.41,2.75l-1.51,0c.14-.72.34-1.86.47-2.69l.9-5.51-.85-.13.09-.5Zm3.1,3.29-5,4.41.12-.76,4-3.66ZM333.45,486l1.4.35-.08.53-2,0-1.17-3.39,1.17-1,1.53,4.21Zm.24-4.49-1.1-.27.08-.53,2.79,0-.09.53-1.36.2Z"/><path class="cls-13" d="M337,483.2l2.92,0-.16,1-2.92,0Z"/><path class="cls-13" d="M347.16,483.27a3.16,3.16,0,0,1-.19.7l-4.54,0,.09-.61,2.54,0a.72.72,0,0,0,.83-.73c.13-.78-.25-1.33-.84-1.33s-1.4.63-1.7,2.47c-.26,1.6.35,2.39,1.4,2.4a2.29,2.29,0,0,0,1.68-.79l.3.33a3,3,0,0,1-2.64,1.47c-1.67,0-2.62-1.23-2.29-3.24a3.66,3.66,0,0,1,3.44-3.26C346.64,480.68,347.41,481.72,347.16,483.27Z"/><path class="cls-13" d="M351.26,486.52l-.08.53-2.95,0,.08-.52,1.25-.25h.58ZM349,487c.12-.58.34-1.9.47-2.69l.11-.68c.12-.7.16-1,.22-1.55L349,482l.08-.48,2.13-.79.17.13-.12,1.46-.33,2c-.13.79-.33,2.12-.4,2.69Zm5.74-4-.21,1.34c-.14.82-.34,2.11-.41,2.69h-1.51c.12-.58.34-1.87.48-2.69l.2-1.22c.16-1,0-1.34-.62-1.35a2.83,2.83,0,0,0-1.77.9h-.33l.12-.7h.71l-.53.29a3.58,3.58,0,0,1,2.63-1.56C354.51,480.74,355,481.45,354.72,483Zm-1,3.25,1.14.26-.08.53-3,0,.09-.52,1.24-.25Z"/><path class="cls-13" d="M359.32,486.38c.6,0,1.07-.36,1.64-1.05l.08.28a2.85,2.85,0,0,1-2.44,1.68c-1.41,0-2.21-1.24-1.89-3.22s1.72-3.3,3.12-3.29c.87,0,1.33.47,1.74,1.55l-.16.29c-.47-.67-.84-.93-1.31-.93-.81,0-1.59.73-1.86,2.37S358.48,486.37,359.32,486.38Zm3.24.23-.08.53-2.11.12.06-1.23.66-4,.07-.15.48-2.95-.91-.14.08-.49,2.28-.57.16.12-.34,1.81-1.22,7.48-.37-.8Z"/><path class="cls-13" d="M316.85,448.7l.23.61a6.11,6.11,0,0,0-2.39,2.75l.14-1,.81.82a1.48,1.48,0,0,1,.45,1.39,1.39,1.39,0,0,1-1.37,1.25,1.32,1.32,0,0,1-1-.45,3.29,3.29,0,0,1-.07-1.44A5.78,5.78,0,0,1,316.85,448.7Zm3.63,0,.23.61a6.05,6.05,0,0,0-2.39,2.75l.14-1,.81.83a1.48,1.48,0,0,1,.45,1.39,1.37,1.37,0,0,1-1.37,1.24,1.28,1.28,0,0,1-1-.44,3.3,3.3,0,0,1-.07-1.44A5.78,5.78,0,0,1,320.48,448.73Z"/><path class="cls-13" d="M322.69,461.53l-.19,1.16-2.63,0,.15-.88,2.44-.26Zm.65-11.28h2.37c-.36,1.92-.68,3.87-1,5.82l-.18,1.14c-.27,1.63-.59,3.58-.84,5.48l-2.37,0c.36-1.91.68-3.86,1-5.61l.17-1C322.77,454.1,323.08,452.15,323.34,450.25Zm-1.59.87.15-.89,5.33,0-.15.88-2.47.26h-.5Zm7.74,8-.76,3.6-6.23-.05.17-1,5.63,0-1.31,1,1.28-3.6Z"/><path class="cls-13" d="M332.38,451.2l.14-.88,5.3,0-.15.88-2.48.26h-.42ZM337,461.61c1.78,0,2.95-1.15,3.45-4.23l1.13-7h1l-1.17,7.22c-.65,4-2.65,5.52-5.28,5.5s-4.11-1.48-3.53-5l.33-2c.31-1.89.62-3.82.88-5.72l2.36,0c-.35,1.86-.67,3.79-1,5.71l-.24,1.46C334.51,460.57,335.32,461.6,337,461.61Zm4.6-10.11-1.85-.24.15-.88,4.17,0-.14.88-1.89.21Z"/><path class="cls-13" d="M353.66,461.12l-.16,1-1.17.26,1-2.85h1.2l-.53,2.8a7.84,7.84,0,0,1-3.75.9c-3.44,0-5.59-2.48-4.92-6.58s3.76-6.52,7.1-6.49a5.72,5.72,0,0,1,3.25.94l-.39,2.82h-1.2L354,451l1.08.29-.18,1.08a3,3,0,0,0-2.36-1.24c-2.1,0-4.16,1.77-4.77,5.51s.74,5.54,2.87,5.55A5,5,0,0,0,353.66,461.12Z"/><path class="cls-13" d="M359,461.82l2.22.3-.14.88L356,463l.15-.88,2.45-.26Zm-.45-5.48c.32-1.93.63-3.88.9-5.81l2.27,0c-.36,1.89-.68,3.84-1,5.81l-.18,1.12c-.26,1.63-.58,3.58-.84,5.51l-2.28,0c.36-1.89.68-3.84,1-5.81Zm-.69-4.94.14-.88,5.2,0-.14.88-2.41.27h-.43Zm1.43,7.25,7.46-8.06h1.18l-8.84,9.32Zm4.25-4L366.4,463,364,463l-2.1-6.62Zm-1,7.51,2.26-.27h.34l2.15.3-.15.88-4.75,0Zm2.06-10.68.14-.88,4,0-.14.89-2,.26-.44.06Z"/><path class="cls-13" d="M371.69,461.92l2.38.3-.14.88-5.27,0,.15-.88,2.45-.26Zm-.45-5.48c.31-1.93.63-3.88.89-5.81l2.37,0c-.36,1.89-.68,3.84-1,5.81l-.13.81c-.31,1.94-.63,3.89-.89,5.82l-2.37,0c.36-1.89.68-3.84,1-5.81Zm-.69-4.94.14-.88,5.26,0-.14.88-2.47.27h-.44Z"/><path class="cls-13" d="M379.18,462l-.19,1.16-2.63,0,.14-.88L379,462Zm-.24-5.47c.31-1.93.63-3.89.89-5.82l2.37,0c-.36,1.89-.68,3.84-1,5.81l-.11.67c-.34,2.08-.65,4-.92,6l-2.36,0c.36-1.89.68-3.84,1-5.81Zm-.7-4.95.15-.88,2.63,0-.19,1.16h-.23Zm7.92,8.35-.65,3.28-6.52-.05.16-1,5.92.05-1.19,1,1.06-3.28Zm-2.32-2.63-3.89,0,.16-1,3.89,0Zm1.72-6.54.86,1-5.57-.05.17-1,6.16.05-.41,3.28h-1.22Zm-2.14,5.81.57-1.89h.9l-.69,4.24h-.9l.06-2Z"/><path class="cls-13" d="M393.36,460.51c.18-1.1-.3-1.6-1.49-2.18l-.65-.33c-1.78-.9-2.8-2-2.48-4,.36-2.21,2.27-3.54,4.71-3.52a4.52,4.52,0,0,1,2.92,1l-.54,2.53H394.5v-2.83l1.17.59-.15.93a2.92,2.92,0,0,0-2.27-1.18,2.3,2.3,0,0,0-2.4,1.9c-.18,1.09.36,1.7,1.43,2.22l.69.35c2.1,1,2.83,2.1,2.53,3.93-.36,2.21-2.25,3.66-4.94,3.64a6,6,0,0,1-3.43-1l.55-2.7H389l0,3-1.16-.5.14-.9a4,4,0,0,0,2.73,1.12A2.45,2.45,0,0,0,393.36,460.51Z"/><path class="cls-13" d="M398.06,455.13l-.23-.61a6.05,6.05,0,0,0,2.39-2.75l-.14,1.05-.81-.82a1.49,1.49,0,0,1-.45-1.4,1.37,1.37,0,0,1,1.37-1.24,1.28,1.28,0,0,1,1,.44,3.3,3.3,0,0,1,.07,1.44A5.78,5.78,0,0,1,398.06,455.13Zm3.63,0-.23-.61a6.11,6.11,0,0,0,2.39-2.75l-.14,1.05-.81-.83a1.47,1.47,0,0,1-.45-1.39,1.37,1.37,0,0,1,1.37-1.24,1.28,1.28,0,0,1,1,.44,3.3,3.3,0,0,1,.07,1.44A5.78,5.78,0,0,1,401.69,455.16Z"/><polygon class="cls-14" points="110.55 520.75 110.55 567.81 132.29 567.81 132.29 558.64 122.15 558.64 122.15 520.75 110.55 520.75"/><path class="cls-14" d="M138.21,520.75v30.39A17.65,17.65,0,0,0,150,568a13.77,13.77,0,0,0,11.46-1,16.41,16.41,0,0,0,8.26-14.44V520.75H157.93v33a6.22,6.22,0,0,1-2,4.68c-1.12,1-2.65,1.5-4.39-.21a6.46,6.46,0,0,1-1.83-4.62V520.75Z"/><path class="cls-14" d="M204.65,567.09c-27.14,11.75-32.71-26.22-22.66-38.75s23.13-5.42,23.13-5.42l.39,10.44S188,523.46,188,544.77c0,23.55,17.1,12.18,17.1,12.18Z"/><polygon class="cls-14" points="212.93 521.61 212.93 568.78 224.53 568.78 224.53 557.8 226.78 552.78 234.12 568.78 245.18 568.78 232.73 542.1 245.18 521.61 232.42 521.61 223.99 537.15 223.99 521.61 212.93 521.61"/><rect class="cls-14" x="251.91" y="521.61" width="10.6" height="47.18"/><polygon class="cls-14" points="274.73 521.61 274.73 568.78 293.68 568.78 293.68 559.82 284.21 559.82 284.21 549.61 293.68 549.61 293.68 540.17 284.21 540.17 284.21 530.35 293.68 530.35 293.68 520.91 274.73 520.91 274.73 521.61"/><path class="cls-14" d="M328.1,523.69l-3.79,7.74s-14.65-4.41-10,5.72c1.73,3.79,18.75,9.59,12.95,23.05s-19.8,9.44-25.76,5.26l4.33-8s8.46,5.4,11.53.38c5.1-8.35-19.5-13.8-13.77-29.31C308.3,515.8,328.1,523.69,328.1,523.69Z"/><polygon class="cls-15" points="110.55 589.63 110.55 594.46 114.81 594.46 114.81 615.11 121.42 615.11 121.42 594.39 125.33 594.39 125.33 589.63 110.55 589.63"/><path class="cls-15" d="M127.88,615.11l6.84-25.48h6l7,25.48h-5.43l-1.61-3.29-6.1-.13-.87,3.42Zm9.59-17.62-2.21,8.38h4.83Z"/><path class="cls-15" d="M165.19,590.76l-2,4.11s-7.79-2.34-5.32,3c.92,2,10,5.1,6.89,12.26s-10.54,5-13.71,2.8l2.31-4.24s4.5,2.88,6.13.21c2.72-4.45-10.38-7.35-7.33-15.6C154.66,586.56,165.19,590.76,165.19,590.76Z"/><polygon class="cls-15" points="169.68 589.63 169.68 594.46 173.94 594.46 173.94 615.11 180.55 615.11 180.55 594.39 184.47 594.39 184.47 589.63 169.68 589.63"/><polygon class="cls-15" points="189.22 590.55 189.22 615.11 199.09 615.11 199.09 610.44 194.16 610.44 194.16 605.13 199.09 605.13 199.09 600.21 194.16 600.21 194.16 595.1 199.09 595.1 199.09 590.19 189.22 590.19 189.22 590.55"/><path class="cls-15" d="M227,589.6a8.41,8.41,0,0,1,4.3,1.19A5,5,0,0,1,234,595c0,5.4-3.94,7.1-3.94,7.1s3.94,1.72,3.94,5.46c0,5.92-5.71,7.56-5.71,7.56h-9.14V589.45Zm-2.45,3.94v5.6s3.67.53,3.72-2.4S226.43,593.49,224.54,593.54Zm0,10.76v5.6s3.67.53,3.72-2.41S226.43,604.25,224.54,604.3Z"/><polygon class="cls-15" points="240.25 590.55 240.25 615.11 250.12 615.11 250.12 610.44 245.18 610.44 245.18 605.13 250.12 605.13 250.12 600.21 245.18 600.21 245.18 595.1 250.12 595.1 250.12 590.19 240.25 590.19 240.25 590.55"/><polygon class="cls-15" points="293.68 590.55 293.68 615.11 303.54 615.11 303.54 610.44 298.61 610.44 298.61 605.13 303.54 605.13 303.54 600.21 298.61 600.21 298.61 595.1 303.54 595.1 303.54 590.19 293.68 590.19 293.68 590.55"/><polygon class="cls-15" points="255.21 589.63 255.21 594.46 259.47 594.46 259.47 615.11 266.08 615.11 266.08 594.39 269.99 594.39 269.99 589.63 255.21 589.63"/><polygon class="cls-15" points="274.2 589.63 274.2 594.46 278.47 594.46 278.47 615.11 285.08 615.11 285.08 594.39 288.99 594.39 288.99 589.63 274.2 589.63"/><path class="cls-15" d="M311,589.1s3.56-.05,7.76,0,7.13,1,7.62,7-4.12,7.23-4.12,7.23v.8l5,11h-6.1L316.9,604.3h-1v10.81H311v-26Zm5.6,4.44v5.6s3.67.53,3.72-2.4S318.47,593.49,316.58,593.54Z"/><path class="cls-16" d="M205.9,259.73s0-11.1,10.68-9.18c0,0-4.25-2.44-8.41-.22C204.56,252.26,205.9,259.73,205.9,259.73Z"/><path class="cls-16" d="M394.92,259.79s0-11.1,10.69-9.18c0,0-4.25-2.44-8.41-.22C393.58,252.32,394.92,259.79,394.92,259.79Z"/></g><g id="top_face" data-name="top face"><path class="cls-17" d="M420.6,521.61l-3.51,8.49-1.55,3.75-47,113.6a.11.11,0,0,0,.09.14l105.06,14.92,50.32-125.22a.1.1,0,0,0-.08-.13Z"/><path class="cls-18" d="M481.35,556.17a44.24,44.24,0,0,0-39.64-5.79c-13.11,4.27-29.69,14.68-36.78,33.74-6.38,17.17-.27,28.37,7.44,35.29a38.18,38.18,0,0,0,31,9c14.3-2.1,36.73-9.56,47.68-36.66C495.93,579.72,490.81,563,481.35,556.17Z"/><path class="cls-19" d="M482.42,554.92c-11.92-8.63-27.39-10.61-41.38-6-13.68,4.46-31,15.32-38.4,35.23-6.66,17.92-.27,29.61,7.77,36.83a39.8,39.8,0,0,0,32.38,9.39c14.94-2.18,38.34-10,49.77-38.26C497.64,579.5,492.29,562.06,482.42,554.92Z"/><path class="cls-3" d="M472.42,563.16a34.68,34.68,0,0,0-31.06-4.54c-10.27,3.35-23.26,11.51-28.81,26.44-5,13.45-.21,22.23,5.83,27.65a29.87,29.87,0,0,0,24.3,7c11.21-1.64,28.77-7.49,37.35-28.72C483.84,581.61,479.83,568.52,472.42,563.16Z"/><path class="cls-20" d="M430.75,567.43l-4.83,11.42s.33,3.38,6,3.38l1.21-2.89-3.58-1,4.86-10.94Z"/><path class="cls-20" d="M439,568.19l-4.1,8.51s-1.78,6,2.05,6.81,6.82-2.89,6.82-2.89l4.58-10.92-2.71-.4L440.87,580s-3.21,1.6-2.67-1.61,3.43-9.44,3.43-9.44Z"/><path class="cls-20" d="M458.2,571.44a5.59,5.59,0,0,0-6.37-.31c-3.39,2.14-6.33,8.49-5.75,11.1s3.89,3.46,6,2.57l1.95-3.16s-5.74,1.47-4.32-3.65,5.66-5.61,7.31-4.32l.67.49Z"/><path class="cls-20" d="M460.18,571s-3.61,12.21-6.15,14.14l3.87.51,2.28-4,1.6.18v4s.76,1,3.7.66l-1.16-8.15-.05-1.2L469,573l-2.1-1.65-2.85,2.81-1-.31.94-2.14Z"/><path class="cls-20" d="M469.42,572.2v8.68l-2.14,5s-.58.84,1.65,1.15,2-1.38,2-1.38l2.49-5.74,5.39-6.19-3.52-.49L473,576.07v-3.52Z"/><path class="cls-20" d="M425.73,590s-2.5-2-4.23-.76,1.91,3.3,1.91,3.3,3.07,3.43-1.07,6.86-8.24-.32-8.24-.32l.85-3.29s4,2.27,5,1c1.89-2.4-3.06-3.6-3-6.1s4.06-6.87,9.85-4.12Z"/><path class="cls-20" d="M427.24,586.9l8.33.93-.8,2.9H432.5L428,601.82s-3.07-.49-2.85-1.83,3.88-10.07,3.88-10.07l-2.81-.26Z"/><path class="cls-20" d="M431.43,600.81s3.83-4,4.76-12.67c0,0,9.43-.44,9.82,2.36s-1.84,5.39-3.76,6.19-.36,6.46-.36,6.46l-3.15.18-.54-4.54-1-.23-2.4,3.48A6.69,6.69,0,0,1,431.43,600.81Zm7.7-9.42-.84,3s3.66-.11,3.77-1.4C442.29,590.38,439.13,591.39,439.13,591.39Z"/><path class="cls-20" d="M448.35,589.88l-5.25,12.69s1.54,1.92,2.91,1.29,6.09-13.49,6.09-13.49A4.41,4.41,0,0,0,448.35,589.88Z"/><path class="cls-20" d="M453.77,590s-3.6,12.22-6.14,14.15l3.87.5,2.27-4,1.61.18v4s.76,1,3.69.67l-1.15-8.15-.05-1.2,4.77-4.15-2.1-1.64-2.85,2.8-1-.31.94-2.14Z"/><path class="cls-20" d="M464.92,591.53l-5.48,13.23s-.85,2.36,7.77,2.22l1.45-3.38s-3.58.71-4.62-1.29l.21-1.5,5.12.34s1.87-3.09-.31-3.35a7.82,7.82,0,0,1-2.46-.47s-.9-1.82.18-2.16,5.73.11,5.73.11l.48-2.5S471.09,591.94,464.92,591.53Z"/><polyline class="cls-3" points="521.4 543.91 417.09 530.1 415.54 533.85 519.99 547.4 528.11 569.08 529.59 565.4 521.4 543.91"/><polygon class="cls-1" points="447.19 525.61 441.42 541.18 488.08 548.1 492.93 532.67 447.19 525.61"/></g><g id="right_face" data-name="right face"><path id="right_face-2" data-name="right face" class="cls-21" d="M524.19,537.43l7.7,22.26-3.78,9.39-45.67,113.4a.14.14,0,0,1-.26,0l-8.44-20L520,547.4l4-10A.1.1,0,0,1,524.19,537.43Z"/></g><g id="bottom_face" data-name="bottom face"><path id="bottomface" class="cls-22" d="M368.66,647.74l13.93,19.66,99.56,15.31a.23.23,0,0,0,.25-.32l-8.66-19.88-105-14.91A.09.09,0,0,0,368.66,647.74Z"/><path class="cls-23" d="M396.05,660.82l6.56-5.68s1.66.07,1.28.55-5.13,4.6-5.13,4.6a5.81,5.81,0,0,0,2.6.76c1.28,0-.44,1.32-1.36,1.25S396.7,662.1,396.05,660.82Z"/><path class="cls-23" d="M413.93,659.07s2.23-1.38,1.38-2.08-3.19-.85-5.45,1.07a1.72,1.72,0,0,0-.3,2.23,5.19,5.19,0,0,0,.57.73c.87.93-2.66,2-1.83.78s-1.35-.53-1.35-.53-2.56,2.73,1.75,2.7,3.18-3.28,3.18-3.28S410.45,657.14,413.93,659.07Z"/><path class="cls-23" d="M413.56,665.16s9.41-7,13.14-8.32-11.2,8.06-11.2,8.06S414.16,665.67,413.56,665.16Z"/><path class="cls-23" d="M420.29,664.23l7-4.71s2.11-.58,1.23.57-1.18,2.1-.83,2.42,2.48-1.2,3.51-1.89a4,4,0,0,1,1.28-.56c1.19-.27,3-1,1.55.58-2,2.11-5.51,5.46-5.51,5.46s-1.6.15.23-1.85-3.08,1.23-3.08,1.23-2.33.3-.28-1.88-3.61,1.73-3.61,1.73S420.52,666.05,420.29,664.23Z"/><path class="cls-23" d="M434.19,666.78l4.73-4.41s-.9-1.07-.12-1.12,7.53,0,6.86,1.26-4.13.23-4.13.23l-1.58.83s3.08,1.28,1.9,1.31-3.53.12-4.66,1S436,668.16,434.19,666.78Z"/><path class="cls-23" d="M448.29,662.4l6.58.62s2.53,1.78-.22,1.78a23.81,23.81,0,0,1-3.36-.12s-4,4.63-5,4.33-2.39-.43-.61-2.18a27.13,27.13,0,0,1,3.23-2.75S445,662.45,448.29,662.4Z"/><circle class="cls-23" cx="403.38" cy="662.12" r="0.57"/><circle class="cls-23" cx="412.68" cy="663.48" r="0.57"/><circle class="cls-23" cx="431.75" cy="666.11" r="0.57"/><circle class="cls-23" cx="441.73" cy="667.62" r="0.57"/><circle class="cls-23" cx="451.18" cy="669.1" r="0.57"/><polygon class="cls-24" points="368.74 647.6 394.3 665.34 457.48 674.67 473.74 662.51 368.74 647.6"/><line class="cls-24" x1="382.59" y1="667.4" x2="385.71" y2="659.37"/><line class="cls-22" x1="462.64" y1="670.81" x2="482.4" y2="682.39"/></g><g id="cigs"><path id="cig4" class="cls-17" d="M527.64,547.4l4.25,12.29L540,538.38s-3.16-5.16-7-5.13Z"/><path id="cig3" class="cls-25" d="M514.6,535.75l9.4,1.68,3.64,10L535.69,526s2-8.78-14.36-8Z"/><path id="cig2" class="cls-26" d="M514.6,535.75l8.91-23.48s1.28-6.92-7.15-8.12-9,2-9,2L498,533.25Z"/><path id="cig1" class="cls-22" d="M486.9,531.58l7.61-17.68s10.48-1,9.59,1.53S498,533.25,498,533.25Z"/></g><g id="Cleaner_Frsher_Smoother" data-name="Cleaner Frsher Smoother"><text class="cls-27" transform="translate(80.75 652.68) rotate(-8.12)">Cleaner</text><text class="cls-27" transform="translate(168.1 666.44) rotate(-8.12)">Fresher</text><text class="cls-27" transform="translate(253.75 678.43) rotate(-8.12)">Smoother</text><path class="cls-8" d="M167,645.19s-53.38,10.12-69,12.88,14.07,1.19,36.17-3.55S169.22,646.24,167,645.19Z"/><path class="cls-8" d="M185.53,671.09s61.68-15.65,70.49-16S193.4,673.61,185.53,671.09Z"/><path class="cls-8" d="M273.23,685.43s43.32-13.77,71.6-16.27C361.74,667.66,273.23,685.43,273.23,685.43Z"/></g></svg>