<?xml version="1.0" encoding="UTF-8" standalone="no"?>
<!DOCTYPE svg PUBLIC "-//W3C//DTD SVG 1.1//EN"
 "http://www.w3.org/Graphics/SVG/1.1/DTD/svg11.dtd">
<!-- Generated by graphviz version 2.43.0 (0)
 -->
<!-- Title: %3 Pages: 1 -->
<svg width="291pt" height="116pt"
 viewBox="0.00 0.00 291.20 116.00" xmlns="http://www.w3.org/2000/svg" xmlns:xlink="http://www.w3.org/1999/xlink">
<g id="graph0" class="graph" transform="scale(1 1) rotate(0) translate(4 112)">
<title>%3</title>
<!-- Start -->
<!-- FAFB -->
<g id="node5" class="node start">
<title>FAFB</title>
<path fill="#586e75" stroke="#586e75" d="M102.6,-108C102.6,-108 52.6,-108 52.6,-108 46.6,-108 40.6,-102 40.6,-96 40.6,-96 40.6,-84 40.6,-84 40.6,-78 46.6,-72 52.6,-72 52.6,-72 102.6,-72 102.6,-72 108.6,-72 114.6,-78 114.6,-84 114.6,-84 114.6,-96 114.6,-96 114.6,-102 108.6,-108 102.6,-108"/>
<text text-anchor="middle" x="77.6" y="-86.3" font-family="Inter,Arial" font-size="14.00" fill="#ffffff">F[A]×F[B]</text>
</g>
<!-- Start&#45;&gt;FAFB -->
<g id="edge5" class="edge start">
<title>Start&#45;&gt;FAFB</title>
<path fill="none" stroke="#586e75" stroke-width="2" d="M3.63,-90C6.65,-90 17.57,-90 30.07,-90"/>
<polygon fill="#586e75" stroke="#586e75" stroke-width="2" points="30.32,-93.5 40.32,-90 30.32,-86.5 30.32,-93.5"/>
</g>
<!-- Goal -->
<!-- AB -->
<!-- C -->
<!-- AB&#45;&gt;C -->
<!-- FAFB&#45;&gt;AB -->
<!-- FC -->
<!-- FAFB&#45;&gt;FC -->
<!-- FC&#45;&gt;Goal -->
<!-- FC&#45;&gt;C -->
</g>
</svg>
