<?xml version="1.0" encoding="UTF-8" standalone="no"?>
<!DOCTYPE svg PUBLIC "-//W3C//DTD SVG 1.1//EN"
 "http://www.w3.org/Graphics/SVG/1.1/DTD/svg11.dtd">
<!-- Generated by graphviz version 2.43.0 (0)
 -->
<!-- Title: %3 Pages: 1 -->
<svg width="291pt" height="116pt"
 viewBox="0.00 0.00 291.20 116.00" xmlns="http://www.w3.org/2000/svg" xmlns:xlink="http://www.w3.org/1999/xlink">
<g id="graph0" class="graph" transform="scale(1 1) rotate(0) translate(4 112)">
<title>%3</title>
<!-- Start -->
<!-- FAFB -->
<g id="node5" class="node start,disabled">
<title>FAFB</title>
<path fill="#d0dce3" stroke="#d0dce3" d="M102.6,-108C102.6,-108 52.6,-108 52.6,-108 46.6,-108 40.6,-102 40.6,-96 40.6,-96 40.6,-84 40.6,-84 40.6,-78 46.6,-72 52.6,-72 52.6,-72 102.6,-72 102.6,-72 108.6,-72 114.6,-78 114.6,-84 114.6,-84 114.6,-96 114.6,-96 114.6,-102 108.6,-108 102.6,-108"/>
<text text-anchor="middle" x="77.6" y="-86.3" font-family="Inter,Arial" font-size="14.00" fill="#ffffff">F[A]×F[B]</text>
</g>
<!-- Start&#45;&gt;FAFB -->
<g id="edge5" class="edge start,disabled">
<title>Start&#45;&gt;FAFB</title>
<path fill="none" stroke="#d0dce3" stroke-width="2" d="M3.63,-90C6.65,-90 17.57,-90 30.07,-90"/>
<polygon fill="#d0dce3" stroke="#d0dce3" stroke-width="2" points="30.32,-93.5 40.32,-90 30.32,-86.5 30.32,-93.5"/>
</g>
<!-- Goal -->
<!-- AB -->
<g id="node3" class="node">
<title>AB</title>
<path fill="#ffffff" stroke="#586e75" d="M92.6,-36C92.6,-36 62.6,-36 62.6,-36 56.6,-36 50.6,-30 50.6,-24 50.6,-24 50.6,-12 50.6,-12 50.6,-6 56.6,0 62.6,0 62.6,0 92.6,0 92.6,0 98.6,0 104.6,-6 104.6,-12 104.6,-12 104.6,-24 104.6,-24 104.6,-30 98.6,-36 92.6,-36"/>
<text text-anchor="middle" x="77.6" y="-14.3" font-family="Inter,Arial" font-size="14.00" fill="#586e75">A×B</text>
</g>
<!-- C -->
<g id="node4" class="node">
<title>C</title>
<path fill="#ffffff" stroke="#586e75" d="M230.6,-36C230.6,-36 200.6,-36 200.6,-36 194.6,-36 188.6,-30 188.6,-24 188.6,-24 188.6,-12 188.6,-12 188.6,-6 194.6,0 200.6,0 200.6,0 230.6,0 230.6,0 236.6,0 242.6,-6 242.6,-12 242.6,-12 242.6,-24 242.6,-24 242.6,-30 236.6,-36 230.6,-36"/>
<text text-anchor="middle" x="215.6" y="-14.3" font-family="Inter,Arial" font-size="14.00" fill="#586e75">C</text>
</g>
<!-- AB&#45;&gt;C -->
<g id="edge2" class="edge">
<title>AB&#45;&gt;C</title>
<path fill="none" stroke="#586e75" d="M104.82,-18C125.71,-18 155.17,-18 178.32,-18"/>
<polygon fill="#586e75" stroke="#586e75" points="178.46,-21.5 188.46,-18 178.46,-14.5 178.46,-21.5"/>
<text text-anchor="middle" x="151.6" y="-21.2" font-family="Inter,Arial" font-size="11.00" fill="#586e75">f</text>
</g>
<!-- FAFB&#45;&gt;AB -->
<g id="edge3" class="edge lift">
<title>FAFB&#45;&gt;AB</title>
<path fill="none" stroke="#586e75" stroke-dasharray="5,2" d="M77.6,-61.92C77.6,-53.37 77.6,-44.83 77.6,-36.28"/>
<polygon fill="#586e75" stroke="#586e75" points="74.1,-61.95 77.6,-71.95 81.1,-61.95 74.1,-61.95"/>
</g>
<!-- FC -->
<g id="node6" class="node goal,disabled">
<title>FC</title>
<path fill="#d0dce3" stroke="#d0dce3" d="M230.6,-108C230.6,-108 200.6,-108 200.6,-108 194.6,-108 188.6,-102 188.6,-96 188.6,-96 188.6,-84 188.6,-84 188.6,-78 194.6,-72 200.6,-72 200.6,-72 230.6,-72 230.6,-72 236.6,-72 242.6,-78 242.6,-84 242.6,-84 242.6,-96 242.6,-96 242.6,-102 236.6,-108 230.6,-108"/>
<text text-anchor="middle" x="215.6" y="-86.3" font-family="Inter,Arial" font-size="14.00" fill="#ffffff">F[C]</text>
</g>
<!-- FAFB&#45;&gt;FC -->
<!-- FC&#45;&gt;Goal -->
<g id="edge6" class="edge goal,disabled">
<title>FC&#45;&gt;Goal</title>
<path fill="none" stroke="#d0dce3" stroke-width="2" d="M242.92,-90C252.17,-90 262.07,-90 269.37,-90"/>
<polygon fill="#d0dce3" stroke="#d0dce3" stroke-width="2" points="269.51,-93.5 279.51,-90 269.51,-86.5 269.51,-93.5"/>
</g>
<!-- FC&#45;&gt;C -->
<g id="edge4" class="edge lift">
<title>FC&#45;&gt;C</title>
<path fill="none" stroke="#586e75" stroke-dasharray="5,2" d="M215.6,-61.92C215.6,-53.37 215.6,-44.83 215.6,-36.28"/>
<polygon fill="#586e75" stroke="#586e75" points="212.1,-61.95 215.6,-71.95 219.1,-61.95 212.1,-61.95"/>
</g>
</g>
</svg>
