<?xml version="1.0" encoding="UTF-8" standalone="no"?>
<!DOCTYPE svg PUBLIC "-//W3C//DTD SVG 1.1//EN"
 "http://www.w3.org/Graphics/SVG/1.1/DTD/svg11.dtd">
<!-- Generated by graphviz version 2.43.0 (0)
 -->
<!-- Title: %3 Pages: 1 -->
<svg width="279pt" height="116pt"
 viewBox="0.00 0.00 279.20 116.00" xmlns="http://www.w3.org/2000/svg" xmlns:xlink="http://www.w3.org/1999/xlink">
<g id="graph0" class="graph" transform="scale(1 1) rotate(0) translate(4 112)">
<title>%3</title>
<!-- Start -->
<!-- FA -->
<g id="node3" class="node start,disabled">
<title>FA</title>
<path fill="#d0dce3" stroke="#d0dce3" d="M82.6,-36C82.6,-36 52.6,-36 52.6,-36 46.6,-36 40.6,-30 40.6,-24 40.6,-24 40.6,-12 40.6,-12 40.6,-6 46.6,0 52.6,0 52.6,0 82.6,0 82.6,0 88.6,0 94.6,-6 94.6,-12 94.6,-12 94.6,-24 94.6,-24 94.6,-30 88.6,-36 82.6,-36"/>
<text text-anchor="middle" x="67.6" y="-14.3" font-family="Inter,Arial" font-size="14.00" fill="#ffffff">F[A]</text>
</g>
<!-- Start&#45;&gt;FA -->
<g id="edge4" class="edge start,disabled">
<title>Start&#45;&gt;FA</title>
<path fill="none" stroke="#d0dce3" stroke-width="2" d="M3.91,-18C7.37,-18 18.49,-18 30.42,-18"/>
<polygon fill="#d0dce3" stroke="#d0dce3" stroke-width="2" points="30.48,-21.5 40.48,-18 30.48,-14.5 30.48,-21.5"/>
</g>
<!-- Goal -->
<!-- FB -->
<g id="node4" class="node goal">
<title>FB</title>
<path fill="#586e75" stroke="#586e75" d="M218.6,-108C218.6,-108 188.6,-108 188.6,-108 182.6,-108 176.6,-102 176.6,-96 176.6,-96 176.6,-84 176.6,-84 176.6,-78 182.6,-72 188.6,-72 188.6,-72 218.6,-72 218.6,-72 224.6,-72 230.6,-78 230.6,-84 230.6,-84 230.6,-96 230.6,-96 230.6,-102 224.6,-108 218.6,-108"/>
<text text-anchor="middle" x="203.6" y="-86.3" font-family="Inter,Arial" font-size="14.00" fill="#ffffff">F[B]</text>
</g>
<!-- FA&#45;&gt;FB -->
<!-- FB&#45;&gt;Goal -->
<g id="edge5" class="edge goal">
<title>FB&#45;&gt;Goal</title>
<path fill="none" stroke="#586e75" stroke-width="2" d="M230.92,-90C240.17,-90 250.07,-90 257.37,-90"/>
<polygon fill="#586e75" stroke="#586e75" stroke-width="2" points="257.51,-93.5 267.51,-90 257.51,-86.5 257.51,-93.5"/>
</g>
<!-- A -->
<g id="node5" class="node">
<title>A</title>
<path fill="#ffffff" stroke="#586e75" d="M82.6,-108C82.6,-108 52.6,-108 52.6,-108 46.6,-108 40.6,-102 40.6,-96 40.6,-96 40.6,-84 40.6,-84 40.6,-78 46.6,-72 52.6,-72 52.6,-72 82.6,-72 82.6,-72 88.6,-72 94.6,-78 94.6,-84 94.6,-84 94.6,-96 94.6,-96 94.6,-102 88.6,-108 82.6,-108"/>
<text text-anchor="middle" x="67.6" y="-86.3" font-family="Inter,Arial" font-size="14.00" fill="#586e75">A</text>
</g>
<!-- A&#45;&gt;FA -->
<!-- A&#45;&gt;FB -->
<g id="edge1" class="edge">
<title>A&#45;&gt;FB</title>
<path fill="none" stroke="#586e75" d="M94.75,-90C115.14,-90 143.68,-90 166.28,-90"/>
<polygon fill="#586e75" stroke="#586e75" points="166.51,-93.5 176.51,-90 166.51,-86.5 166.51,-93.5"/>
<text text-anchor="middle" x="135.6" y="-93.2" font-family="Inter,Arial" font-size="11.00" fill="#586e75">f</text>
</g>
</g>
</svg>
