<?xml version="1.0" encoding="UTF-8" standalone="no"?>
<!DOCTYPE svg PUBLIC "-//W3C//DTD SVG 1.1//EN"
 "http://www.w3.org/Graphics/SVG/1.1/DTD/svg11.dtd">
<!-- Generated by graphviz version 2.43.0 (0)
 -->
<!-- Title: %3 Pages: 1 -->
<svg width="173pt" height="116pt"
 viewBox="0.00 0.00 173.00 116.00" xmlns="http://www.w3.org/2000/svg" xmlns:xlink="http://www.w3.org/1999/xlink">
<g id="graph0" class="graph" transform="scale(1 1) rotate(0) translate(4 112)">
<title>%3</title>
<!-- X -->
<g id="node1" class="node">
<title>X</title>
<path fill="#ffffff" stroke="#586e75" d="M42,-108C42,-108 12,-108 12,-108 6,-108 0,-102 0,-96 0,-96 0,-84 0,-84 0,-78 6,-72 12,-72 12,-72 42,-72 42,-72 48,-72 54,-78 54,-84 54,-84 54,-96 54,-96 54,-102 48,-108 42,-108"/>
<text text-anchor="middle" x="27" y="-86.3" font-family="Inter,Arial" font-size="14.00" fill="#586e75">X</text>
</g>
<!-- X2 -->
<!-- X&#45;&gt;X2 -->
<!-- A -->
<g id="node3" class="node">
<title>A</title>
<path fill="#ffffff" stroke="#586e75" d="M153,-108C153,-108 123,-108 123,-108 117,-108 111,-102 111,-96 111,-96 111,-84 111,-84 111,-78 117,-72 123,-72 123,-72 153,-72 153,-72 159,-72 165,-78 165,-84 165,-84 165,-96 165,-96 165,-102 159,-108 153,-108"/>
<text text-anchor="middle" x="138" y="-86.3" font-family="Inter,Arial" font-size="14.00" fill="#586e75">A</text>
</g>
<!-- X&#45;&gt;A -->
<g id="edge3" class="edge start">
<title>X&#45;&gt;A</title>
<path fill="none" stroke="#586e75" stroke-width="2" d="M54.11,-90C68.03,-90 85.37,-90 100.6,-90"/>
<polygon fill="#586e75" stroke="#586e75" stroke-width="2" points="100.73,-93.5 110.73,-90 100.73,-86.5 100.73,-93.5"/>
<text text-anchor="middle" x="82.5" y="-93.2" font-family="Inter,Arial" font-size="11.00" fill="#586e75">F[A]</text>
</g>
<!-- B -->
<g id="node4" class="node disabled">
<title>B</title>
<path fill="#ffffff" stroke="#d0dce3" d="M153,-36C153,-36 123,-36 123,-36 117,-36 111,-30 111,-24 111,-24 111,-12 111,-12 111,-6 117,0 123,0 123,0 153,0 153,0 159,0 165,-6 165,-12 165,-12 165,-24 165,-24 165,-30 159,-36 153,-36"/>
<text text-anchor="middle" x="138" y="-14.3" font-family="Inter,Arial" font-size="14.00" fill="#d0dce3">B</text>
</g>
<!-- X&#45;&gt;B -->
<!-- X2&#45;&gt;B -->
<!-- A&#45;&gt;B -->
<g id="edge2" class="edge disabled">
<title>A&#45;&gt;B</title>
<path fill="none" stroke="#d0dce3" d="M138,-71.59C138,-63.94 138,-54.89 138,-46.43"/>
<polygon fill="#d0dce3" stroke="#d0dce3" points="141.5,-46.17 138,-36.17 134.5,-46.17 141.5,-46.17"/>
<text text-anchor="middle" x="129" y="-51.2" font-family="Inter,Arial" font-size="11.00" fill="#d0dce3">f</text>
</g>
</g>
</svg>
