<?xml version="1.0" encoding="UTF-8" standalone="no"?>
<!DOCTYPE svg PUBLIC "-//W3C//DTD SVG 1.1//EN"
 "http://www.w3.org/Graphics/SVG/1.1/DTD/svg11.dtd">
<!-- Generated by graphviz version 2.43.0 (0)
 -->
<!-- Title: %3 Pages: 1 -->
<svg width="242pt" height="98pt"
 viewBox="0.00 0.00 242.00 98.00" xmlns="http://www.w3.org/2000/svg" xmlns:xlink="http://www.w3.org/1999/xlink">
<g id="graph0" class="graph" transform="scale(1 1) rotate(0) translate(4 94)">
<title>%3</title>
<!-- A1 -->
<!-- AB -->
<g id="node5" class="node goal">
<title>AB</title>
<path fill="#586e75" stroke="#586e75" d="M132,-63C132,-63 102,-63 102,-63 96,-63 90,-57 90,-51 90,-51 90,-39 90,-39 90,-33 96,-27 102,-27 102,-27 132,-27 132,-27 138,-27 144,-33 144,-39 144,-39 144,-51 144,-51 144,-57 138,-63 132,-63"/>
<text text-anchor="middle" x="117" y="-41.3" font-family="Inter,Arial" font-size="14.00" fill="#ffffff">A×B</text>
</g>
<!-- A1&#45;&gt;AB -->
<!-- A2 -->
<g id="node2" class="node">
<title>A2</title>
<path fill="#ffffff" stroke="#586e75" d="M222,-90C222,-90 192,-90 192,-90 186,-90 180,-84 180,-78 180,-78 180,-66 180,-66 180,-60 186,-54 192,-54 192,-54 222,-54 222,-54 228,-54 234,-60 234,-66 234,-66 234,-78 234,-78 234,-84 228,-90 222,-90"/>
<text text-anchor="middle" x="207" y="-68.3" font-family="Inter,Arial" font-size="14.00" fill="#586e75">A</text>
</g>
<!-- B1 -->
<!-- B1&#45;&gt;AB -->
<!-- B2 -->
<g id="node4" class="node">
<title>B2</title>
<path fill="#ffffff" stroke="#586e75" d="M222,-36C222,-36 192,-36 192,-36 186,-36 180,-30 180,-24 180,-24 180,-12 180,-12 180,-6 186,0 192,0 192,0 222,0 222,0 228,0 234,-6 234,-12 234,-12 234,-24 234,-24 234,-30 228,-36 222,-36"/>
<text text-anchor="middle" x="207" y="-14.3" font-family="Inter,Arial" font-size="14.00" fill="#586e75">B</text>
</g>
<!-- AB&#45;&gt;A2 -->
<g id="edge3" class="edge">
<title>AB&#45;&gt;A2</title>
<path fill="none" stroke="#586e75" d="M144.4,-53.1C152.48,-55.58 161.51,-58.35 170.1,-60.99"/>
<polygon fill="#586e75" stroke="#586e75" points="169.33,-64.41 179.92,-64 171.39,-57.72 169.33,-64.41"/>
</g>
<!-- AB&#45;&gt;B2 -->
<g id="edge4" class="edge">
<title>AB&#45;&gt;B2</title>
<path fill="none" stroke="#586e75" d="M144.4,-36.9C152.48,-34.42 161.51,-31.65 170.1,-29.01"/>
<polygon fill="#586e75" stroke="#586e75" points="171.39,-32.28 179.92,-26 169.33,-25.59 171.39,-32.28"/>
</g>
</g>
</svg>
