<?xml version="1.0" encoding="UTF-8" standalone="no"?>
<!DOCTYPE svg PUBLIC "-//W3C//DTD SVG 1.1//EN"
 "http://www.w3.org/Graphics/SVG/1.1/DTD/svg11.dtd">
<!-- Generated by graphviz version 2.43.0 (0)
 -->
<!-- Title: %3 Pages: 1 -->
<svg width="567pt" height="116pt"
 viewBox="0.00 0.00 567.20 116.00" xmlns="http://www.w3.org/2000/svg" xmlns:xlink="http://www.w3.org/1999/xlink">
<g id="graph0" class="graph" transform="scale(1 1) rotate(0) translate(4 112)">
<title>%3</title>
<!-- Start -->
<!-- FAFB -->
<g id="node3" class="node start,disabled">
<title>FAFB</title>
<path fill="#d0dce3" stroke="#d0dce3" d="M102.6,-71C102.6,-71 52.6,-71 52.6,-71 46.6,-71 40.6,-65 40.6,-59 40.6,-59 40.6,-47 40.6,-47 40.6,-41 46.6,-35 52.6,-35 52.6,-35 102.6,-35 102.6,-35 108.6,-35 114.6,-41 114.6,-47 114.6,-47 114.6,-59 114.6,-59 114.6,-65 108.6,-71 102.6,-71"/>
<text text-anchor="middle" x="77.6" y="-49.3" font-family="Inter,Arial" font-size="14.00" fill="#ffffff">F[A]×F[B]</text>
</g>
<!-- Start&#45;&gt;FAFB -->
<g id="edge14" class="edge start,disabled">
<title>Start&#45;&gt;FAFB</title>
<path fill="none" stroke="#d0dce3" stroke-width="2" d="M3.63,-53C6.65,-53 17.57,-53 30.07,-53"/>
<polygon fill="#d0dce3" stroke="#d0dce3" stroke-width="2" points="30.32,-56.5 40.32,-53 30.32,-49.5 30.32,-56.5"/>
</g>
<!-- Goal -->
<!-- FA -->
<g id="node4" class="node disabled">
<title>FA</title>
<path fill="#ffffff" stroke="#d0dce3" d="M193.6,-108C193.6,-108 163.6,-108 163.6,-108 157.6,-108 151.6,-102 151.6,-96 151.6,-96 151.6,-84 151.6,-84 151.6,-78 157.6,-72 163.6,-72 163.6,-72 193.6,-72 193.6,-72 199.6,-72 205.6,-78 205.6,-84 205.6,-84 205.6,-96 205.6,-96 205.6,-102 199.6,-108 193.6,-108"/>
<text text-anchor="middle" x="178.6" y="-86.3" font-family="Inter,Arial" font-size="14.00" fill="#d0dce3">F[A]</text>
</g>
<!-- FAFB&#45;&gt;FA -->
<g id="edge4" class="edge disabled">
<title>FAFB&#45;&gt;FA</title>
<path fill="none" stroke="#d0dce3" d="M114.62,-66.46C123.46,-69.77 132.92,-73.3 141.75,-76.6"/>
<polygon fill="#d0dce3" stroke="#d0dce3" points="140.79,-79.98 151.38,-80.2 143.24,-73.42 140.79,-79.98"/>
</g>
<!-- FB -->
<g id="node5" class="node disabled">
<title>FB</title>
<path fill="#ffffff" stroke="#d0dce3" d="M193.6,-36C193.6,-36 163.6,-36 163.6,-36 157.6,-36 151.6,-30 151.6,-24 151.6,-24 151.6,-12 151.6,-12 151.6,-6 157.6,0 163.6,0 163.6,0 193.6,0 193.6,0 199.6,0 205.6,-6 205.6,-12 205.6,-12 205.6,-24 205.6,-24 205.6,-30 199.6,-36 193.6,-36"/>
<text text-anchor="middle" x="178.6" y="-14.3" font-family="Inter,Arial" font-size="14.00" fill="#d0dce3">F[B]</text>
</g>
<!-- FAFB&#45;&gt;FB -->
<g id="edge5" class="edge disabled">
<title>FAFB&#45;&gt;FB</title>
<path fill="none" stroke="#d0dce3" d="M114.62,-40.27C123.46,-37.14 132.92,-33.8 141.75,-30.68"/>
<polygon fill="#d0dce3" stroke="#d0dce3" points="143.12,-33.9 151.38,-27.27 140.79,-27.3 143.12,-33.9"/>
</g>
<!-- FA&#45;&gt;FB -->
<!-- XX -->
<g id="node6" class="node">
<title>XX</title>
<path fill="#ffffff" stroke="#586e75" d="M284.6,-108C284.6,-108 254.6,-108 254.6,-108 248.6,-108 242.6,-102 242.6,-96 242.6,-96 242.6,-84 242.6,-84 242.6,-78 248.6,-72 254.6,-72 254.6,-72 284.6,-72 284.6,-72 290.6,-72 296.6,-78 296.6,-84 296.6,-84 296.6,-96 296.6,-96 296.6,-102 290.6,-108 284.6,-108"/>
<text text-anchor="middle" x="269.6" y="-86.3" font-family="Inter,Arial" font-size="14.00" fill="#586e75">X×X</text>
</g>
<!-- FA&#45;&gt;XX -->
<g id="edge6" class="edge disabled">
<title>FA&#45;&gt;XX</title>
<path fill="none" stroke="#d0dce3" d="M205.82,-90C214.15,-90 223.51,-90 232.42,-90"/>
<polygon fill="#d0dce3" stroke="#d0dce3" points="232.57,-93.5 242.57,-90 232.57,-86.5 232.57,-93.5"/>
</g>
<!-- AB -->
<g id="node7" class="node disabled">
<title>AB</title>
<path fill="#ffffff" stroke="#d0dce3" d="M284.6,-36C284.6,-36 254.6,-36 254.6,-36 248.6,-36 242.6,-30 242.6,-24 242.6,-24 242.6,-12 242.6,-12 242.6,-6 248.6,0 254.6,0 254.6,0 284.6,0 284.6,0 290.6,0 296.6,-6 296.6,-12 296.6,-12 296.6,-24 296.6,-24 296.6,-30 290.6,-36 284.6,-36"/>
<text text-anchor="middle" x="269.6" y="-14.3" font-family="Inter,Arial" font-size="14.00" fill="#d0dce3">A×B</text>
</g>
<!-- FA&#45;&gt;AB -->
<g id="edge7" class="edge disabled">
<title>FA&#45;&gt;AB</title>
<path fill="none" stroke="#d0dce3" d="M202.06,-71.83C213.02,-62.96 226.37,-52.16 238.23,-42.57"/>
<polygon fill="#d0dce3" stroke="#d0dce3" points="240.58,-45.17 246.15,-36.16 236.17,-39.73 240.58,-45.17"/>
</g>
<!-- FB&#45;&gt;XX -->
<g id="edge8" class="edge disabled">
<title>FB&#45;&gt;XX</title>
<path fill="none" stroke="#d0dce3" d="M202.06,-36.17C213.02,-45.04 226.37,-55.84 238.23,-65.43"/>
<polygon fill="#d0dce3" stroke="#d0dce3" points="236.17,-68.27 246.15,-71.84 240.58,-62.83 236.17,-68.27"/>
</g>
<!-- FB&#45;&gt;AB -->
<g id="edge9" class="edge disabled">
<title>FB&#45;&gt;AB</title>
<path fill="none" stroke="#d0dce3" d="M205.82,-18C214.15,-18 223.51,-18 232.42,-18"/>
<polygon fill="#d0dce3" stroke="#d0dce3" points="232.57,-21.5 242.57,-18 232.57,-14.5 232.57,-21.5"/>
</g>
<!-- XX&#45;&gt;AB -->
<!-- X -->
<g id="node9" class="node">
<title>X</title>
<path fill="#ffffff" stroke="#586e75" d="M415.6,-108C415.6,-108 385.6,-108 385.6,-108 379.6,-108 373.6,-102 373.6,-96 373.6,-96 373.6,-84 373.6,-84 373.6,-78 379.6,-72 385.6,-72 385.6,-72 415.6,-72 415.6,-72 421.6,-72 427.6,-78 427.6,-84 427.6,-84 427.6,-96 427.6,-96 427.6,-102 421.6,-108 415.6,-108"/>
<text text-anchor="middle" x="400.6" y="-86.3" font-family="Inter,Arial" font-size="14.00" fill="#586e75">X</text>
</g>
<!-- XX&#45;&gt;X -->
<!-- C -->
<g id="node10" class="node disabled">
<title>C</title>
<path fill="#ffffff" stroke="#d0dce3" d="M415.6,-36C415.6,-36 385.6,-36 385.6,-36 379.6,-36 373.6,-30 373.6,-24 373.6,-24 373.6,-12 373.6,-12 373.6,-6 379.6,0 385.6,0 385.6,0 415.6,0 415.6,0 421.6,0 427.6,-6 427.6,-12 427.6,-12 427.6,-24 427.6,-24 427.6,-30 421.6,-36 415.6,-36"/>
<text text-anchor="middle" x="400.6" y="-14.3" font-family="Inter,Arial" font-size="14.00" fill="#d0dce3">C</text>
</g>
<!-- AB&#45;&gt;C -->
<g id="edge11" class="edge disabled">
<title>AB&#45;&gt;C</title>
<path fill="none" stroke="#d0dce3" d="M296.71,-18C315.85,-18 342.09,-18 363.28,-18"/>
<polygon fill="#d0dce3" stroke="#d0dce3" points="363.53,-21.5 373.53,-18 363.53,-14.5 363.53,-21.5"/>
<text text-anchor="middle" x="335.1" y="-21.2" font-family="Inter,Arial" font-size="11.00" fill="#d0dce3">f</text>
</g>
<!-- FC -->
<g id="node8" class="node goal,disabled">
<title>FC</title>
<path fill="#d0dce3" stroke="#d0dce3" d="M506.6,-71C506.6,-71 476.6,-71 476.6,-71 470.6,-71 464.6,-65 464.6,-59 464.6,-59 464.6,-47 464.6,-47 464.6,-41 470.6,-35 476.6,-35 476.6,-35 506.6,-35 506.6,-35 512.6,-35 518.6,-41 518.6,-47 518.6,-47 518.6,-59 518.6,-59 518.6,-65 512.6,-71 506.6,-71"/>
<text text-anchor="middle" x="491.6" y="-49.3" font-family="Inter,Arial" font-size="14.00" fill="#ffffff">F[C]</text>
</g>
<!-- FC&#45;&gt;Goal -->
<g id="edge15" class="edge goal,disabled">
<title>FC&#45;&gt;Goal</title>
<path fill="none" stroke="#d0dce3" stroke-width="2" d="M518.92,-53C528.17,-53 538.07,-53 545.37,-53"/>
<polygon fill="#d0dce3" stroke="#d0dce3" stroke-width="2" points="545.51,-56.5 555.51,-53 545.51,-49.5 545.51,-56.5"/>
</g>
<!-- X&#45;&gt;FC -->
<!-- X&#45;&gt;C -->
<!-- C&#45;&gt;FC -->
</g>
</svg>
