<?xml version="1.0" encoding="UTF-8" standalone="no"?>
<!DOCTYPE svg PUBLIC "-//W3C//DTD SVG 1.1//EN"
 "http://www.w3.org/Graphics/SVG/1.1/DTD/svg11.dtd">
<!-- Generated by graphviz version 2.43.0 (0)
 -->
<!-- Title: %3 Pages: 1 -->
<svg width="650pt" height="98pt"
 viewBox="0.00 0.00 650.00 98.00" xmlns="http://www.w3.org/2000/svg" xmlns:xlink="http://www.w3.org/1999/xlink">
<g id="graph0" class="graph" transform="scale(1 1) rotate(0) translate(4 94)">
<title>%3</title>
<!-- Nothing -->
<g id="node1" class="node">
<title>Nothing</title>
<path fill="#ffffff" stroke="#586e75" d="M107,-62C107,-62 12,-62 12,-62 6,-62 0,-56 0,-50 0,-50 0,-38 0,-38 0,-32 6,-26 12,-26 12,-26 107,-26 107,-26 113,-26 119,-32 119,-38 119,-38 119,-50 119,-50 119,-56 113,-62 107,-62"/>
<text text-anchor="middle" x="59.5" y="-40.3" font-family="Inter,Arial" font-size="14.00" fill="#586e75">Type Constructor</text>
</g>
<!-- Functor -->
<g id="node2" class="node impossible">
<title>Functor</title>
<path fill="none" stroke="#586e75" stroke-dasharray="5,2" d="M227,-62C227,-62 189,-62 189,-62 183,-62 177,-56 177,-50 177,-50 177,-38 177,-38 177,-32 183,-26 189,-26 189,-26 227,-26 227,-26 233,-26 239,-32 239,-38 239,-38 239,-50 239,-50 239,-56 233,-62 227,-62"/>
<text text-anchor="middle" x="208" y="-40.3" font-family="Inter,Arial" font-size="14.00" fill="#586e75">Functor</text>
</g>
<!-- Nothing&#45;&gt;Functor -->
<g id="edge1" class="edge impossible">
<title>Nothing&#45;&gt;Functor</title>
<path fill="none" stroke="#586e75" stroke-dasharray="1,5" d="M119.24,-44C135.13,-44 151.96,-44 166.59,-44"/>
<polygon fill="#586e75" stroke="#586e75" points="166.81,-47.5 176.81,-44 166.81,-40.5 166.81,-47.5"/>
<text text-anchor="middle" x="148" y="-47.2" font-family="Inter,Arial" font-size="11.00" fill="#586e75">map</text>
</g>
<!-- Apply -->
<!-- Functor&#45;&gt;Apply -->
<!-- Applicative -->
<!-- Apply&#45;&gt;Applicative -->
<!-- FlatMap -->
<!-- Apply&#45;&gt;FlatMap -->
<!-- Monad -->
<!-- Applicative&#45;&gt;Monad -->
<!-- FlatMap&#45;&gt;Monad -->
</g>
</svg>
