<?xml version="1.0" encoding="UTF-8" standalone="no"?>
<!DOCTYPE svg PUBLIC "-//W3C//DTD SVG 1.1//EN"
 "http://www.w3.org/Graphics/SVG/1.1/DTD/svg11.dtd">
<!-- Generated by graphviz version 2.43.0 (0)
 -->
<!-- Title: %3 Pages: 1 -->
<svg width="650pt" height="98pt"
 viewBox="0.00 0.00 650.00 98.00" xmlns="http://www.w3.org/2000/svg" xmlns:xlink="http://www.w3.org/1999/xlink">
<g id="graph0" class="graph" transform="scale(1 1) rotate(0) translate(4 94)">
<title>%3</title>
<!-- Nothing -->
<g id="node1" class="node">
<title>Nothing</title>
<path fill="#ffffff" stroke="#586e75" d="M107,-62C107,-62 12,-62 12,-62 6,-62 0,-56 0,-50 0,-50 0,-38 0,-38 0,-32 6,-26 12,-26 12,-26 107,-26 107,-26 113,-26 119,-32 119,-38 119,-38 119,-50 119,-50 119,-56 113,-62 107,-62"/>
<text text-anchor="middle" x="59.5" y="-40.3" font-family="Inter,Arial" font-size="14.00" fill="#586e75">Type Constructor</text>
</g>
<!-- Functor -->
<g id="node2" class="node">
<title>Functor</title>
<path fill="#ffffff" stroke="#586e75" d="M227,-62C227,-62 189,-62 189,-62 183,-62 177,-56 177,-50 177,-50 177,-38 177,-38 177,-32 183,-26 189,-26 189,-26 227,-26 227,-26 233,-26 239,-32 239,-38 239,-38 239,-50 239,-50 239,-56 233,-62 227,-62"/>
<text text-anchor="middle" x="208" y="-40.3" font-family="Inter,Arial" font-size="14.00" fill="#586e75">Functor</text>
</g>
<!-- Nothing&#45;&gt;Functor -->
<g id="edge1" class="edge">
<title>Nothing&#45;&gt;Functor</title>
<path fill="none" stroke="#586e75" d="M119.24,-44C135.13,-44 151.96,-44 166.59,-44"/>
<polygon fill="#586e75" stroke="#586e75" points="166.81,-47.5 176.81,-44 166.81,-40.5 166.81,-47.5"/>
<text text-anchor="middle" x="148" y="-47.2" font-family="Inter,Arial" font-size="11.00" fill="#586e75">map</text>
</g>
<!-- Apply -->
<g id="node3" class="node">
<title>Apply</title>
<path fill="#ffffff" stroke="#586e75" d="M345,-62C345,-62 315,-62 315,-62 309,-62 303,-56 303,-50 303,-50 303,-38 303,-38 303,-32 309,-26 315,-26 315,-26 345,-26 345,-26 351,-26 357,-32 357,-38 357,-38 357,-50 357,-50 357,-56 351,-62 345,-62"/>
<text text-anchor="middle" x="330" y="-40.3" font-family="Inter,Arial" font-size="14.00" fill="#586e75">Apply</text>
</g>
<!-- Functor&#45;&gt;Apply -->
<g id="edge2" class="edge">
<title>Functor&#45;&gt;Apply</title>
<path fill="none" stroke="#586e75" d="M239.28,-44C255.5,-44 275.58,-44 292.64,-44"/>
<polygon fill="#586e75" stroke="#586e75" points="292.8,-47.5 302.8,-44 292.8,-40.5 292.8,-47.5"/>
<text text-anchor="middle" x="271" y="-47.2" font-family="Inter,Arial" font-size="11.00" fill="#586e75">map2</text>
</g>
<!-- Applicative -->
<g id="node4" class="node disabled">
<title>Applicative</title>
<path fill="#ffffff" stroke="#d0dce3" d="M499,-90C499,-90 441,-90 441,-90 435,-90 429,-84 429,-78 429,-78 429,-66 429,-66 429,-60 435,-54 441,-54 441,-54 499,-54 499,-54 505,-54 511,-60 511,-66 511,-66 511,-78 511,-78 511,-84 505,-90 499,-90"/>
<text text-anchor="middle" x="470" y="-68.3" font-family="Inter,Arial" font-size="14.00" fill="#d0dce3">Applicative</text>
</g>
<!-- Apply&#45;&gt;Applicative -->
<g id="edge3" class="edge disabled">
<title>Apply&#45;&gt;Applicative</title>
<path fill="none" stroke="#d0dce3" d="M357.28,-49.33C374.69,-52.86 398.07,-57.61 418.95,-61.84"/>
<polygon fill="#d0dce3" stroke="#d0dce3" points="418.46,-65.32 428.96,-63.88 419.86,-58.46 418.46,-65.32"/>
<text text-anchor="middle" x="393" y="-62.2" font-family="Inter,Arial" font-size="11.00" fill="#d0dce3">pure</text>
</g>
<!-- FlatMap -->
<g id="node5" class="node">
<title>FlatMap</title>
<path fill="#ffffff" stroke="#586e75" d="M491,-36C491,-36 449,-36 449,-36 443,-36 437,-30 437,-24 437,-24 437,-12 437,-12 437,-6 443,0 449,0 449,0 491,0 491,0 497,0 503,-6 503,-12 503,-12 503,-24 503,-24 503,-30 497,-36 491,-36"/>
<text text-anchor="middle" x="470" y="-14.3" font-family="Inter,Arial" font-size="14.00" fill="#586e75">FlatMap</text>
</g>
<!-- Apply&#45;&gt;FlatMap -->
<g id="edge4" class="edge">
<title>Apply&#45;&gt;FlatMap</title>
<path fill="none" stroke="#586e75" d="M357.44,-37C363.21,-35.58 369.29,-34.17 375,-33 391.74,-29.58 410.28,-26.48 426.44,-23.99"/>
<polygon fill="#586e75" stroke="#586e75" points="427.31,-27.4 436.68,-22.45 426.27,-20.48 427.31,-27.4"/>
<text text-anchor="middle" x="393" y="-36.2" font-family="Inter,Arial" font-size="11.00" fill="#586e75">flatMap</text>
</g>
<!-- Monad -->
<g id="node6" class="node impossible,disabled">
<title>Monad</title>
<path fill="none" stroke="#d0dce3" stroke-dasharray="5,2" d="M630,-62C630,-62 595,-62 595,-62 589,-62 583,-56 583,-50 583,-50 583,-38 583,-38 583,-32 589,-26 595,-26 595,-26 630,-26 630,-26 636,-26 642,-32 642,-38 642,-38 642,-50 642,-50 642,-56 636,-62 630,-62"/>
<text text-anchor="middle" x="612.5" y="-40.3" font-family="Inter,Arial" font-size="14.00" fill="#d0dce3">Monad</text>
</g>
<!-- Applicative&#45;&gt;Monad -->
<g id="edge5" class="edge disabled">
<title>Applicative&#45;&gt;Monad</title>
<path fill="none" stroke="#d0dce3" d="M511.26,-63.98C530.65,-60.11 553.78,-55.5 572.93,-51.69"/>
<polygon fill="#d0dce3" stroke="#d0dce3" points="573.71,-55.1 582.83,-49.71 572.34,-48.23 573.71,-55.1"/>
<text text-anchor="middle" x="547" y="-62.2" font-family="Inter,Arial" font-size="11.00" fill="#d0dce3">flatMap</text>
</g>
<!-- FlatMap&#45;&gt;Monad -->
<g id="edge6" class="edge impossible,disabled">
<title>FlatMap&#45;&gt;Monad</title>
<path fill="none" stroke="#d0dce3" stroke-dasharray="1,5" d="M503.3,-22.55C521.48,-25.26 544.57,-28.96 565,-33 567.49,-33.49 570.05,-34.03 572.63,-34.58"/>
<polygon fill="#d0dce3" stroke="#d0dce3" points="572.03,-38.03 582.55,-36.8 573.56,-31.2 572.03,-38.03"/>
<text text-anchor="middle" x="547" y="-36.2" font-family="Inter,Arial" font-size="11.00" fill="#d0dce3">pure</text>
</g>
</g>
</svg>
