<?xml version="1.0" encoding="UTF-8" standalone="no"?>
<!DOCTYPE svg PUBLIC "-//W3C//DTD SVG 1.1//EN"
 "http://www.w3.org/Graphics/SVG/1.1/DTD/svg11.dtd">
<!-- Generated by graphviz version 2.43.0 (0)
 -->
<!-- Title: %3 Pages: 1 -->
<svg width="467pt" height="116pt"
 viewBox="0.00 0.00 467.20 116.00" xmlns="http://www.w3.org/2000/svg" xmlns:xlink="http://www.w3.org/1999/xlink">
<g id="graph0" class="graph" transform="scale(1 1) rotate(0) translate(4 112)">
<title>%3</title>
<!-- Start -->
<!-- FA -->
<g id="node3" class="node start,disabled">
<title>FA</title>
<path fill="#d0dce3" stroke="#d0dce3" d="M82.6,-36C82.6,-36 52.6,-36 52.6,-36 46.6,-36 40.6,-30 40.6,-24 40.6,-24 40.6,-12 40.6,-12 40.6,-6 46.6,0 52.6,0 52.6,0 82.6,0 82.6,0 88.6,0 94.6,-6 94.6,-12 94.6,-12 94.6,-24 94.6,-24 94.6,-30 88.6,-36 82.6,-36"/>
<text text-anchor="middle" x="67.6" y="-14.3" font-family="Inter,Arial" font-size="14.00" fill="#ffffff">F[A]</text>
</g>
<!-- Start&#45;&gt;FA -->
<g id="edge9" class="edge start,disabled">
<title>Start&#45;&gt;FA</title>
<path fill="none" stroke="#d0dce3" stroke-width="2" d="M3.91,-18C7.37,-18 18.49,-18 30.42,-18"/>
<polygon fill="#d0dce3" stroke="#d0dce3" stroke-width="2" points="30.48,-21.5 40.48,-18 30.48,-14.5 30.48,-21.5"/>
</g>
<!-- Goal -->
<!-- XX -->
<g id="node8" class="node">
<title>XX</title>
<path fill="#ffffff" stroke="#586e75" d="M223.6,-36C223.6,-36 146.6,-36 146.6,-36 140.6,-36 134.6,-30 134.6,-24 134.6,-24 134.6,-12 134.6,-12 134.6,-6 140.6,0 146.6,0 146.6,0 223.6,0 223.6,0 229.6,0 235.6,-6 235.6,-12 235.6,-12 235.6,-24 235.6,-24 235.6,-30 229.6,-36 223.6,-36"/>
<text text-anchor="middle" x="185.1" y="-14.3" font-family="Inter,Arial" font-size="14.00" fill="#586e75">PosInt×PosInt</text>
</g>
<!-- FA&#45;&gt;XX -->
<!-- A -->
<g id="node4" class="node disabled">
<title>A</title>
<path fill="#ffffff" stroke="#d0dce3" d="M82.6,-108C82.6,-108 52.6,-108 52.6,-108 46.6,-108 40.6,-102 40.6,-96 40.6,-96 40.6,-84 40.6,-84 40.6,-78 46.6,-72 52.6,-72 52.6,-72 82.6,-72 82.6,-72 88.6,-72 94.6,-78 94.6,-84 94.6,-84 94.6,-96 94.6,-96 94.6,-102 88.6,-108 82.6,-108"/>
<text text-anchor="middle" x="67.6" y="-86.3" font-family="Inter,Arial" font-size="14.00" fill="#d0dce3">A</text>
</g>
<!-- A&#45;&gt;FA -->
<!-- FB -->
<g id="node5" class="node disabled">
<title>FB</title>
<path fill="#ffffff" stroke="#d0dce3" d="M200.1,-108C200.1,-108 170.1,-108 170.1,-108 164.1,-108 158.1,-102 158.1,-96 158.1,-96 158.1,-84 158.1,-84 158.1,-78 164.1,-72 170.1,-72 170.1,-72 200.1,-72 200.1,-72 206.1,-72 212.1,-78 212.1,-84 212.1,-84 212.1,-96 212.1,-96 212.1,-102 206.1,-108 200.1,-108"/>
<text text-anchor="middle" x="185.1" y="-86.3" font-family="Inter,Arial" font-size="14.00" fill="#d0dce3">F[B]</text>
</g>
<!-- A&#45;&gt;FB -->
<g id="edge5" class="edge disabled">
<title>A&#45;&gt;FB</title>
<path fill="none" stroke="#d0dce3" d="M94.81,-90C110.46,-90 130.58,-90 147.75,-90"/>
<polygon fill="#d0dce3" stroke="#d0dce3" points="148,-93.5 157.99,-90 147.99,-86.5 148,-93.5"/>
<text text-anchor="middle" x="114.6" y="-93.2" font-family="Inter,Arial" font-size="11.00" fill="#d0dce3">f</text>
</g>
<!-- B -->
<!-- FB&#45;&gt;B -->
<!-- FB&#45;&gt;XX -->
<!-- FB2 -->
<g id="node7" class="node goal,disabled">
<title>FB2</title>
<path fill="#d0dce3" stroke="#d0dce3" d="M406.1,-108C406.1,-108 376.1,-108 376.1,-108 370.1,-108 364.1,-102 364.1,-96 364.1,-96 364.1,-84 364.1,-84 364.1,-78 370.1,-72 376.1,-72 376.1,-72 406.1,-72 406.1,-72 412.1,-72 418.1,-78 418.1,-84 418.1,-84 418.1,-96 418.1,-96 418.1,-102 412.1,-108 406.1,-108"/>
<text text-anchor="middle" x="391.1" y="-86.3" font-family="Inter,Arial" font-size="14.00" fill="#ffffff">F[B]</text>
</g>
<!-- B&#45;&gt;FB2 -->
<!-- FB2&#45;&gt;Goal -->
<g id="edge10" class="edge goal,disabled">
<title>FB2&#45;&gt;Goal</title>
<path fill="none" stroke="#d0dce3" stroke-width="2" d="M418.25,-90C427.75,-90 437.96,-90 445.43,-90"/>
<polygon fill="#d0dce3" stroke="#d0dce3" stroke-width="2" points="445.49,-93.5 455.49,-90 445.49,-86.5 445.49,-93.5"/>
</g>
<!-- X -->
<g id="node9" class="node">
<title>X</title>
<path fill="#ffffff" stroke="#586e75" d="M406.6,-36C406.6,-36 375.6,-36 375.6,-36 369.6,-36 363.6,-30 363.6,-24 363.6,-24 363.6,-12 363.6,-12 363.6,-6 369.6,0 375.6,0 375.6,0 406.6,0 406.6,0 412.6,0 418.6,-6 418.6,-12 418.6,-12 418.6,-24 418.6,-24 418.6,-30 412.6,-36 406.6,-36"/>
<text text-anchor="middle" x="391.1" y="-14.3" font-family="Inter,Arial" font-size="14.00" fill="#586e75">PosInt</text>
</g>
<!-- FB2&#45;&gt;X -->
<!-- XX&#45;&gt;X -->
<g id="edge6" class="edge disabled">
<title>XX&#45;&gt;X</title>
<path fill="none" stroke="#d0dce3" d="M235.74,-18C272.03,-18 320.45,-18 353.32,-18"/>
<polygon fill="#d0dce3" stroke="#d0dce3" points="353.41,-21.5 363.41,-18 353.41,-14.5 353.41,-21.5"/>
<text text-anchor="middle" x="299.6" y="-21.2" font-family="Inter,Arial" font-size="11.00" fill="#d0dce3">combine</text>
</g>
</g>
</svg>
