<?xml version="1.0" encoding="UTF-8" standalone="no"?>
<!DOCTYPE svg PUBLIC "-//W3C//DTD SVG 1.1//EN"
 "http://www.w3.org/Graphics/SVG/1.1/DTD/svg11.dtd">
<!-- Generated by graphviz version 2.43.0 (0)
 -->
<!-- Title: %3 Pages: 1 -->
<svg width="508pt" height="116pt"
 viewBox="0.00 0.00 508.20 116.00" xmlns="http://www.w3.org/2000/svg" xmlns:xlink="http://www.w3.org/1999/xlink">
<g id="graph0" class="graph" transform="scale(1 1) rotate(0) translate(4 112)">
<title>%3</title>
<!-- Start -->
<!-- FA -->
<g id="node3" class="node start">
<title>FA</title>
<path fill="#586e75" stroke="#586e75" d="M103.6,-36C103.6,-36 52.6,-36 52.6,-36 46.6,-36 40.6,-30 40.6,-24 40.6,-24 40.6,-12 40.6,-12 40.6,-6 46.6,0 52.6,0 52.6,0 103.6,0 103.6,0 109.6,0 115.6,-6 115.6,-12 115.6,-12 115.6,-24 115.6,-24 115.6,-30 109.6,-36 103.6,-36"/>
<text text-anchor="middle" x="78.1" y="-14.3" font-family="Inter,Arial" font-size="14.00" fill="#ffffff">Weight[A]</text>
</g>
<!-- Start&#45;&gt;FA -->
<g id="edge9" class="edge start">
<title>Start&#45;&gt;FA</title>
<path fill="none" stroke="#586e75" stroke-width="2" d="M3.63,-18C6.68,-18 17.67,-18 30.26,-18"/>
<polygon fill="#586e75" stroke="#586e75" stroke-width="2" points="30.58,-21.5 40.58,-18 30.58,-14.5 30.58,-21.5"/>
</g>
<!-- Goal -->
<!-- XX -->
<g id="node8" class="node disabled">
<title>XX</title>
<path fill="#ffffff" stroke="#d0dce3" d="M244.6,-36C244.6,-36 167.6,-36 167.6,-36 161.6,-36 155.6,-30 155.6,-24 155.6,-24 155.6,-12 155.6,-12 155.6,-6 161.6,0 167.6,0 167.6,0 244.6,0 244.6,0 250.6,0 256.6,-6 256.6,-12 256.6,-12 256.6,-24 256.6,-24 256.6,-30 250.6,-36 244.6,-36"/>
<text text-anchor="middle" x="206.1" y="-14.3" font-family="Inter,Arial" font-size="14.00" fill="#d0dce3">PosInt×PosInt</text>
</g>
<!-- FA&#45;&gt;XX -->
<!-- A -->
<g id="node4" class="node disabled">
<title>A</title>
<path fill="#ffffff" stroke="#d0dce3" d="M93.1,-108C93.1,-108 63.1,-108 63.1,-108 57.1,-108 51.1,-102 51.1,-96 51.1,-96 51.1,-84 51.1,-84 51.1,-78 57.1,-72 63.1,-72 63.1,-72 93.1,-72 93.1,-72 99.1,-72 105.1,-78 105.1,-84 105.1,-84 105.1,-96 105.1,-96 105.1,-102 99.1,-108 93.1,-108"/>
<text text-anchor="middle" x="78.1" y="-86.3" font-family="Inter,Arial" font-size="14.00" fill="#d0dce3">A</text>
</g>
<!-- A&#45;&gt;FA -->
<!-- FB -->
<g id="node5" class="node">
<title>FB</title>
<path fill="#ffffff" stroke="#586e75" d="M231.6,-108C231.6,-108 180.6,-108 180.6,-108 174.6,-108 168.6,-102 168.6,-96 168.6,-96 168.6,-84 168.6,-84 168.6,-78 174.6,-72 180.6,-72 180.6,-72 231.6,-72 231.6,-72 237.6,-72 243.6,-78 243.6,-84 243.6,-84 243.6,-96 243.6,-96 243.6,-102 237.6,-108 231.6,-108"/>
<text text-anchor="middle" x="206.1" y="-86.3" font-family="Inter,Arial" font-size="14.00" fill="#586e75">Weight[B]</text>
</g>
<!-- A&#45;&gt;FB -->
<g id="edge5" class="edge disabled">
<title>A&#45;&gt;FB</title>
<path fill="none" stroke="#d0dce3" d="M105.21,-90C120.58,-90 140.49,-90 158.48,-90"/>
<polygon fill="#d0dce3" stroke="#d0dce3" points="158.52,-93.5 168.52,-90 158.52,-86.5 158.52,-93.5"/>
<text text-anchor="middle" x="135.6" y="-93.2" font-family="Inter,Arial" font-size="11.00" fill="#d0dce3">f</text>
</g>
<!-- B -->
<!-- FB&#45;&gt;B -->
<!-- FB&#45;&gt;XX -->
<!-- FB2 -->
<g id="node7" class="node goal">
<title>FB2</title>
<path fill="#586e75" stroke="#586e75" d="M447.6,-108C447.6,-108 396.6,-108 396.6,-108 390.6,-108 384.6,-102 384.6,-96 384.6,-96 384.6,-84 384.6,-84 384.6,-78 390.6,-72 396.6,-72 396.6,-72 447.6,-72 447.6,-72 453.6,-72 459.6,-78 459.6,-84 459.6,-84 459.6,-96 459.6,-96 459.6,-102 453.6,-108 447.6,-108"/>
<text text-anchor="middle" x="422.1" y="-86.3" font-family="Inter,Arial" font-size="14.00" fill="#ffffff">Weight[B]</text>
</g>
<!-- B&#45;&gt;FB2 -->
<!-- FB2&#45;&gt;Goal -->
<g id="edge10" class="edge goal">
<title>FB2&#45;&gt;Goal</title>
<path fill="none" stroke="#586e75" stroke-width="2" d="M459.81,-90C469.54,-90 479.3,-90 486.44,-90"/>
<polygon fill="#586e75" stroke="#586e75" stroke-width="2" points="486.55,-93.5 496.55,-90 486.55,-86.5 486.55,-93.5"/>
</g>
<!-- X -->
<g id="node9" class="node disabled">
<title>X</title>
<path fill="#ffffff" stroke="#d0dce3" d="M437.6,-36C437.6,-36 406.6,-36 406.6,-36 400.6,-36 394.6,-30 394.6,-24 394.6,-24 394.6,-12 394.6,-12 394.6,-6 400.6,0 406.6,0 406.6,0 437.6,0 437.6,0 443.6,0 449.6,-6 449.6,-12 449.6,-12 449.6,-24 449.6,-24 449.6,-30 443.6,-36 437.6,-36"/>
<text text-anchor="middle" x="422.1" y="-14.3" font-family="Inter,Arial" font-size="14.00" fill="#d0dce3">PosInt</text>
</g>
<!-- FB2&#45;&gt;X -->
<!-- XX&#45;&gt;X -->
<g id="edge6" class="edge disabled">
<title>XX&#45;&gt;X</title>
<path fill="none" stroke="#d0dce3" d="M256.73,-18C295.67,-18 349.01,-18 384.22,-18"/>
<polygon fill="#d0dce3" stroke="#d0dce3" points="384.54,-21.5 394.54,-18 384.54,-14.5 384.54,-21.5"/>
<text text-anchor="middle" x="320.6" y="-21.2" font-family="Inter,Arial" font-size="11.00" fill="#d0dce3">combine</text>
</g>
</g>
</svg>
