<?xml version="1.0" encoding="UTF-8" standalone="no"?>
<!DOCTYPE svg PUBLIC "-//W3C//DTD SVG 1.1//EN"
 "http://www.w3.org/Graphics/SVG/1.1/DTD/svg11.dtd">
<!-- Generated by graphviz version 2.43.0 (0)
 -->
<!-- Title: %3 Pages: 1 -->
<svg width="232pt" height="98pt"
 viewBox="0.00 0.00 232.20 98.00" xmlns="http://www.w3.org/2000/svg" xmlns:xlink="http://www.w3.org/1999/xlink">
<g id="graph0" class="graph" transform="scale(1 1) rotate(0) translate(4 94)">
<title>%3</title>
<!-- Start -->
<!-- A -->
<g id="node3" class="node start">
<title>A</title>
<path fill="#586e75" stroke="#586e75" d="M82.1,-90C82.1,-90 52.1,-90 52.1,-90 46.1,-90 40.1,-84 40.1,-78 40.1,-78 40.1,-66 40.1,-66 40.1,-60 46.1,-54 52.1,-54 52.1,-54 82.1,-54 82.1,-54 88.1,-54 94.1,-60 94.1,-66 94.1,-66 94.1,-78 94.1,-78 94.1,-84 88.1,-90 82.1,-90"/>
<text text-anchor="middle" x="67.1" y="-68.3" font-family="Inter,Arial" font-size="14.00" fill="#ffffff">A</text>
</g>
<!-- Start&#45;&gt;A -->
<g id="edge3" class="edge start">
<title>Start&#45;&gt;A</title>
<path fill="none" stroke="#586e75" stroke-width="2" d="M3.9,-72C7.28,-72 17.98,-72 29.58,-72"/>
<polygon fill="#586e75" stroke="#586e75" stroke-width="2" points="29.85,-75.5 39.85,-72 29.85,-68.5 29.85,-75.5"/>
</g>
<!-- Goal -->
<!-- FA -->
<g id="node4" class="node goal">
<title>FA</title>
<path fill="#586e75" stroke="#586e75" d="M172.6,-90C172.6,-90 142.6,-90 142.6,-90 136.6,-90 130.6,-84 130.6,-78 130.6,-78 130.6,-66 130.6,-66 130.6,-60 136.6,-54 142.6,-54 142.6,-54 172.6,-54 172.6,-54 178.6,-54 184.6,-60 184.6,-66 184.6,-66 184.6,-78 184.6,-78 184.6,-84 178.6,-90 172.6,-90"/>
<text text-anchor="middle" x="157.6" y="-68.3" font-family="Inter,Arial" font-size="14.00" fill="#ffffff">F[A]</text>
</g>
<!-- A&#45;&gt;FA -->
<!-- FA&#45;&gt;Goal -->
<g id="edge4" class="edge goal">
<title>FA&#45;&gt;Goal</title>
<path fill="none" stroke="#586e75" stroke-width="2" d="M184.87,-72C193.81,-72 203.32,-72 210.4,-72"/>
<polygon fill="#586e75" stroke="#586e75" stroke-width="2" points="210.54,-75.5 220.54,-72 210.54,-68.5 210.54,-75.5"/>
</g>
<!-- empty -->
<!-- empty&#45;&gt;FA -->
</g>
</svg>
